# Blender v3.0.0 OBJ File: 'keyboard.blend'
# www.blender.org
mtllib keyboard.mtl
o Cube_Cube.001
v -0.424885 0.100532 1.457893
v -0.448092 -0.100532 1.537524
v -0.424885 0.100532 -1.457893
v -0.448092 -0.100532 -1.537524
v 0.424885 0.100532 1.457893
v 0.448092 -0.100532 1.537524
v 0.424885 0.100532 -1.457893
v 0.448092 -0.100532 -1.537524
v -0.448092 0.100532 -1.537524
v -0.448092 0.100532 1.537524
v 0.448092 0.100532 -1.537524
v 0.448092 0.100532 1.537524
v -0.424885 0.080374 -1.457893
v -0.424885 0.080374 1.457893
v 0.424885 0.080374 -1.457893
v 0.424885 0.080374 1.457893
v 0.328149 0.100532 -1.537524
v 0.328149 -0.100532 -1.537524
v 0.328149 0.100532 1.537524
v 0.328149 -0.100532 1.537524
v 0.311154 0.100532 -1.457893
v 0.311154 0.100532 1.457893
v 0.311154 0.080374 -1.457893
v 0.311154 0.080374 1.457893
v 0.205958 0.100532 -1.537524
v 0.205958 -0.100532 1.537524
v 0.195291 0.100532 -1.457893
v 0.195291 0.080374 -1.457893
v 0.205958 -0.100532 -1.537524
v 0.205958 0.100532 1.537524
v 0.195291 0.100532 1.457893
v 0.195291 0.080374 1.457893
v 0.094660 0.100532 -1.537524
v 0.094660 -0.100532 1.537524
v 0.089758 0.100532 -1.457893
v 0.089758 0.080374 -1.457893
v 0.094660 -0.100532 -1.537524
v 0.094660 0.100532 1.537524
v 0.089758 0.100532 1.457893
v 0.089758 0.080374 1.457893
v -0.012671 0.100532 -1.537524
v -0.012671 -0.100532 1.537524
v -0.012014 0.100532 -1.457893
v -0.012014 0.080374 -1.457893
v -0.012671 -0.100532 -1.537524
v -0.012671 0.100532 1.537524
v -0.012014 0.100532 1.457893
v -0.012014 0.080374 1.457893
v -0.118774 0.100532 -1.537524
v -0.118774 -0.100532 1.537524
v -0.112623 0.100532 -1.457893
v -0.112623 0.080374 -1.457893
v -0.118774 -0.100532 -1.537524
v -0.118774 0.100532 1.537524
v -0.112623 0.100532 1.457893
v -0.112623 0.080374 1.457893
v 0.298977 -0.100532 -1.537524
v 0.298977 0.100532 1.537524
v 0.283493 0.100532 1.457893
v 0.283493 0.080374 1.457893
v 0.298977 0.100532 -1.537524
v 0.298977 -0.100532 1.537524
v 0.283493 0.100532 -1.457893
v 0.283493 0.080374 -1.457893
v 0.176349 -0.100532 -1.537524
v 0.176349 0.100532 1.537524
v 0.167215 0.100532 1.457893
v 0.167215 0.080374 1.457893
v 0.176349 0.100532 -1.537524
v 0.176349 -0.100532 1.537524
v 0.167215 0.100532 -1.457893
v 0.167215 0.080374 -1.457893
v 0.065601 -0.100532 -1.537524
v 0.065601 0.100532 1.537524
v 0.062204 0.100532 1.457893
v 0.062204 0.080374 1.457893
v 0.065601 0.100532 -1.537524
v 0.065601 -0.100532 1.537524
v 0.062204 0.100532 -1.457893
v 0.062204 0.080374 -1.457893
v -0.045799 -0.100532 -1.537524
v -0.045799 0.100532 1.537524
v -0.043427 0.100532 1.457893
v -0.043427 0.080374 1.457893
v -0.045799 0.100532 -1.537524
v -0.045799 -0.100532 1.537524
v -0.043427 0.100532 -1.457893
v -0.043427 0.080374 -1.457893
v 0.283493 0.099882 1.457893
v 0.311154 0.099882 1.457893
v 0.311154 0.099882 -1.457893
v 0.167215 0.099882 1.457893
v 0.195291 0.099882 1.457893
v 0.195291 0.099882 -1.457893
v 0.062204 0.099882 1.457893
v 0.089758 0.099882 1.457893
v 0.089758 0.099882 -1.457893
v -0.043427 0.099882 1.457893
v -0.012014 0.099882 1.457893
v -0.012014 0.099882 -1.457893
v 0.283493 0.099882 -1.457893
v 0.167215 0.099882 -1.457893
v 0.062204 0.099882 -1.457893
v -0.043427 0.099882 -1.457893
vt 0.331250 0.002083
vt 0.002083 0.002083
vt 0.002083 0.331250
vt 0.331250 0.331250
vt 0.046138 0.335416
vt 0.002083 0.335416
vt 0.002083 0.664584
vt 0.046138 0.664584
vt 0.664584 0.002083
vt 0.335416 0.002083
vt 0.335416 0.331250
vt 0.664584 0.331250
vt 0.456375 0.335416
vt 0.335416 0.335416
vt 0.335416 0.664584
vt 0.456374 0.664584
vt 0.738917 0.849127
vt 0.705916 0.849127
vt 0.705916 0.963821
vt 0.738917 0.963821
vt 0.876959 0.002083
vt 0.876959 0.331250
vt 0.997917 0.331250
vt 0.997917 0.002083
vt 0.010607 0.677274
vt 0.002083 0.668750
vt 0.002083 0.997917
vt 0.010607 0.989393
vt 0.125301 0.677274
vt 0.123041 0.668750
vt 0.322726 0.989393
vt 0.331250 0.997917
vt 0.331250 0.668750
vt 0.322726 0.677274
vt 0.280953 0.989393
vt 0.287195 0.997917
vt 0.813025 0.335416
vt 0.813025 0.647536
vt 0.854798 0.647536
vt 0.854798 0.335416
vt 0.701750 0.922048
vt 0.668750 0.922048
vt 0.668750 0.963821
vt 0.701750 0.963821
vt 0.891964 0.335416
vt 0.858964 0.335416
vt 0.858964 0.647536
vt 0.891964 0.647536
vt 0.929131 0.335416
vt 0.896130 0.335416
vt 0.896130 0.647536
vt 0.929131 0.647536
vt 0.701750 0.911888
vt 0.668750 0.911888
vt 0.815747 0.963821
vt 0.847682 0.963821
vt 0.847682 0.651702
vt 0.815747 0.651702
vt 0.270793 0.989393
vt 0.276481 0.997917
vt 0.287196 0.668750
vt 0.280953 0.677274
vt 0.668750 0.002083
vt 0.668750 0.331250
vt 0.712804 0.331250
vt 0.712804 0.002083
vt 0.738917 0.651702
vt 0.705916 0.651702
vt 0.705916 0.693475
vt 0.738917 0.693475
vt 0.664584 0.335416
vt 0.620529 0.335416
vt 0.620529 0.664584
vt 0.664584 0.664584
vt 0.056853 0.335416
vt 0.056853 0.664584
vt 0.101894 0.335416
vt 0.091019 0.335416
vt 0.091019 0.664584
vt 0.101894 0.664584
vt 0.228085 0.989393
vt 0.231439 0.997917
vt 0.242315 0.997917
vt 0.238397 0.989393
vt 0.887950 0.963821
vt 0.919885 0.963821
vt 0.919885 0.651702
vt 0.887950 0.651702
vt 0.701750 0.869179
vt 0.668750 0.869179
vt 0.668750 0.879491
vt 0.701750 0.879491
vt 0.270793 0.677274
vt 0.276481 0.668750
vt 0.242315 0.668750
vt 0.238397 0.677274
vt 0.723519 0.002083
vt 0.723519 0.331250
vt 0.757685 0.331250
vt 0.757685 0.002083
vt 0.738917 0.703635
vt 0.705916 0.703635
vt 0.705916 0.736031
vt 0.738917 0.736031
vt 0.609814 0.335416
vt 0.575648 0.335416
vt 0.575648 0.664584
vt 0.609814 0.664584
vt 0.701750 0.830608
vt 0.668750 0.830608
vt 0.668750 0.840729
vt 0.701750 0.840729
vt 0.851848 0.963821
vt 0.883784 0.963821
vt 0.883784 0.651702
vt 0.851848 0.651702
vt 0.189514 0.989393
vt 0.190762 0.997917
vt 0.201435 0.997917
vt 0.199634 0.989393
vt 0.142571 0.335416
vt 0.131898 0.335416
vt 0.131898 0.664584
vt 0.142571 0.664584
vt 0.228085 0.677274
vt 0.231439 0.668750
vt 0.201435 0.668750
vt 0.199635 0.677274
vt 0.768561 0.002083
vt 0.768561 0.331250
vt 0.798565 0.331250
vt 0.798565 0.002083
vt 0.738917 0.746343
vt 0.705916 0.746343
vt 0.705916 0.774793
vt 0.738917 0.774793
vt 0.564773 0.335416
vt 0.534769 0.335416
vt 0.534769 0.664584
vt 0.564773 0.664584
vt 0.183489 0.335416
vt 0.171321 0.335416
vt 0.171321 0.664584
vt 0.183489 0.664584
vt 0.150716 0.989393
vt 0.149845 0.997917
vt 0.162013 0.997917
vt 0.162254 0.989393
vt 0.527515 0.700685
vt 0.527515 0.668750
vt 0.515978 0.668750
vt 0.515978 0.700685
vt 0.701750 0.791811
vt 0.668750 0.791811
vt 0.668750 0.803348
vt 0.701750 0.803348
vt 0.189514 0.677274
vt 0.190762 0.668750
vt 0.162013 0.668750
vt 0.162254 0.677274
vt 0.809238 0.002083
vt 0.809238 0.331250
vt 0.837987 0.331250
vt 0.837987 0.002083
vt 0.738917 0.784914
vt 0.705916 0.784914
vt 0.705916 0.812174
vt 0.738917 0.812174
vt 0.524095 0.335416
vt 0.495346 0.335416
vt 0.495346 0.664584
vt 0.524095 0.664584
vt 0.701750 0.651702
vt 0.668750 0.651702
vt 0.668750 0.766395
vt 0.701750 0.766395
vt 0.668750 0.335416
vt 0.668750 0.647536
vt 0.783443 0.647536
vt 0.783443 0.335416
vt 0.123041 0.997917
vt 0.125301 0.989393
vt 0.331250 0.335416
vt 0.210292 0.335416
vt 0.210292 0.664584
vt 0.331250 0.664584
vt 0.150716 0.677274
vt 0.149845 0.668750
vt 0.850155 0.002083
vt 0.850155 0.331250
vt 0.738917 0.823712
vt 0.705916 0.823712
vt 0.483178 0.335416
vt 0.483178 0.664584
vt 0.743083 0.651701
vt 0.743083 0.963821
vt 0.775479 0.963821
vt 0.775479 0.651701
vt 0.407619 0.668750
vt 0.407619 0.980869
vt 0.436069 0.980869
vt 0.436069 0.668750
vt 0.440235 0.668750
vt 0.440235 0.980869
vt 0.467496 0.980869
vt 0.467496 0.668750
vt 0.808859 0.647536
vt 0.808859 0.335416
vt 0.471662 0.668750
vt 0.471661 0.980869
vt 0.481821 0.980869
vt 0.481821 0.668750
vt 0.969398 0.335416
vt 0.969398 0.647536
vt 0.979711 0.647536
vt 0.979711 0.335416
vt 0.485987 0.668750
vt 0.485987 0.980869
vt 0.496108 0.980869
vt 0.496108 0.668750
vt 0.960153 0.651702
vt 0.960153 0.963821
vt 0.971690 0.963821
vt 0.971690 0.651702
vt 0.371518 0.980869
vt 0.403453 0.980869
vt 0.403453 0.668750
vt 0.371518 0.668750
vt 0.570797 0.700685
vt 0.570797 0.668750
vt 0.560638 0.668750
vt 0.560638 0.700685
vt 0.924051 0.963821
vt 0.955987 0.963821
vt 0.955987 0.651702
vt 0.924051 0.651702
vt 0.556472 0.700685
vt 0.556472 0.668750
vt 0.546160 0.668750
vt 0.546160 0.700685
vt 0.585123 0.700685
vt 0.585123 0.668750
vt 0.574963 0.668750
vt 0.574963 0.700685
vt 0.335416 0.980869
vt 0.367352 0.980869
vt 0.367352 0.668750
vt 0.335416 0.668750
vt 0.933297 0.647536
vt 0.965232 0.647536
vt 0.965232 0.335416
vt 0.933297 0.335416
vt 0.599410 0.700685
vt 0.599410 0.668750
vt 0.589289 0.668750
vt 0.589289 0.700685
vt 0.541993 0.700685
vt 0.541993 0.668750
vt 0.531681 0.668750
vt 0.531681 0.700685
vt 0.779645 0.963821
vt 0.811581 0.963821
vt 0.811581 0.651702
vt 0.779645 0.651702
vt 0.511812 0.700685
vt 0.511812 0.668750
vt 0.500274 0.668750
vt 0.500274 0.700685
vt 0.613696 0.700685
vt 0.613696 0.668750
vt 0.603576 0.668750
vt 0.603576 0.700685
vn -1.0000 0.0000 0.0000
vn 0.0000 0.0000 -1.0000
vn 1.0000 0.0000 0.0000
vn 0.0000 0.0000 1.0000
vn 0.0000 -1.0000 0.0000
vn 0.0000 1.0000 0.0000
usemtl None
s off
f 10/1/1 9/2/1 4/3/1 2/4/1
f 17/5/2 11/6/2 8/7/2 18/8/2
f 11/9/3 12/10/3 6/11/3 8/12/3
f 54/13/4 10/14/4 2/15/4 50/16/4
f 55/17/2 56/18/2 14/19/2 1/20/2
f 53/21/5 50/22/5 2/23/5 4/24/5
f 3/25/6 9/26/6 10/27/6 1/28/6
f 51/29/6 49/30/6 9/26/6 3/25/6
f 5/31/6 12/32/6 11/33/6 7/34/6
f 22/35/6 19/36/6 12/32/6 5/31/6
f 23/37/6 24/38/6 16/39/6 15/40/6
f 21/41/4 23/42/4 15/43/4 7/44/4
f 7/45/1 15/46/1 16/47/1 5/48/1
f 1/49/3 14/50/3 13/51/3 3/52/3
f 63/53/4 64/54/4 23/42/4 21/41/4
f 60/55/1 89/56/1 101/57/1 64/58/1
f 59/59/6 58/60/6 19/36/6 22/35/6
f 7/34/6 11/33/6 17/61/6 21/62/6
f 8/63/5 6/64/5 20/65/5 18/66/5
f 5/67/2 16/68/2 24/69/2 22/70/2
f 12/71/4 19/72/4 20/73/4 6/74/4
f 61/75/2 17/5/2 18/8/2 57/76/2
f 69/77/2 25/78/2 29/79/2 65/80/2
f 67/81/6 66/82/6 30/83/6 31/84/6
f 36/85/3 97/86/3 96/87/3 40/88/3
f 71/89/4 72/90/4 28/91/4 27/92/4
f 63/93/6 61/94/6 25/95/6 27/96/6
f 57/97/5 62/98/5 26/99/5 29/100/5
f 59/101/2 60/102/2 32/103/2 31/104/2
f 58/105/4 30/106/4 26/107/4 62/108/4
f 79/109/4 80/110/4 36/111/4 35/112/4
f 28/113/3 94/114/3 93/115/3 32/116/3
f 75/117/6 74/118/6 38/119/6 39/120/6
f 77/121/2 33/122/2 37/123/2 73/124/2
f 71/125/6 69/126/6 33/127/6 35/128/6
f 65/129/5 70/130/5 34/131/5 37/132/5
f 67/133/2 68/134/2 40/135/2 39/136/2
f 66/137/4 38/138/4 34/139/4 70/140/4
f 85/141/2 41/142/2 45/143/2 81/144/2
f 83/145/6 82/146/6 46/147/6 47/148/6
f 48/149/4 99/150/4 98/151/4 84/152/4
f 87/153/4 88/154/4 44/155/4 43/156/4
f 79/157/6 77/158/6 41/159/6 43/160/6
f 73/161/5 78/162/5 42/163/5 45/164/5
f 75/165/2 76/166/2 48/167/2 47/168/2
f 74/169/4 46/170/4 42/171/4 78/172/4
f 3/173/4 13/174/4 52/175/4 51/176/4
f 13/177/6 14/178/6 56/179/6 52/180/6
f 1/28/6 10/27/6 54/181/6 55/182/6
f 9/183/2 49/184/2 53/185/2 4/186/2
f 87/187/6 85/188/6 49/30/6 51/29/6
f 81/189/5 86/190/5 50/22/5 53/21/5
f 83/191/2 84/192/2 56/18/2 55/17/2
f 82/193/4 54/13/4 50/16/4 86/194/4
f 19/72/4 58/105/4 62/108/4 20/73/4
f 22/70/2 24/69/2 60/102/2 59/101/2
f 18/66/5 20/65/5 62/98/5 57/97/5
f 21/62/6 17/61/6 61/94/6 63/93/6
f 25/78/2 61/75/2 57/76/2 29/79/2
f 31/84/6 30/83/6 58/60/6 59/59/6
f 28/195/6 32/196/6 60/197/6 64/198/6
f 27/92/4 28/91/4 64/54/4 63/53/4
f 30/106/4 66/137/4 70/140/4 26/107/4
f 31/104/2 32/103/2 68/134/2 67/133/2
f 29/100/5 26/99/5 70/130/5 65/129/5
f 27/96/6 25/95/6 69/126/6 71/125/6
f 35/112/4 36/111/4 72/90/4 71/89/4
f 36/199/6 40/200/6 68/201/6 72/202/6
f 39/120/6 38/119/6 66/82/6 67/81/6
f 33/122/2 69/77/2 65/80/2 37/123/2
f 38/138/4 74/169/4 78/172/4 34/139/4
f 39/136/2 40/135/2 76/166/2 75/165/2
f 37/132/5 34/131/5 78/162/5 73/161/5
f 35/128/6 33/127/6 77/158/6 79/157/6
f 41/142/2 77/121/2 73/124/2 45/143/2
f 47/148/6 46/147/6 74/118/6 75/117/6
f 44/203/6 48/204/6 76/205/6 80/206/6
f 43/156/4 44/155/4 80/110/4 79/109/4
f 46/170/4 82/193/4 86/194/4 42/171/4
f 47/168/2 48/167/2 84/192/2 83/191/2
f 45/164/5 42/163/5 86/190/5 81/189/5
f 43/160/6 41/159/6 85/188/6 87/187/6
f 51/176/4 52/175/4 88/154/4 87/153/4
f 52/180/6 56/179/6 84/207/6 88/208/6
f 55/182/6 54/181/6 82/146/6 83/145/6
f 49/184/2 85/141/2 81/144/2 53/185/2
f 101/209/6 89/210/6 90/211/6 91/212/6
f 102/213/6 92/214/6 93/215/6 94/216/6
f 103/217/6 95/218/6 96/219/6 97/220/6
f 104/221/6 98/222/6 99/223/6 100/224/6
f 68/225/1 92/226/1 102/227/1 72/228/1
f 64/229/2 101/230/2 91/231/2 23/232/2
f 44/233/3 100/234/3 99/235/3 48/236/3
f 72/237/2 102/238/2 94/239/2 28/240/2
f 24/241/4 90/242/4 89/243/4 60/244/4
f 76/245/1 95/246/1 103/247/1 80/248/1
f 84/249/1 98/250/1 104/251/1 88/252/1
f 80/253/2 103/254/2 97/255/2 36/256/2
f 32/257/4 93/258/4 92/259/4 68/260/4
f 23/261/3 91/262/3 90/263/3 24/264/3
f 88/265/2 104/266/2 100/267/2 44/268/2
f 40/269/4 96/270/4 95/271/4 76/272/4
o Cylinder_Cylinder.001
v -0.102935 -0.090000 -1.902935
v 0.241744 -0.090000 -1.800000
v -0.102935 -0.090000 -1.697065
v -0.102935 -0.038533 -1.710856
v -0.102935 -0.000856 -1.748533
v -0.102935 0.012935 -1.800000
v -0.102935 -0.000856 -1.851467
v -0.102935 -0.038533 -1.889144
v 0.102935 -0.090000 -1.902935
v 0.102935 -0.090000 -1.697065
v 0.102935 -0.038533 -1.710856
v 0.102935 -0.000856 -1.748533
v 0.102935 0.012935 -1.800000
v 0.102935 -0.000856 -1.851467
v 0.102935 -0.038533 -1.889144
v 0.143864 -0.090000 -1.885204
v 0.143864 -0.090000 -1.714796
v 0.143864 -0.047398 -1.726211
v 0.143864 -0.016211 -1.757398
v 0.143864 -0.004796 -1.800000
v 0.143864 -0.016211 -1.842602
v 0.143864 -0.047398 -1.873789
v 0.191465 -0.090000 -1.855873
v 0.191465 -0.090000 -1.744127
v 0.191465 -0.062063 -1.751612
v 0.191465 -0.041612 -1.772063
v 0.191465 -0.034127 -1.800000
v 0.191465 -0.041612 -1.827937
v 0.191465 -0.062063 -1.848388
v 0.215668 -0.090000 -1.838033
v 0.215668 -0.090000 -1.761966
v 0.215668 -0.070983 -1.767062
v 0.215668 -0.057062 -1.780983
v 0.215668 -0.051966 -1.800000
v 0.215668 -0.057062 -1.819017
v 0.215668 -0.070983 -1.832938
vt 0.500000 0.500000
vt 0.500000 1.000000
vt 0.416667 1.000000
vt 0.416667 0.500000
vt 0.333333 1.000000
vt 0.333333 0.500000
vt 0.250000 1.000000
vt 0.250000 0.500000
vt 0.166667 1.000000
vt 0.166667 0.500000
vt 0.083333 1.000000
vt 0.083333 0.500000
vt 0.000000 1.000000
vt 0.000000 0.500000
vt 0.250000 0.051340
vt 0.150670 0.077956
vt 0.130000 0.042154
vt 0.250000 0.010000
vt 0.077956 0.150670
vt 0.042154 0.130000
vt 0.051340 0.250000
vt 0.010000 0.250000
vt 0.077956 0.349330
vt 0.042154 0.370000
vt 0.150670 0.422044
vt 0.130000 0.457846
vt 0.250000 0.448660
vt 0.250000 0.490000
vt 0.250000 0.119727
vt 0.184864 0.137181
vt 0.137181 0.184864
vt 0.119727 0.250000
vt 0.137181 0.315136
vt 0.184864 0.362819
vt 0.250000 0.380273
vt 0.250000 0.161322
vt 0.205661 0.173203
vt 0.173203 0.205661
vt 0.161322 0.250000
vt 0.173203 0.294339
vt 0.205661 0.326797
vt 0.250000 0.338678
vt 0.217142 0.193089
vt 0.193089 0.217142
vt 0.184284 0.250000
vt 0.193089 0.282858
vt 0.217142 0.306911
vt 0.250000 0.315716
vn -0.0000 0.2588 0.9659
vn -0.0000 0.7071 0.7071
vn 0.0000 0.9659 0.2588
vn 0.0000 0.9659 -0.2588
vn -0.0000 0.7071 -0.7071
vn -0.0000 0.2588 -0.9659
vn 0.3860 0.2388 0.8911
vn 0.3860 0.6523 0.6523
vn 0.3860 0.8911 0.2388
vn 0.3860 0.8911 -0.2388
vn 0.3860 0.6523 -0.6523
vn 0.3860 0.2388 -0.8911
vn 0.5115 0.2224 0.8300
vn 0.5115 0.6076 0.6076
vn 0.5115 0.8300 0.2224
vn 0.5115 0.8300 -0.2224
vn 0.5115 0.6076 -0.6076
vn 0.5115 0.2224 -0.8300
vn 0.5800 0.2108 0.7869
vn 0.5800 0.5760 0.5760
vn 0.5800 0.7869 0.2108
vn 0.5800 0.7869 -0.2108
vn 0.5800 0.5760 -0.5760
vn 0.5800 0.2108 -0.7869
vn 0.8155 0.1498 0.5591
vn 0.8155 0.4093 0.4093
vn 0.8155 0.5591 0.1498
vn 0.8155 0.5591 -0.1498
vn 0.8155 0.4093 -0.4093
vn 0.8155 0.1498 -0.5591
vn -0.0000 -1.0000 0.0000
vn -1.0000 0.0000 0.0000
usemtl None
s off
f 107/273/7 114/274/7 115/275/7 108/276/7
f 108/276/8 115/275/8 116/277/8 109/278/8
f 109/278/9 116/277/9 117/279/9 110/280/9
f 110/280/10 117/279/10 118/281/10 111/282/10
f 111/282/11 118/281/11 119/283/11 112/284/11
f 112/284/12 119/283/12 113/285/12 105/286/12
f 121/287/13 122/288/13 115/289/13 114/290/13
f 122/288/14 123/291/14 116/292/14 115/289/14
f 123/291/15 124/293/15 117/294/15 116/292/15
f 124/293/16 125/295/16 118/296/16 117/294/16
f 125/295/17 126/297/17 119/298/17 118/296/17
f 126/297/18 120/299/18 113/300/18 119/298/18
f 128/301/19 129/302/19 122/288/19 121/287/19
f 129/302/20 130/303/20 123/291/20 122/288/20
f 130/303/21 131/304/21 124/293/21 123/291/21
f 131/304/22 132/305/22 125/295/22 124/293/22
f 132/305/23 133/306/23 126/297/23 125/295/23
f 133/306/24 127/307/24 120/299/24 126/297/24
f 135/308/25 136/309/25 129/302/25 128/301/25
f 136/309/26 137/310/26 130/303/26 129/302/26
f 137/310/27 138/311/27 131/304/27 130/303/27
f 138/311/28 139/312/28 132/305/28 131/304/28
f 139/312/29 140/313/29 133/306/29 132/305/29
f 140/313/30 134/314/30 127/307/30 133/306/30
f 106/315/31 136/309/31 135/308/31
f 106/316/32 137/310/32 136/309/32
f 106/317/33 138/311/33 137/310/33
f 106/318/34 139/312/34 138/311/34
f 106/319/35 140/313/35 139/312/35
f 106/320/36 134/314/36 140/313/36
f 105/286/37 113/300/37 120/299/37 127/307/37 134/314/37 106/315/37 135/308/37 128/301/37 121/287/37 114/274/37 107/273/37
f 107/273/38 108/276/38 109/278/38 110/280/38 111/282/38 112/284/38 105/286/38
