# Blender v3.0.0 OBJ File: 'bankje.blend'
# www.blender.org
mtllib bankje.mtl
o Cube_Cube.001
v -1.000000 1.746379 3.353144
v 2.753401 1.746379 3.353144
v -1.000000 1.746379 3.353144
v -0.265309 4.085197 3.353144
v -0.265309 1.746379 3.353144
v -0.265309 1.746379 3.353144
v -0.265309 1.746379 3.353144
v -1.000000 1.746379 3.353144
v -0.265309 4.085380 3.353144
v 2.113400 4.085197 3.353144
v 2.113400 1.746379 3.353144
v -1.000000 1.019684 3.353144
v -0.800222 1.019684 4.194692
v 2.271853 1.019684 4.194692
v 2.594948 1.019684 4.194692
v 2.753401 1.019684 3.353144
v -0.265309 1.019684 3.353144
v -0.515421 1.019684 4.194692
v 2.113400 1.019684 3.353144
v -0.941093 4.085197 4.294237
v -1.000000 4.026290 4.353144
v 2.694494 4.085197 4.294237
v 2.753401 4.026290 4.353144
v -1.000000 4.026290 3.353144
v -0.941093 4.085197 3.353144
v 2.694494 4.085197 3.353144
v 2.753401 4.026290 3.353144
v -0.265309 4.026290 4.353144
v -0.265309 4.085197 4.294237
v -0.941093 4.085380 3.353144
v -1.000000 4.026473 3.353144
v 2.113400 4.026290 4.353144
v 2.113400 4.085197 4.294237
v -1.000000 1.019684 -3.353144
v 2.753401 1.019684 -3.353144
v -1.000000 1.746379 -4.353144
v 2.753401 1.746379 -4.353144
v 2.753401 1.746379 -3.353144
v -1.000000 1.746379 -3.353144
v 2.753401 1.746379 -3.353144
v -1.000000 1.746379 -3.353144
v -0.265309 4.085197 -3.353144
v -0.265309 1.746379 -3.353144
v -0.265309 1.746379 -4.353144
v -0.265309 1.019684 -3.353144
v -0.265309 1.746379 -3.353144
v -0.265309 1.746379 -3.353144
v -1.000000 1.746379 -3.353144
v -0.265309 4.085380 -3.353144
v 2.113400 4.085197 -3.353144
v 2.113400 1.746379 -3.353144
v 2.113400 1.746379 -4.353144
v 2.113400 1.019684 -3.353144
v 2.113400 1.746379 -3.353144
v -1.000000 1.019684 -3.353144
v -0.800222 1.019684 -4.194691
v 2.271853 1.019684 -4.194691
v 2.594948 1.019684 -4.194691
v 2.753401 1.019684 -3.353144
v -0.800222 1.019684 -3.914219
v -0.515421 1.019684 -4.194691
v 2.594948 1.019684 -3.914219
v -0.941093 4.085197 -4.294236
v -1.000000 4.026290 -4.353144
v 2.694494 4.085197 -4.294236
v 2.753401 4.026290 -4.353144
v -1.000000 4.026290 -3.353144
v -0.941093 4.085197 -3.353144
v 2.694494 4.085197 -3.353144
v 2.753401 4.026290 -3.353144
v -0.265309 4.026290 -4.353144
v -0.265309 4.085197 -4.294236
v -0.941093 4.085380 -3.353144
v -1.000000 4.026473 -3.353144
v 2.113400 4.026290 -4.353144
v 2.113400 4.085197 -4.294236
v -0.202403 1.788974 3.242019
v 0.433262 1.788974 0.012839
v -0.202403 2.788974 3.242019
v 0.433262 2.788974 3.242019
v 0.433262 2.342358 3.242019
v -0.202403 2.342358 3.242019
v 0.433262 1.788974 3.242019
v -0.159816 4.721304 3.242019
v -0.202403 4.678717 3.242019
v 0.433262 4.678717 3.242019
v 0.390675 4.721304 3.242019
v 2.814026 2.299771 3.242019
v 2.771439 2.342358 3.242019
v 2.771439 1.788974 3.242019
v 2.814026 1.831561 3.242019
v -0.202403 1.788974 -3.216342
v 0.433262 1.788974 -3.216342
v -0.202403 2.788974 -3.216342
v 0.433262 2.788974 -3.216342
v -0.202403 2.342358 -3.216342
v 0.433262 2.342358 -3.216342
v -0.159816 4.721304 -3.216342
v -0.202403 4.678717 -3.216342
v 0.433262 4.678717 -3.216342
v 0.390675 4.721304 -3.216342
v 2.814026 2.299771 -3.216342
v 2.771439 2.342358 -3.216342
v 2.771439 1.788974 -3.216342
v 2.814026 1.831561 -3.216342
v -1.000000 1.746379 -3.755766
v 2.753401 1.746379 -3.755766
v -0.515421 1.019684 -3.914219
v 2.694494 4.085197 -3.732049
v 2.753401 4.026290 -3.755766
v -0.941093 4.085197 -3.732049
v -1.000000 4.026290 -3.755766
v -0.265309 4.085197 -3.732049
v 2.113400 4.085197 -3.732049
v 2.271853 1.019684 -3.914219
v -0.800222 1.019684 3.927573
v 2.594948 1.019684 3.927573
v -0.515421 1.019684 3.927573
v 2.271853 1.019684 3.927573
v -1.000000 1.019684 3.769120
v -1.000000 1.019684 4.353144
v 2.113400 1.019684 4.353144
v 2.753401 1.019684 4.353144
v -0.265309 1.019684 4.353144
v -0.265309 1.019684 3.769120
v 2.113400 1.019684 3.769120
v -1.000000 1.019684 -3.755766
v -1.000000 1.019684 -4.353144
v 2.113400 1.019684 -4.353144
v 2.753401 1.019684 -4.353144
v -0.265309 1.019684 -4.353144
v -0.265309 1.019684 -3.755766
v 2.753401 1.019684 -3.755766
v 2.113400 1.019684 -3.755766
v 2.753401 1.019684 3.769120
v -0.800222 1.019684 3.927573
v -0.800222 1.019684 4.194692
v 2.271853 1.019684 4.194692
v 2.594948 1.019684 4.194692
v -0.515421 1.019684 4.194692
v -0.515421 1.019684 3.927573
v 2.271853 1.019684 3.927573
v -0.800222 1.019684 -3.914219
v -0.800222 1.019684 -4.194691
v 2.271853 1.019684 -4.194691
v 2.594948 1.019684 -4.194691
v -0.515421 1.019684 -4.194691
v -0.515421 1.019684 -3.914219
v 2.594948 1.019684 -3.914219
v 2.271853 1.019684 -3.914219
v 2.594948 1.019684 3.927573
v -0.800222 0.534679 3.927573
v -0.800222 0.534679 4.194692
v 2.271853 0.534679 4.194692
v 2.594948 0.534679 4.194692
v -0.515421 0.534679 4.194692
v -0.515421 0.534679 3.927573
v 2.271853 0.534679 3.927573
v -0.800222 0.534679 -3.914219
v -0.800222 0.534679 -4.194691
v 2.271853 0.534679 -4.194691
v 2.594948 0.534679 -4.194691
v -0.515421 0.534679 -4.194691
v -0.515421 0.534679 -3.914219
v 2.594948 0.534679 -3.914219
v 2.271853 0.534679 -3.914219
v 2.594948 0.534679 3.927573
vt 0.579664 0.002326
vt 0.579664 0.365383
vt 0.545017 0.365383
vt 0.545017 0.002326
vt 0.934526 0.901169
vt 0.934526 0.937754
vt 0.883578 0.937754
vt 0.883578 0.901169
vt 0.934526 0.740934
vt 0.934526 0.772393
vt 0.883578 0.772393
vt 0.883578 0.740934
vt 0.416937 0.365384
vt 0.540364 0.365384
vt 0.540364 0.419520
vt 0.377596 0.419520
vt 0.707785 0.892873
vt 0.545016 0.892873
vt 0.545016 0.764097
vt 0.707785 0.764097
vt 0.708440 0.002326
vt 0.708440 0.365383
vt 0.708440 0.365383
vt 0.545016 0.724323
vt 0.707785 0.724323
vt 0.377596 0.365384
vt 0.377596 0.002326
vt 0.416937 0.002326
vt 0.172450 0.478309
vt 0.175639 0.478309
vt 0.175639 0.841367
vt 0.172450 0.841367
vt 0.170876 0.056463
vt 0.170876 0.419520
vt 0.042100 0.419520
vt 0.042100 0.056463
vt 0.202435 0.487614
vt 0.202435 0.487614
vt 0.202435 0.487614
vt 0.202435 0.487614
vt 0.205523 0.056463
vt 0.205523 0.419520
vt 0.202435 0.487614
vt 0.202435 0.487614
vt 0.202435 0.487614
vt 0.707785 0.927521
vt 0.545016 0.927521
vt 0.967674 0.538585
vt 0.967674 0.570044
vt 0.964485 0.573233
vt 0.841058 0.573233
vt 0.841058 0.538585
vt 0.844227 0.210176
vt 0.884001 0.210176
vt 0.884001 0.336802
vt 0.847416 0.336802
vt 0.844227 0.333613
vt 0.202435 0.487614
vt 0.002326 0.419520
vt 0.002326 0.056463
vt 0.202435 0.487614
vt 0.202435 0.487614
vt 0.497896 0.787230
vt 0.371269 0.787230
vt 0.371269 0.424172
vt 0.497896 0.424172
vt 0.579429 0.544853
vt 0.579429 0.719671
vt 0.545017 0.719671
vt 0.545017 0.370036
vt 0.579429 0.370036
vt 0.712969 0.733093
vt 0.712969 0.370036
vt 0.836406 0.370036
vt 0.836406 0.733093
vt 0.964485 0.370036
vt 0.967674 0.373225
vt 0.967674 0.409809
vt 0.841058 0.409809
vt 0.841058 0.370036
vt 0.042100 0.442040
vt 0.170876 0.442040
vt 0.170876 0.473657
vt 0.042100 0.473657
vt 0.197783 0.535475
vt 0.180292 0.535475
vt 0.180292 0.509218
vt 0.197783 0.509218
vt 0.880389 0.737745
vt 0.934526 0.737745
vt 0.880389 0.940943
vt 0.880389 0.901169
vt 0.934526 0.940943
vt 0.880389 0.772393
vt 0.135865 0.841367
vt 0.135865 0.478309
vt 0.002326 0.442040
vt 0.836396 0.737745
vt 0.836396 0.772393
vt 0.712969 0.772393
vt 0.712969 0.737745
vt 0.959691 0.901169
vt 0.990126 0.901169
vt 0.990126 0.937754
vt 0.959691 0.937754
vt 0.959691 0.740934
vt 0.990126 0.740934
vt 0.990126 0.772393
vt 0.959691 0.772393
vt 0.836396 0.901169
vt 0.836396 0.940943
vt 0.712969 0.940943
vt 0.712969 0.901169
vt 0.034666 0.832597
vt 0.056463 0.832597
vt 0.056463 0.871938
vt 0.034666 0.871938
vt 0.875737 0.901169
vt 0.875737 0.940943
vt 0.082912 0.832597
vt 0.115252 0.832597
vt 0.115252 0.871938
vt 0.082912 0.871938
vt 0.202435 0.487614
vt 0.202435 0.487614
vt 0.202435 0.487614
vt 0.202435 0.487614
vt 0.202435 0.487614
vt 0.202435 0.487614
vt 0.202435 0.487614
vt 0.202435 0.487614
vt 0.202435 0.487614
vt 0.372944 0.002326
vt 0.372944 0.365384
vt 0.333603 0.365384
vt 0.333603 0.365384
vt 0.333603 0.002326
vt 0.202435 0.487614
vt 0.202435 0.487614
vt 0.202435 0.487614
vt 0.875737 0.772393
vt 0.970844 0.036974
vt 0.844228 0.036974
vt 0.844228 0.002326
vt 0.967655 0.002326
vt 0.970844 0.005515
vt 0.880832 0.577885
vt 0.880832 0.701322
vt 0.877643 0.704511
vt 0.841058 0.704511
vt 0.841058 0.577885
vt 0.967655 0.205523
vt 0.844228 0.205523
vt 0.844228 0.165750
vt 0.970844 0.165750
vt 0.970844 0.202334
vt 0.115252 0.995365
vt 0.082912 0.995365
vt 0.875737 0.737745
vt 0.170876 0.034666
vt 0.205523 0.034666
vt 0.205523 0.056463
vt 0.042100 0.034666
vt 0.042100 0.002326
vt 0.170876 0.002326
vt 0.960975 0.737745
vt 0.993315 0.737745
vt 0.993315 0.901169
vt 0.993315 0.940943
vt 0.960975 0.940943
vt 0.939178 0.940943
vt 0.939178 0.937754
vt 0.993315 0.772393
vt 0.056463 0.995365
vt 0.034666 0.995365
vt 0.002326 0.056463
vt 0.002326 0.034666
vt 0.150326 0.872276
vt 0.135865 0.872276
vt 0.135865 0.846019
vt 0.150326 0.846019
vt 0.004632 0.827945
vt 0.004632 0.478309
vt 0.131213 0.478309
vt 0.131213 0.827945
vt 0.815397 0.002326
vt 0.815397 0.351962
vt 0.713092 0.351962
vt 0.713092 0.002326
vt 0.502548 0.773808
vt 0.502548 0.424172
vt 0.504853 0.424172
vt 0.504853 0.773808
vt 0.997674 0.370036
vt 0.997674 0.719671
vt 0.972327 0.719671
vt 0.972327 0.370036
vt 0.425406 0.920769
vt 0.527711 0.920769
vt 0.530017 0.923075
vt 0.530017 0.952877
vt 0.527711 0.955182
vt 0.425406 0.955182
vt 0.312480 0.424172
vt 0.312480 0.773808
vt 0.210176 0.773808
vt 0.210176 0.424172
vt 0.401228 0.920769
vt 0.401228 0.955182
vt 0.706011 0.370036
vt 0.706011 0.719671
vt 0.377596 0.387903
vt 0.371270 0.920769
vt 0.371270 0.955182
vt 0.839576 0.002326
vt 0.839576 0.351962
vt 0.371270 0.794188
vt 0.373575 0.791882
vt 0.398922 0.791882
vt 0.401228 0.794188
vt 0.534655 0.424172
vt 0.536961 0.424172
vt 0.536961 0.773808
vt 0.534655 0.773808
vt 0.708317 0.370036
vt 0.708317 0.719671
vt 0.002326 0.827945
vt 0.002326 0.478309
vt 0.262007 0.812873
vt 0.262007 0.778460
vt 0.364312 0.778460
vt 0.366617 0.780766
vt 0.366617 0.810568
vt 0.364312 0.812873
vt 0.237829 0.812873
vt 0.237829 0.778460
vt 0.372944 0.419520
vt 0.210176 0.419520
vt 0.210176 0.365384
vt 0.372944 0.387903
vt 0.207870 0.812873
vt 0.207870 0.778460
vt 0.237828 0.939455
vt 0.235523 0.941760
vt 0.210176 0.941760
vt 0.207870 0.939455
vt 0.195710 0.690019
vt 0.180292 0.690019
vt 0.180292 0.663762
vt 0.195710 0.663762
vt 0.002326 0.871938
vt 0.002326 0.995365
vt 0.939178 0.740934
vt 0.939178 0.737745
vt 0.061115 0.871938
vt 0.061115 0.995365
vt 0.939178 0.772393
vt 0.939178 0.901169
vt 0.061115 0.832597
vt 0.002326 0.832597
vt 0.195710 0.720928
vt 0.180292 0.720928
vt 0.180292 0.694671
vt 0.195710 0.694671
vt 0.205523 0.442040
vt 0.013141 0.450618
vt 0.013141 0.465079
vt 0.002326 0.473657
vt 0.179454 0.465079
vt 0.196945 0.465079
vt 0.205523 0.473657
vt 0.028560 0.465079
vt 0.028560 0.450618
vt 0.179454 0.450618
vt 0.013142 0.010904
vt 0.013142 0.026088
vt 0.002326 0.002326
vt 0.196945 0.010904
vt 0.179454 0.010904
vt 0.205523 0.002326
vt 0.028560 0.010904
vt 0.028560 0.026088
vt 0.196945 0.026088
vt 0.179454 0.026088
vt 0.196945 0.450618
vt 0.202435 0.482962
vt 0.202435 0.482962
vt 0.202435 0.482962
vt 0.202435 0.482962
vt 0.202435 0.478309
vt 0.202435 0.478309
vt 0.202435 0.478309
vt 0.202435 0.478309
vt 0.202435 0.482962
vt 0.202435 0.482962
vt 0.202435 0.482962
vt 0.202435 0.482962
vt 0.202435 0.478309
vt 0.202435 0.478309
vt 0.202435 0.496918
vt 0.202435 0.496918
vt 0.202435 0.496918
vt 0.202435 0.496918
vt 0.202435 0.492266
vt 0.202435 0.492266
vt 0.202435 0.492266
vt 0.202435 0.492266
vt 0.202435 0.496918
vt 0.202435 0.496918
vt 0.202435 0.496918
vt 0.202435 0.496918
vt 0.202435 0.492266
vt 0.202435 0.492266
vt 0.202435 0.492266
vt 0.202435 0.492266
vt 0.202435 0.478309
vt 0.202435 0.478309
vt 0.844228 0.358945
vt 0.844228 0.341454
vt 0.858689 0.341454
vt 0.858689 0.358945
vt 0.856242 0.726655
vt 0.841058 0.726655
vt 0.841058 0.709164
vt 0.856242 0.709164
vt 0.860894 0.724582
vt 0.860894 0.709164
vt 0.876078 0.709164
vt 0.876078 0.724582
vt 0.863340 0.341454
vt 0.877801 0.341454
vt 0.877801 0.356872
vt 0.863340 0.356872
vt 0.195475 0.751836
vt 0.180291 0.751836
vt 0.180291 0.725580
vt 0.195475 0.725580
vt 0.197783 0.504566
vt 0.180292 0.504566
vt 0.180292 0.478309
vt 0.197783 0.478309
vt 0.195475 0.813654
vt 0.180291 0.813654
vt 0.180291 0.787397
vt 0.195475 0.787397
vt 0.195710 0.659110
vt 0.180292 0.659110
vt 0.180292 0.632853
vt 0.195710 0.632853
vt 0.195475 0.844563
vt 0.180291 0.844563
vt 0.180291 0.818306
vt 0.195475 0.818306
vt 0.194752 0.875472
vt 0.180291 0.875472
vt 0.180291 0.849215
vt 0.194752 0.849215
vt 0.195710 0.628201
vt 0.180292 0.628201
vt 0.180292 0.601945
vt 0.195710 0.601945
vt 0.899945 0.604142
vt 0.885484 0.604142
vt 0.885484 0.577885
vt 0.899945 0.577885
vt 0.197783 0.566384
vt 0.180292 0.566384
vt 0.180292 0.540127
vt 0.197783 0.540127
vt 0.195475 0.782745
vt 0.180291 0.782745
vt 0.180291 0.756489
vt 0.195475 0.756489
vt 0.169439 0.872276
vt 0.154978 0.872276
vt 0.154978 0.846019
vt 0.169439 0.846019
vt 0.197783 0.597292
vt 0.180292 0.597292
vt 0.180292 0.571036
vt 0.197783 0.571036
vt 0.336659 0.424172
vt 0.336659 0.773808
vt 0.366617 0.424172
vt 0.366617 0.773808
vn 0.0000 1.0000 0.0000
vn 1.0000 0.0000 0.0000
vn 0.0000 0.0000 1.0000
vn -0.7071 0.7071 0.0000
vn 0.0000 -1.0000 0.0000
vn 0.0000 0.0000 -1.0000
vn -1.0000 0.0000 0.0000
vn 0.7071 0.7071 0.0000
vn 0.0000 0.7071 0.7071
vn 0.0000 0.7071 -0.7071
vn 0.7071 -0.7071 0.0000
usemtl None
s off
f 54/1/1 11/2/1 2/3/1 38/4/1
f 4/5/1 25/6/1 20/7/1 29/8/1
f 26/9/1 10/10/1 33/11/1 22/12/1
f 2/13/2 27/14/2 23/15/2 123/16/2
f 122/17/3 32/18/3 28/19/3 124/20/3
f 47/21/1 7/22/1 5/23/1 11/2/1 54/1/1
f 124/20/3 28/19/3 21/24/3 121/25/3
f 16/26/2 35/27/2 38/28/2 2/13/2
f 73/29/4 74/30/4 31/31/4 30/32/4
f 53/33/5 19/34/5 17/35/5 45/36/5
f 7/37/3 8/38/3 3/39/3 5/40/3
f 35/41/5 16/42/5 19/34/5 53/33/5
f 39/43/3 48/44/3 8/38/3 1/45/3
f 123/46/3 23/47/3 32/18/3 122/17/3
f 10/48/6 26/49/6 27/50/6 2/51/6 11/52/6
f 1/53/3 6/54/3 9/55/3 30/56/3 31/57/3
f 10/10/1 4/5/1 29/8/1 33/11/1
f 6/58/3 1/45/3 8/38/3 7/37/3
f 45/36/5 17/35/5 12/59/5 34/60/5
f 7/37/3 47/61/3 46/62/3 6/58/3
f 46/63/2 49/64/2 9/65/2 6/66/2
f 78/67/5 83/68/5 77/69/5 92/70/5 93/71/5
f 31/72/7 74/73/7 39/74/7 1/75/7
f 24/76/6 25/77/6 4/78/6 5/79/6 3/80/6
f 4/78/6 10/48/6 11/52/6 5/79/6
f 125/81/5 126/82/5 122/83/5 124/84/5
f 119/85/6 117/86/6 167/87/6 158/88/6
f 26/9/8 22/12/8 23/89/8 27/90/8
f 29/8/9 20/7/9 21/91/9 28/92/9
f 20/7/4 25/6/4 24/93/4 21/91/4
f 33/11/9 29/8/9 28/92/9 32/94/9
f 73/29/1 30/32/1 9/95/1 49/96/1
f 22/12/9 33/11/9 32/94/9 23/89/9
f 120/97/5 12/59/5 17/35/5 125/81/5
f 37/98/6 52/99/6 75/100/6 66/101/6
f 113/102/1 72/103/1 63/104/1 111/105/1
f 109/106/1 65/107/1 76/108/1 114/109/1
f 44/110/6 36/111/6 64/112/6 71/113/6
f 52/99/6 44/110/6 71/113/6 75/100/6
f 127/114/7 55/115/7 41/116/7 106/117/7
f 131/118/6 128/119/6 36/111/6 44/110/6
f 133/120/2 130/121/2 37/122/2 107/123/2
f 53/124/3 59/125/3 35/126/3
f 35/126/3 59/125/3 40/127/3 38/128/3
f 48/44/3 41/129/3 55/130/3 34/131/3
f 47/61/3 43/132/3 41/129/3 48/44/3
f 34/133/7 12/134/7 3/135/7 8/136/7 48/137/7
f 54/138/3 51/139/3 43/132/3 47/61/3
f 34/131/3 55/130/3 45/140/3
f 129/141/6 131/118/6 44/110/6 52/99/6
f 50/142/3 51/143/3 40/144/3 70/145/3 69/146/3
f 39/147/6 74/148/6 73/149/6 49/150/6 46/151/6
f 114/109/1 76/108/1 72/103/1 113/102/1
f 46/62/3 47/61/3 48/44/3 39/43/3
f 67/152/3 41/153/3 43/154/3 42/155/3 68/156/3
f 107/123/2 37/122/2 66/157/2 110/158/2
f 130/159/6 129/141/6 52/99/6 37/98/6
f 38/128/3 40/127/3 51/139/3 54/138/3
f 53/33/5 134/160/5 133/161/5 59/162/5 35/41/5
f 42/155/3 43/154/3 51/143/3 50/142/3
f 132/163/5 131/164/5 129/165/5 134/160/5
f 109/106/8 110/166/8 66/167/8 65/107/8
f 72/103/10 71/168/10 64/169/10 63/104/10
f 111/105/4 112/170/4 67/171/4 68/172/4
f 76/108/10 75/173/10 71/168/10 72/103/10
f 65/107/10 66/167/10 75/173/10 76/108/10
f 106/117/7 41/116/7 67/174/7 112/175/7
f 45/36/5 55/176/5 127/177/5 132/163/5
f 13/178/7 116/179/7 152/180/7 153/181/7
f 89/182/1 103/183/1 97/184/1 81/185/1
f 80/186/2 95/187/2 100/188/2 86/189/2
f 86/190/8 100/191/8 101/192/8 87/193/8
f 91/194/2 105/195/2 102/196/2 88/197/2
f 80/198/3 86/199/3 87/200/3 84/201/3 85/202/3 79/203/3
f 94/204/7 79/205/7 85/206/7 99/207/7
f 81/208/3 80/198/3 79/203/3 82/209/3
f 93/71/5 104/210/5 90/211/5 83/68/5 78/67/5
f 135/212/2 16/26/2 2/13/2
f 83/213/3 81/208/3 82/209/3 77/214/3
f 81/215/2 97/216/2 95/187/2 80/186/2
f 81/208/3 83/213/3 90/217/3 91/218/3 88/219/3 89/220/3
f 98/221/4 99/222/4 85/223/4 84/224/4
f 104/210/11 105/225/11 91/226/11 90/211/11
f 88/227/8 102/228/8 103/183/8 89/182/8
f 87/193/1 101/192/1 98/221/1 84/224/1
f 95/229/6 94/230/6 99/231/6 98/232/6 101/233/6 100/234/6
f 97/235/6 96/236/6 94/230/6 95/229/6
f 121/237/7 21/238/7 24/239/7 3/135/7 120/240/7
f 123/16/2 135/212/2 2/13/2
f 93/241/6 92/242/6 96/236/6 97/235/6
f 97/235/6 103/243/6 102/244/6 105/245/6 104/246/6 93/241/6
f 120/240/7 3/135/7 12/134/7
f 56/247/6 61/248/6 163/249/6 160/250/6
f 36/251/7 106/117/7 112/175/7 64/252/7
f 63/104/4 64/169/4 112/170/4 111/105/4
f 69/253/8 70/254/8 110/166/8 109/106/8
f 45/36/5 132/163/5 134/160/5 53/33/5
f 40/255/2 107/123/2 110/158/2 70/256/2
f 50/257/1 114/109/1 113/102/1 42/258/1
f 59/259/2 133/120/2 107/123/2 40/255/2
f 128/260/7 127/114/7 106/117/7 36/251/7
f 69/253/1 109/106/1 114/109/1 50/257/1
f 42/258/1 113/102/1 111/105/1 68/172/1
f 116/261/6 118/262/6 157/263/6 152/264/6
f 19/34/5 16/42/5 135/265/5 126/82/5
f 17/35/5 19/34/5 126/82/5 125/81/5
f 136/266/5 137/267/5 121/268/5 120/97/5
f 138/269/5 139/270/5 123/271/5 122/83/5
f 137/267/5 140/272/5 124/84/5 121/268/5
f 140/272/5 141/273/5 125/81/5 124/84/5
f 142/274/5 138/269/5 122/83/5 126/82/5
f 144/275/5 143/276/5 127/177/5 128/277/5
f 146/278/5 145/279/5 129/165/5 130/280/5
f 147/281/5 144/275/5 128/277/5 131/164/5
f 148/282/5 147/281/5 131/164/5 132/163/5
f 149/283/5 146/278/5 130/280/5 133/161/5
f 145/279/5 150/284/5 134/160/5 129/165/5
f 143/276/5 148/282/5 132/163/5 127/177/5
f 150/284/5 149/283/5 133/161/5 134/160/5
f 139/270/5 151/285/5 135/265/5 123/271/5
f 141/273/5 136/266/5 120/97/5 125/81/5
f 151/285/5 142/274/5 126/82/5 135/265/5
f 116/286/3 13/287/3 137/288/3 136/289/3
f 14/290/3 15/291/3 139/292/3 138/293/3
f 13/287/3 18/294/3 140/295/3 137/288/3
f 18/294/3 118/296/3 141/297/3 140/295/3
f 119/298/3 14/290/3 138/293/3 142/299/3
f 56/300/3 60/301/3 143/302/3 144/303/3
f 58/304/3 57/305/3 145/306/3 146/307/3
f 61/308/3 56/300/3 144/303/3 147/309/3
f 108/310/3 61/308/3 147/309/3 148/311/3
f 62/312/3 58/304/3 146/307/3 149/313/3
f 57/305/3 115/314/3 150/315/3 145/306/3
f 60/301/3 108/310/3 148/311/3 143/302/3
f 115/314/3 62/312/3 149/313/3 150/315/3
f 15/291/3 117/316/3 151/317/3 139/292/3
f 118/296/3 116/286/3 136/289/3 141/297/3
f 117/316/3 119/298/3 142/299/3 151/317/3
f 158/318/5 167/319/5 155/320/5 154/321/5
f 166/322/5 161/323/5 162/324/5 165/325/5
f 164/326/5 159/327/5 160/328/5 163/329/5
f 153/330/5 152/331/5 157/332/5 156/333/5
f 61/334/2 108/335/2 164/336/2 163/337/2
f 15/338/3 14/339/3 154/340/3 155/341/3
f 58/342/2 62/343/2 165/344/2 162/345/2
f 18/346/3 13/347/3 153/348/3 156/349/3
f 115/350/7 57/351/7 161/352/7 166/353/7
f 118/354/2 18/355/2 156/356/2 157/357/2
f 108/358/3 60/359/3 159/360/3 164/361/3
f 14/362/7 119/363/7 158/364/7 154/365/7
f 62/366/3 115/367/3 166/368/3 165/369/3
f 60/370/7 56/371/7 160/372/7 159/373/7
f 117/374/2 15/375/2 155/376/2 167/377/2
f 57/378/6 58/379/6 162/380/6 161/381/6
f 96/382/7 82/383/7 79/205/7 94/204/7
f 92/384/7 77/385/7 82/383/7 96/382/7
