# Blender v3.0.0 OBJ File: 'bed.blend'
# www.blender.org
mtllib bed.mtl
o Cube
v -4.026042 0.706699 2.893843
v -4.026042 1.772830 2.990822
v -4.026042 0.706699 -2.893843
v -4.026042 1.772830 -2.990822
v 4.020510 0.706699 2.893843
v 4.020510 1.772830 2.990822
v 4.020510 0.706699 -2.893843
v 4.020510 1.772830 -2.990822
v 3.827457 0.706699 -2.893843
v 3.739877 1.772830 -2.903241
v 3.827457 0.706699 2.893843
v 3.739877 1.772830 2.903241
v -3.827457 0.706699 -2.893843
v -3.739877 1.772830 2.903241
v -3.739877 1.772830 -2.903241
v -3.827457 0.706699 2.893843
v -4.026042 0.096978 -2.893843
v -4.026042 0.096978 2.893843
v -3.827457 0.096978 -2.893843
v 4.020510 0.096978 2.893843
v 4.020510 0.096978 -2.893843
v 3.827457 0.096978 2.893843
v 3.827457 0.096978 -2.893843
v -3.827457 0.096978 2.893843
v -4.026042 0.803677 -2.990822
v -4.026042 0.803677 2.990822
v 4.020510 0.803677 2.990822
v 4.020510 0.803677 -2.990822
v 3.827457 0.803677 -2.990822
v 3.827457 0.803677 2.990822
v -3.827457 0.803677 -2.990822
v -3.827457 0.803677 2.990822
v -4.026042 0.000000 -2.990822
v -4.026042 0.000000 2.990822
v 4.020510 0.000000 2.990822
v 4.020510 0.000000 -2.990822
v 3.827457 0.000000 -2.990822
v 3.827457 0.000000 2.990822
v -3.827457 0.000000 -2.990822
v -3.827457 0.000000 2.990822
v -4.026042 4.002528 2.990822
v -4.026042 4.002528 -2.990822
v -3.827457 4.002528 2.990822
v -3.827457 4.002528 -2.990822
v -3.827457 1.772830 -2.990822
v 3.827457 1.772830 -2.990822
v 3.827457 1.772830 2.990822
v -3.827457 1.772830 2.990822
v -3.739877 1.178468 -2.903241
v 3.739877 1.178468 -2.903241
v 3.739877 1.178468 2.903241
v -3.739877 1.178468 2.903241
v -3.708616 1.547585 2.885618
v -3.708616 2.330354 2.885618
v -3.708616 1.547585 -2.884068
v -3.708616 2.330354 -2.884068
v 3.715826 1.547585 2.885618
v 3.715826 2.330354 2.885618
v 3.715826 1.547585 -2.884068
v 3.715826 2.330354 -2.884068
v -3.708616 2.172783 2.885618
v -3.708616 2.172783 -2.884068
v 3.715826 2.172783 -2.884068
v 3.715826 2.172783 2.885618
v -3.445494 2.377908 2.313452
v -3.445494 2.899818 2.313452
v -3.445494 2.377908 0.313452
v -3.445494 2.899818 0.313452
v -2.130359 2.377908 2.313452
v -2.130359 2.899818 2.313452
v -2.130359 2.377908 0.313452
v -2.130359 2.899818 0.313452
v -3.445494 2.377908 -0.289327
v -3.445494 2.899818 -0.289327
v -3.445494 2.377908 -2.289327
v -3.445494 2.899818 -2.289327
v -2.130359 2.377908 -0.289327
v -2.130359 2.899818 -0.289327
v -2.130359 2.377908 -2.289327
v -2.130359 2.899818 -2.289327
vt 0.657924 0.257470
vt 0.616556 0.257470
vt 0.616556 0.002147
vt 0.657924 0.002147
vt 0.548211 0.989612
vt 0.589578 0.989612
vt 0.589578 0.997853
vt 0.548211 0.997853
vt 0.837359 0.257470
vt 0.795992 0.257470
vt 0.795992 0.002147
vt 0.837359 0.002147
vt 0.901018 0.341664
vt 0.859650 0.341664
vt 0.859650 0.333188
vt 0.901018 0.333188
vt 0.935322 0.333188
vt 0.935322 0.341664
vt 0.791697 0.002147
vt 0.791697 0.257470
vt 0.696524 0.257470
vt 0.696524 0.002147
vt 0.257470 0.002148
vt 0.257470 0.010388
vt 0.002147 0.010388
vt 0.002147 0.002148
vt 0.517088 0.002147
vt 0.517088 0.328893
vt 0.261765 0.328893
vt 0.261765 0.002147
vt 0.901018 0.676650
vt 0.859650 0.676650
vt 0.859650 0.668410
vt 0.901018 0.668410
vt 0.548211 0.662867
vt 0.589578 0.662867
vt 0.548211 0.654391
vt 0.589578 0.654391
vt 0.255065 0.909675
vt 0.246825 0.909675
vt 0.246825 0.662631
vt 0.255065 0.662631
vt 0.939617 0.652457
vt 0.939617 0.333188
vt 0.964987 0.333188
vt 0.964987 0.652457
vt 0.196211 0.662631
vt 0.204452 0.662631
vt 0.204452 0.917953
vt 0.196211 0.917953
vt 0.495540 0.656751
vt 0.504016 0.656751
vt 0.504016 0.912074
vt 0.495540 0.912074
vt 0.513906 0.997853
vt 0.513906 0.989612
vt 0.935322 0.668410
vt 0.935322 0.676650
vt 0.648685 0.287791
vt 0.640444 0.287791
vt 0.640444 0.261765
vt 0.648685 0.261765
vt 0.513906 0.662867
vt 0.513906 0.654391
vt 0.234290 0.909675
vt 0.234290 0.662631
vt 0.242530 0.662631
vt 0.242530 0.909675
vt 0.648685 0.318111
vt 0.640444 0.318111
vt 0.640444 0.292086
vt 0.648685 0.292086
vt 0.662064 0.006287
vt 0.662064 0.253331
vt 0.841499 0.006287
vt 0.841499 0.253331
vt 0.693186 0.658530
vt 0.693186 0.905574
vt 0.689047 0.909713
vt 0.689047 0.654390
vt 0.265905 0.660891
vt 0.265905 0.907934
vt 0.261765 0.912074
vt 0.261765 0.656751
vt 0.688089 0.253331
vt 0.688089 0.006287
vt 0.692229 0.002147
vt 0.692229 0.257470
vt 0.867524 0.253331
vt 0.867524 0.006287
vt 0.871664 0.002147
vt 0.871664 0.257470
vt 0.719212 0.905574
vt 0.719212 0.658530
vt 0.723351 0.654390
vt 0.723351 0.909713
vt 0.291930 0.907934
vt 0.291930 0.660891
vt 0.296070 0.656751
vt 0.296070 0.912074
vt 0.217223 0.909675
vt 0.208746 0.909675
vt 0.208746 0.662631
vt 0.217223 0.662631
vt 0.636149 0.318111
vt 0.627673 0.318111
vt 0.627673 0.292086
vt 0.636149 0.292086
vt 0.221518 0.909675
vt 0.221518 0.662631
vt 0.229994 0.662631
vt 0.229994 0.909675
vt 0.627672 0.261765
vt 0.636149 0.261765
vt 0.636149 0.287791
vt 0.627672 0.287791
vt 0.183440 0.662631
vt 0.191916 0.662631
vt 0.191916 0.917953
vt 0.183440 0.917953
vt 0.521383 0.257470
vt 0.521383 0.002147
vt 0.764477 0.341664
vt 0.764477 0.333188
vt 0.684752 0.654391
vt 0.684752 0.662867
vt 0.253732 0.333395
vt 0.253732 0.014126
vt 0.257470 0.337133
vt 0.005886 0.014126
vt 0.005886 0.333395
vt 0.002147 0.337133
vt 0.509611 0.333188
vt 0.509611 0.652457
vt 0.261765 0.652457
vt 0.261765 0.333188
vt 0.727646 0.973659
vt 0.727646 0.654391
vt 0.753016 0.654391
vt 0.753016 0.973659
vt 0.405444 0.904597
vt 0.405444 0.656751
vt 0.430814 0.656751
vt 0.430814 0.904597
vt 0.375779 0.904597
vt 0.375779 0.656751
vt 0.401149 0.656751
vt 0.401149 0.904597
vt 0.307091 0.903027
vt 0.300364 0.903027
vt 0.300364 0.656751
vt 0.307091 0.656751
vt 0.920392 0.319055
vt 0.913666 0.319055
vt 0.913666 0.002147
vt 0.920392 0.002147
vt 0.344798 0.903027
vt 0.338072 0.903027
vt 0.338072 0.656751
vt 0.344798 0.656751
vt 0.882685 0.319055
vt 0.875959 0.319055
vt 0.875959 0.002147
vt 0.882685 0.002147
vt 0.248423 0.341428
vt 0.248423 0.658336
vt 0.002147 0.658336
vt 0.002147 0.341428
vt 0.760182 0.333188
vt 0.760182 0.650095
vt 0.513906 0.650095
vt 0.513906 0.333188
vt 0.909371 0.319055
vt 0.909371 0.002147
vt 0.371484 0.903027
vt 0.371484 0.656751
vt 0.947078 0.319055
vt 0.947078 0.002147
vt 0.333776 0.903027
vt 0.333776 0.656751
vt 0.786754 0.766314
vt 0.764477 0.766314
vt 0.764477 0.680945
vt 0.786754 0.680945
vt 0.543660 0.317901
vt 0.521383 0.317901
vt 0.521383 0.261765
vt 0.543660 0.261765
vt 0.457386 0.831784
vt 0.435109 0.831784
vt 0.435109 0.746415
vt 0.457386 0.746415
vt 0.570233 0.317901
vt 0.547955 0.317901
vt 0.547955 0.261765
vt 0.570233 0.261765
vt 0.002147 0.662631
vt 0.058283 0.662631
vt 0.058283 0.747999
vt 0.002147 0.747999
vt 0.435109 0.656751
vt 0.491244 0.656751
vt 0.491244 0.742120
vt 0.435109 0.742120
vt 0.483958 0.831784
vt 0.461681 0.831784
vt 0.461681 0.746415
vt 0.483958 0.746415
vt 0.596805 0.317901
vt 0.574528 0.317901
vt 0.574528 0.261765
vt 0.596805 0.261765
vt 0.813327 0.766314
vt 0.791049 0.766314
vt 0.791049 0.680945
vt 0.813327 0.680945
vt 0.623378 0.317901
vt 0.601100 0.317901
vt 0.601100 0.261765
vt 0.623378 0.261765
vt 0.062578 0.662631
vt 0.118714 0.662631
vt 0.118714 0.747999
vt 0.062578 0.747999
vt 0.123009 0.662631
vt 0.179145 0.662631
vt 0.179145 0.747999
vt 0.123009 0.747999
vn -1.0000 0.0000 0.0000
vn 0.0000 0.0000 -1.0000
vn 1.0000 0.0000 0.0000
vn 0.0000 0.0000 1.0000
vn 0.0000 1.0000 0.0000
vn 0.0000 -1.0000 0.0000
usemtl None
s off
f 26/1/1 2/2/1 4/3/1 25/4/1
f 29/5/2 46/6/2 8/7/2 28/8/2
f 28/9/3 8/10/3 6/11/3 27/12/3
f 32/13/4 48/14/4 2/15/4 26/16/4
f 32/13/4 26/16/4 34/17/4 40/18/4
f 48/19/3 45/20/3 44/21/3 43/22/3
f 8/23/5 46/24/5 47/25/5 6/26/5
f 31/27/6 29/28/6 30/29/6 32/30/6
f 27/31/4 6/32/4 47/33/4 30/34/4
f 31/35/2 45/36/2 46/6/2 29/5/2
f 25/37/2 4/38/2 45/36/2 31/35/2
f 5/39/6 11/40/6 9/41/6 7/42/6
f 14/43/2 12/44/2 51/45/2 52/46/2
f 30/34/4 47/33/4 48/14/4 32/13/4
f 37/47/6 36/48/6 35/49/6 38/50/6
f 33/51/6 39/52/6 40/53/6 34/54/6
f 29/5/2 28/8/2 36/55/2 37/56/2
f 27/31/4 30/34/4 38/57/4 35/58/4
f 7/59/4 9/60/4 23/61/4 21/62/4
f 25/37/2 31/35/2 39/63/2 33/64/2
f 20/65/5 21/66/5 23/67/5 22/68/5
f 11/69/2 5/70/2 20/71/2 22/72/2
f 3/73/1 1/74/1 26/1/1 25/4/1
f 5/75/3 7/76/3 28/9/3 27/12/3
f 9/77/1 11/78/1 30/79/1 29/80/1
f 16/81/3 13/82/3 31/83/3 32/84/3
f 18/85/1 17/86/1 33/87/1 34/88/1
f 21/89/3 20/90/3 35/91/3 36/92/3
f 22/93/1 23/94/1 37/95/1 38/96/1
f 19/97/3 24/98/3 40/99/3 39/100/3
f 24/98/3 16/81/3 32/84/3 40/99/3
f 13/82/3 19/97/3 39/100/3 31/83/3
f 1/74/1 18/85/1 34/88/1 26/1/1
f 7/76/3 21/89/3 36/92/3 28/9/3
f 23/94/1 9/77/1 29/80/1 37/95/1
f 11/78/1 22/93/1 38/96/1 30/79/1
f 20/90/3 5/75/3 27/12/3 35/91/3
f 17/86/1 3/73/1 25/4/1 33/87/1
f 18/101/5 24/102/5 19/103/5 17/104/5
f 13/105/4 3/106/4 17/107/4 19/108/4
f 1/109/6 3/110/6 13/111/6 16/112/6
f 24/113/2 18/114/2 1/115/2 16/116/2
f 44/117/5 42/118/5 41/119/5 43/120/5
f 4/3/1 2/2/1 41/121/1 42/122/1
f 2/15/4 48/14/4 43/123/4 41/124/4
f 45/36/2 4/38/2 42/125/2 44/126/2
f 15/127/5 10/128/5 46/24/5 45/129/5
f 10/128/5 12/130/5 47/25/5 46/24/5
f 12/130/5 14/131/5 48/132/5 47/25/5
f 14/131/5 15/127/5 45/129/5 48/132/5
f 50/133/5 49/134/5 52/135/5 51/136/5
f 10/137/4 15/138/4 49/139/4 50/140/4
f 15/141/3 14/142/3 52/143/3 49/144/3
f 12/145/1 10/146/1 50/147/1 51/148/1
f 61/149/1 54/150/1 56/151/1 62/152/1
f 62/153/2 56/154/2 60/155/2 63/156/2
f 63/157/3 60/158/3 58/159/3 64/160/3
f 64/161/4 58/162/4 54/163/4 61/164/4
f 55/165/6 59/166/6 57/167/6 53/168/6
f 60/169/5 56/170/5 54/171/5 58/172/5
f 57/173/4 64/161/4 61/164/4 53/174/4
f 59/175/3 63/157/3 64/160/3 57/176/3
f 55/177/2 62/153/2 63/156/2 59/178/2
f 53/179/1 61/149/1 62/152/1 55/180/1
f 65/181/1 66/182/1 68/183/1 67/184/1
f 67/185/2 68/186/2 72/187/2 71/188/2
f 71/189/3 72/190/3 70/191/3 69/192/3
f 69/193/4 70/194/4 66/195/4 65/196/4
f 67/197/6 71/198/6 69/199/6 65/200/6
f 72/201/5 68/202/5 66/203/5 70/204/5
f 73/205/1 74/206/1 76/207/1 75/208/1
f 75/209/2 76/210/2 80/211/2 79/212/2
f 79/213/3 80/214/3 78/215/3 77/216/3
f 77/217/4 78/218/4 74/219/4 73/220/4
f 75/221/6 79/222/6 77/223/6 73/224/6
f 80/225/5 76/226/5 74/227/5 78/228/5
