# Blender v3.0.0 OBJ File: 'grafbed.blend'
# www.blender.org
mtllib grafbed.mtl
o Cube
v -1.000000 0.000000 1.000000
v -1.000000 0.000000 -1.000000
v 3.431948 0.000000 1.000000
v 3.431948 0.000000 -1.000000
v -0.927874 0.243559 0.927874
v -1.000000 0.171433 1.000000
v -0.927874 0.243559 -0.927874
v -1.000000 0.171433 -1.000000
v 3.359822 0.243559 0.927874
v 3.431948 0.171433 1.000000
v 3.359822 0.243559 -0.927874
v 3.431948 0.171433 -1.000000
vt 0.864550 0.016795
vt 0.864550 0.957359
vt 0.457467 0.957359
vt 0.457467 0.016795
vt 0.999027 0.880372
vt 0.961421 0.880372
vt 0.961421 0.441645
vt 0.999027 0.441645
vt 0.999027 0.439700
vt 0.961421 0.439700
vt 0.961421 0.000973
vt 0.999027 0.000973
vt 0.439700 0.000973
vt 0.439700 0.973180
vt 0.000973 0.973180
vt 0.000973 0.000973
vt 0.919924 0.973181
vt 0.882318 0.973181
vt 0.882318 0.000973
vt 0.919924 0.000973
vt 0.880372 0.973181
vt 0.441645 0.973181
vt 0.880372 0.000973
vt 0.441645 0.000973
vt 0.959476 0.973180
vt 0.921869 0.973180
vt 0.921870 0.000973
vt 0.959476 0.000973
vn 0.0000 1.0000 0.0000
vn 1.0000 0.0000 0.0000
vn -1.0000 0.0000 0.0000
vn 0.0000 -1.0000 0.0000
vn 0.0000 0.0000 -1.0000
vn -0.7071 0.7071 0.0000
vn 0.0000 0.7071 -0.7071
vn 0.7071 0.7071 0.0000
vn 0.0000 0.7071 0.7071
vn 0.0000 0.0000 1.0000
usemtl None
s off
f 11/1/1 7/2/1 5/3/1 9/4/1
f 4/5/2 12/6/2 10/7/2 3/8/2
f 1/9/3 6/10/3 8/11/3 2/12/3
f 2/13/4 4/14/4 3/15/4 1/16/4
f 2/17/5 8/18/5 12/19/5 4/20/5
f 5/3/6 7/2/6 8/21/6 6/22/6
f 7/2/7 11/1/7 12/23/7 8/21/7
f 11/1/8 9/4/8 10/24/8 12/23/8
f 9/4/9 5/3/9 6/22/9 10/24/9
f 3/25/10 10/26/10 6/27/10 1/28/10
