# Blender v3.0.0 OBJ File: 'keukenwaskastje.blend'
# www.blender.org
mtllib keukenwaskastje.mtl
o Cube
v -1.000000 0.000000 1.519733
v -0.630409 2.510788 1.150142
v -1.000000 0.000000 -1.519733
v -0.630409 2.510788 -1.150142
v 1.000000 0.000000 1.519733
v 0.630409 2.510788 1.150142
v 1.000000 0.000000 -1.519733
v 0.630409 2.510788 -1.150142
v -1.000000 0.000000 0.000000
v -0.630409 2.510788 0.000000
v 1.000000 0.000000 0.000000
v 0.630409 2.510788 0.000000
v -1.000000 2.349482 1.519733
v -1.000000 2.349482 -1.519733
v 1.000000 2.349482 -1.519733
v 1.000000 2.349482 1.519733
v 1.000000 2.349482 0.000000
v -1.000000 2.349482 0.000000
v 1.006567 1.700423 0.262146
v 1.006567 2.185528 0.262146
v 1.006567 1.700423 0.043855
v 1.006567 2.185528 0.043855
v 1.096723 1.700423 0.262146
v 1.096723 2.185528 0.262146
v 1.096723 1.700423 0.043855
v 1.096723 2.185528 0.043855
v 1.006567 1.700423 -0.043376
v 1.006567 2.185528 -0.043376
v 1.006567 1.700423 -0.261667
v 1.006567 2.185528 -0.261667
v 1.096723 1.700423 -0.043376
v 1.096723 2.185528 -0.043376
v 1.096723 1.700423 -0.261667
v 1.096723 2.185528 -0.261667
v -1.000000 2.510788 0.000000
v -1.000000 2.510788 -1.519733
v 1.000000 2.510788 0.000000
v 1.000000 2.510788 1.519733
v 1.000000 2.510788 -1.519733
v -1.000000 2.510788 1.519733
v -0.630409 2.147316 0.000000
v -0.630409 2.147316 -1.150142
v 0.630409 2.147316 0.000000
v 0.630409 2.147316 1.150142
v 0.630409 2.147316 -1.150142
v -0.630409 2.147316 1.150142
v -0.863384 2.512436 0.109370
v -0.813623 2.879574 0.059610
v -0.817176 2.656874 -0.116298
v -0.813623 2.879574 -0.066538
v -0.678706 2.512436 0.109370
v -0.728467 2.879574 0.059610
v -0.724915 2.656874 -0.116298
v -0.728467 2.879574 -0.066538
v -0.863384 2.879574 0.109370
v -0.817176 2.762670 -0.116298
v -0.724915 2.762670 -0.116298
v -0.678706 2.879574 0.109370
v -0.728467 3.521044 -0.066538
v -0.728467 3.521044 0.059610
v -0.728467 3.478976 -0.066538
v -0.728467 3.478976 0.059610
v -0.813623 3.478976 0.059610
v -0.813623 3.478976 -0.066538
v -0.728467 3.521044 -0.066538
v -0.728467 3.521044 0.059610
v -0.728467 3.478976 -0.066538
v -0.728467 3.478976 0.059610
v -0.019691 3.521044 -0.066538
v -0.019691 3.521044 0.059610
v -0.019691 3.478976 -0.066538
v -0.019691 3.478976 0.059610
v -0.863384 2.879574 -0.116298
v -0.863384 2.512436 -0.116298
v -0.678706 2.512436 -0.116298
v -0.678706 2.879574 -0.116298
v -0.817176 2.762670 -0.116298
v -0.817176 2.656874 -0.116298
v -0.724915 2.656874 -0.116298
v -0.724915 2.762670 -0.116298
v -0.816446 2.762670 -0.210779
v -0.817176 2.656874 -0.211509
v -0.724915 2.656874 -0.211509
v -0.725644 2.762670 -0.210779
v -0.817176 2.656874 -0.188664
v -0.724915 2.656874 -0.188664
v -0.725644 2.762670 -0.189394
v -0.816446 2.762670 -0.189394
v -0.817176 2.762670 -0.211509
v -0.724915 2.762670 -0.211509
v -0.724915 2.762670 -0.188664
v -0.817176 2.762670 -0.188664
v -0.816446 2.877875 -0.210779
v -0.725644 2.877875 -0.210779
v -0.725644 2.877875 -0.189394
v -0.816446 2.877875 -0.189394
v -0.777384 3.521044 0.059610
v -0.813623 3.484804 0.059610
v -0.813623 3.484804 -0.066538
v -0.777384 3.521044 -0.066538
vt 0.634731 0.198579
vt 0.655622 0.198579
vt 0.655622 0.395410
vt 0.634731 0.395410
vt 0.785840 0.703203
vt 0.785840 0.724095
vt 0.526806 0.724095
vt 0.526806 0.703203
vt 0.306046 0.198579
vt 0.326938 0.198579
vt 0.326938 0.395410
vt 0.306046 0.395410
vt 0.918152 0.306046
vt 0.918152 0.326938
vt 0.659117 0.326938
vt 0.659117 0.306046
vt 0.264277 0.595737
vt 0.523311 0.595737
vt 0.523311 0.792568
vt 0.264277 0.792568
vt 0.264277 0.398905
vt 0.523311 0.398905
vt 0.306046 0.001747
vt 0.326938 0.001747
vt 0.634731 0.001747
vt 0.655622 0.001747
vt 0.330432 0.001747
vt 0.330432 0.198579
vt 0.001747 0.001747
vt 0.001747 0.198579
vt 0.918152 0.001747
vt 0.659117 0.001747
vt 0.001747 0.395410
vt 0.785840 0.398905
vt 0.526806 0.398905
vt 0.330432 0.395410
vt 0.750924 0.330433
vt 0.750924 0.393262
vt 0.722652 0.393262
vt 0.722652 0.330433
vt 0.797863 0.330432
vt 0.797863 0.393262
vt 0.786187 0.393262
vt 0.786187 0.330432
vt 0.782692 0.330433
vt 0.782692 0.393262
vt 0.754419 0.393262
vt 0.754419 0.330433
vt 0.828207 0.330432
vt 0.828207 0.393262
vt 0.816530 0.393262
vt 0.816530 0.330432
vt 0.047262 0.796063
vt 0.058939 0.796063
vt 0.058939 0.824335
vt 0.047262 0.824335
vt 0.032091 0.796063
vt 0.043767 0.796063
vt 0.043767 0.824335
vt 0.032091 0.824335
vt 0.687390 0.330433
vt 0.687390 0.393262
vt 0.659117 0.393262
vt 0.659117 0.330433
vt 0.813035 0.330432
vt 0.813035 0.393262
vt 0.801358 0.393262
vt 0.801358 0.330432
vt 0.719157 0.330433
vt 0.719157 0.393262
vt 0.690885 0.393262
vt 0.690885 0.330433
vt 0.681276 0.778636
vt 0.681276 0.841465
vt 0.669599 0.841465
vt 0.669599 0.778636
vt 0.016919 0.796063
vt 0.028596 0.796063
vt 0.028596 0.824336
vt 0.016919 0.824336
vt 0.001747 0.796063
vt 0.013424 0.796063
vt 0.013424 0.824335
vt 0.001747 0.824335
vt 0.921647 0.150711
vt 0.921647 0.001747
vt 0.968723 0.001747
vt 0.968723 0.150711
vt 0.212913 0.595737
vt 0.212913 0.446774
vt 0.260782 0.398905
vt 0.260782 0.595737
vt 0.049616 0.595737
vt 0.049616 0.744700
vt 0.001747 0.792568
vt 0.001747 0.595737
vt 0.049616 0.446774
vt 0.001747 0.398905
vt 0.212913 0.744700
vt 0.260782 0.792568
vt 0.789335 0.398905
vt 0.952633 0.398905
vt 0.952633 0.547868
vt 0.952633 0.696831
vt 0.789335 0.696831
vt 0.789335 0.547868
vt 0.526806 0.890888
vt 0.526806 0.727590
vt 0.573882 0.727590
vt 0.573882 0.890888
vt 0.921647 0.299674
vt 0.968723 0.299674
vt 0.789335 0.849289
vt 0.789335 0.700326
vt 0.836411 0.700326
vt 0.836411 0.849289
vt 0.839906 0.863624
vt 0.839906 0.700326
vt 0.886982 0.700326
vt 0.886982 0.863624
vt 0.789335 0.998253
vt 0.836411 0.998253
vt 0.698827 0.727590
vt 0.698827 0.775141
vt 0.669599 0.775141
vt 0.669599 0.727590
vt 0.167435 0.799022
vt 0.155486 0.799022
vt 0.155486 0.796063
vt 0.167435 0.796063
vt 0.666104 0.727590
vt 0.666104 0.775141
vt 0.636876 0.775141
vt 0.636876 0.727590
vt 0.773488 0.727590
vt 0.773488 0.775141
vt 0.749569 0.775141
vt 0.749569 0.727590
vt 0.722155 0.778636
vt 0.746074 0.778636
vt 0.746074 0.807864
vt 0.722155 0.807864
vt 0.613548 0.819389
vt 0.597210 0.819389
vt 0.597210 0.727590
vt 0.613548 0.727590
vt 0.767043 0.801419
vt 0.767043 0.785081
vt 0.773488 0.778636
vt 0.773488 0.807864
vt 0.756014 0.785081
vt 0.749569 0.778636
vt 0.756014 0.801419
vt 0.749569 0.807864
vt 0.651400 0.856269
vt 0.662430 0.856269
vt 0.662430 0.861717
vt 0.656094 0.861717
vt 0.651400 0.857023
vt 0.170930 0.796063
vt 0.177266 0.796063
vt 0.177266 0.812401
vt 0.170930 0.812401
vt 0.636876 0.856269
vt 0.647905 0.856269
vt 0.647905 0.857023
vt 0.643212 0.861717
vt 0.636876 0.861717
vt 0.636876 0.778636
vt 0.647905 0.778636
vt 0.651400 0.778636
vt 0.662430 0.778636
vt 0.617043 0.727590
vt 0.633381 0.727590
vt 0.633381 0.805223
vt 0.617043 0.805223
vt 0.702322 0.727590
vt 0.718660 0.727590
vt 0.718660 0.805223
vt 0.702322 0.805223
vt 0.666104 0.778636
vt 0.666104 0.778636
vt 0.666104 0.778636
vt 0.666104 0.778636
vt 0.666104 0.778636
vt 0.666104 0.778636
vt 0.666104 0.778636
vt 0.666104 0.778636
vt 0.186209 0.796063
vt 0.186209 0.812401
vt 0.180761 0.812401
vt 0.180761 0.796063
vt 0.684771 0.778636
vt 0.690219 0.778636
vt 0.690219 0.870434
vt 0.684771 0.870434
vt 0.782431 0.819389
vt 0.776983 0.819389
vt 0.776983 0.727590
vt 0.782431 0.727590
vt 0.577377 0.727590
vt 0.593715 0.727590
vt 0.593715 0.819389
vt 0.577377 0.819389
vt 0.740089 0.760000
vt 0.740089 0.746297
vt 0.746074 0.727590
vt 0.746074 0.775141
vt 0.728140 0.746297
vt 0.722155 0.727590
vt 0.728140 0.760000
vt 0.722155 0.775141
vt 0.666104 0.782131
vt 0.666104 0.782131
vt 0.666104 0.782131
vt 0.666104 0.782131
vt 0.666104 0.782131
vt 0.666104 0.782131
vt 0.666104 0.782131
vt 0.666104 0.782131
vt 0.136547 0.796063
vt 0.136547 0.809765
vt 0.124597 0.809765
vt 0.124597 0.796063
vt 0.077689 0.796063
vt 0.089450 0.796063
vt 0.089450 0.810984
vt 0.077689 0.810984
vt 0.095903 0.796063
vt 0.095903 0.809765
vt 0.092945 0.809765
vt 0.092945 0.796063
vt 0.118144 0.809765
vt 0.118144 0.796063
vt 0.121102 0.796063
vt 0.121102 0.809765
vt 0.108771 0.809765
vt 0.108771 0.796063
vt 0.105276 0.796063
vt 0.105276 0.809765
vt 0.151991 0.808394
vt 0.140042 0.808394
vt 0.140042 0.799022
vt 0.151991 0.799022
vt 0.167435 0.808394
vt 0.155486 0.808394
vt 0.151896 0.796158
vt 0.140136 0.796158
vt 0.140042 0.796063
vt 0.151991 0.796063
vt 0.140136 0.798927
vt 0.151896 0.798927
vt 0.195969 0.807823
vt 0.195969 0.796063
vt 0.198739 0.796063
vt 0.198739 0.807823
vt 0.693714 0.778636
vt 0.696484 0.778636
vt 0.696484 0.793557
vt 0.693714 0.793557
vt 0.189704 0.796063
vt 0.192474 0.796063
vt 0.192474 0.810984
vt 0.189704 0.810984
vt 0.062434 0.796063
vt 0.074194 0.796063
vt 0.074194 0.810984
vt 0.062434 0.810984
vt 0.633381 0.810672
vt 0.617043 0.810672
vt 0.617043 0.805978
vt 0.633381 0.805978
vn -1.0000 0.0000 0.0000
vn 0.0000 0.0000 -1.0000
vn 1.0000 0.0000 0.0000
vn 0.0000 0.0000 1.0000
vn 0.0000 -1.0000 0.0000
vn 0.0000 1.0000 0.0000
vn 0.0000 1.0000 0.0004
vn 0.0000 1.0000 -0.0004
vn -0.7071 0.7071 0.0000
usemtl None
s off
f 18/1/1 35/2/1 36/3/1 14/4/1
f 14/5/2 36/6/2 39/7/2 15/8/2
f 17/9/3 37/10/3 38/11/3 16/12/3
f 16/13/4 38/14/4 40/15/4 13/16/4
f 9/17/5 11/18/5 5/19/5 1/20/5
f 3/21/5 7/22/5 11/18/5 9/17/5
f 15/23/3 39/24/3 37/10/3 17/9/3
f 13/25/1 40/26/1 35/2/1 18/1/1
f 1/27/1 13/25/1 18/1/1 9/28/1
f 7/29/3 15/23/3 17/9/3 11/30/3
f 5/31/4 16/13/4 13/16/4 1/32/4
f 11/30/3 17/9/3 16/12/3 5/33/3
f 3/34/2 14/5/2 15/8/2 7/35/2
f 9/28/1 18/1/1 14/4/1 3/36/1
f 19/37/1 20/38/1 22/39/1 21/40/1
f 21/41/2 22/42/2 26/43/2 25/44/2
f 25/45/3 26/46/3 24/47/3 23/48/3
f 23/49/4 24/50/4 20/51/4 19/52/4
f 21/53/5 25/54/5 23/55/5 19/56/5
f 26/57/6 22/58/6 20/59/6 24/60/6
f 27/61/1 28/62/1 30/63/1 29/64/1
f 29/65/2 30/66/2 34/67/2 33/68/2
f 33/69/3 34/70/3 32/71/3 31/72/3
f 31/73/4 32/74/4 28/75/4 27/76/4
f 29/77/5 33/78/5 31/79/5 27/80/5
f 34/81/6 30/82/6 28/83/6 32/84/6
f 12/85/1 8/86/1 45/87/1 43/88/1
f 10/89/6 4/90/6 36/91/6 35/92/6
f 12/93/6 6/94/6 38/95/6 37/96/6
f 4/90/6 8/97/6 39/98/6 36/91/6
f 6/94/6 2/99/6 40/100/6 38/95/6
f 2/99/6 10/89/6 35/92/6 40/100/6
f 8/97/6 12/93/6 37/96/6 39/98/6
f 45/101/6 42/102/6 41/103/6 46/104/6 44/105/6 43/106/6
f 2/107/2 6/108/2 44/109/2 46/110/2
f 6/111/1 12/85/1 43/88/1 44/112/1
f 10/113/3 2/114/3 46/115/3 41/116/3
f 8/117/4 4/118/4 42/119/4 45/120/4
f 4/121/3 10/113/3 41/116/3 42/122/3
f 47/123/1 55/124/1 73/125/1 74/126/1
f 86/127/5 85/128/5 82/129/5 83/130/5
f 75/131/3 76/132/3 58/133/3 51/134/3
f 51/135/4 58/136/4 55/137/4 47/138/4
f 74/139/5 75/140/5 51/141/5 47/142/5
f 62/143/5 61/144/5 71/145/5 72/146/5
f 48/147/6 50/148/6 73/149/6 55/150/6
f 50/148/6 54/151/6 76/152/6 73/149/6
f 54/151/6 52/153/6 58/154/6 76/152/6
f 52/153/6 48/147/6 55/150/6 58/154/6
f 63/155/4 68/156/4 66/157/4 97/158/4 98/159/4
f 65/160/6 100/161/6 97/162/6 66/163/6
f 67/164/2 64/165/2 99/166/2 100/167/2 65/168/2
f 54/169/2 50/170/2 64/165/2 67/164/2
f 48/171/4 52/172/4 68/156/4 63/155/4
f 50/173/1 48/174/1 63/175/1 64/176/1
f 52/177/3 54/178/3 67/179/3 68/180/3
f 60/181/4 59/182/4 65/183/4 66/184/4
f 59/182/4 61/185/4 67/186/4 65/183/4
f 62/187/4 60/181/4 66/184/4 68/188/4
f 61/185/4 62/187/4 68/188/4 67/186/4
f 72/189/3 71/190/3 69/191/3 70/192/3
f 61/193/2 59/194/2 69/195/2 71/196/2
f 60/197/4 62/198/4 72/199/4 70/200/4
f 59/201/6 60/202/6 70/203/6 69/204/6
f 77/205/2 78/206/2 74/207/2 73/208/2
f 78/206/2 79/209/2 75/210/2 74/207/2
f 80/211/2 77/205/2 73/208/2 76/212/2
f 79/209/2 80/211/2 76/212/2 75/210/2
f 56/213/4 49/214/4 78/215/4 77/216/4
f 49/214/4 53/217/4 79/218/4 78/215/4
f 57/219/4 56/213/4 77/216/4 80/220/4
f 53/217/4 57/219/4 80/220/4 79/218/4
f 82/221/2 89/222/2 90/223/2 83/224/2
f 88/225/4 87/226/4 95/227/4 96/228/4
f 85/229/1 92/230/1 89/231/1 82/232/1
f 91/233/3 86/234/3 83/235/3 90/236/3
f 57/237/3 53/238/3 86/234/3 91/233/3
f 49/239/1 56/240/1 92/230/1 85/229/1
f 56/241/6 57/242/6 91/243/6 92/244/6
f 53/245/5 49/246/5 85/128/5 86/127/5
f 81/247/7 84/248/7 90/249/7 89/250/7
f 84/248/6 87/251/6 91/243/6 90/249/6
f 88/252/6 81/247/6 89/250/6 92/244/6
f 87/251/8 88/252/8 92/244/8 91/243/8
f 96/253/6 95/254/6 94/255/6 93/256/6
f 87/257/3 84/258/3 94/259/3 95/260/3
f 81/261/1 88/262/1 96/263/1 93/264/1
f 84/265/2 81/266/2 93/267/2 94/268/2
f 97/269/9 100/270/9 99/271/9 98/272/9
f 64/176/1 63/175/1 98/272/1 99/271/1
