# Blender v3.0.0 OBJ File: 'keukenkastje.blend'
# www.blender.org
mtllib keukenkastje.mtl
o Cube
v -1.000000 0.000000 1.519733
v -1.000000 2.510788 1.519733
v -1.000000 0.000000 -1.519733
v -1.000000 2.510788 -1.519733
v 1.000000 0.000000 1.519733
v 1.000000 2.510788 1.519733
v 1.000000 0.000000 -1.519733
v 1.000000 2.510788 -1.519733
v -1.000000 0.000000 0.000000
v -1.000000 2.510788 0.000000
v 1.000000 0.000000 0.000000
v 1.000000 2.510788 0.000000
v -1.000000 2.349482 1.519733
v -1.000000 2.349482 -1.519733
v 1.000000 2.349482 -1.519733
v 1.000000 2.349482 1.519733
v 1.000000 2.349482 0.000000
v -1.000000 2.349482 0.000000
v 1.006567 1.700423 0.262146
v 1.006567 2.185528 0.262146
v 1.006567 1.700423 0.043855
v 1.006567 2.185528 0.043855
v 1.096723 1.700423 0.262146
v 1.096723 2.185528 0.262146
v 1.096723 1.700423 0.043855
v 1.096723 2.185528 0.043855
v 1.006567 1.700423 -0.043376
v 1.006567 2.185528 -0.043376
v 1.006567 1.700423 -0.261667
v 1.006567 2.185528 -0.261667
v 1.096723 1.700423 -0.043376
v 1.096723 2.185528 -0.043376
v 1.096723 1.700423 -0.261667
v 1.096723 2.185528 -0.261667
vt 0.690753 0.216065
vt 0.713554 0.216065
vt 0.713554 0.430884
vt 0.690753 0.430884
vt 0.854351 0.765483
vt 0.854351 0.788285
vt 0.571645 0.788285
vt 0.571645 0.765483
vt 0.001247 0.648196
vt 0.283953 0.648196
vt 0.283953 0.863015
vt 0.001247 0.863015
vt 0.333353 0.216065
vt 0.356154 0.216065
vt 0.356154 0.430884
vt 0.333353 0.430884
vt 0.998753 0.333353
vt 0.998753 0.356154
vt 0.716048 0.356154
vt 0.716048 0.333353
vt 0.286446 0.648196
vt 0.569152 0.648196
vt 0.569152 0.863015
vt 0.286446 0.863015
vt 0.286446 0.433377
vt 0.569152 0.433377
vt 0.333353 0.001247
vt 0.356154 0.001247
vt 0.001247 0.433377
vt 0.283953 0.433377
vt 0.690753 0.001247
vt 0.713554 0.001247
vt 0.358647 0.001247
vt 0.358647 0.216065
vt 0.001247 0.001247
vt 0.001247 0.216065
vt 0.998754 0.001247
vt 0.716048 0.001247
vt 0.001247 0.430884
vt 0.854351 0.433377
vt 0.571645 0.433377
vt 0.358647 0.430884
vt 0.813602 0.358647
vt 0.813602 0.427218
vt 0.782746 0.427218
vt 0.782746 0.358647
vt 0.584389 0.790778
vt 0.584388 0.859349
vt 0.571645 0.859349
vt 0.571645 0.790778
vt 0.846951 0.358647
vt 0.846951 0.427218
vt 0.816095 0.427218
vt 0.816095 0.358647
vt 0.614862 0.790778
vt 0.614862 0.859349
vt 0.602119 0.859349
vt 0.602119 0.790778
vt 0.678303 0.790778
vt 0.691047 0.790778
vt 0.691047 0.821634
vt 0.678303 0.821634
vt 0.663066 0.790778
vt 0.675810 0.790778
vt 0.675810 0.821634
vt 0.663066 0.821634
vt 0.780253 0.358647
vt 0.780253 0.427218
vt 0.749397 0.427218
vt 0.749397 0.358647
vt 0.599626 0.790778
vt 0.599625 0.859349
vt 0.586882 0.859349
vt 0.586882 0.790778
vt 0.746904 0.358647
vt 0.746904 0.427218
vt 0.716047 0.427218
vt 0.716047 0.358647
vt 0.630099 0.790778
vt 0.630099 0.859349
vt 0.617355 0.859349
vt 0.617356 0.790778
vt 0.647829 0.790778
vt 0.660573 0.790778
vt 0.660573 0.821634
vt 0.647829 0.821634
vt 0.632592 0.790778
vt 0.645336 0.790778
vt 0.645336 0.821634
vt 0.632592 0.821634
vn -1.0000 0.0000 0.0000
vn 0.0000 0.0000 -1.0000
vn 0.0000 1.0000 0.0000
vn 1.0000 0.0000 0.0000
vn 0.0000 0.0000 1.0000
vn 0.0000 -1.0000 0.0000
usemtl None
s off
f 18/1/1 10/2/1 4/3/1 14/4/1
f 14/5/2 4/6/2 8/7/2 15/8/2
f 12/9/3 10/10/3 2/11/3 6/12/3
f 17/13/4 12/14/4 6/15/4 16/16/4
f 16/17/5 6/18/5 2/19/5 13/20/5
f 9/21/6 11/22/6 5/23/6 1/24/6
f 3/25/6 7/26/6 11/22/6 9/21/6
f 15/27/4 8/28/4 12/14/4 17/13/4
f 8/29/3 4/30/3 10/10/3 12/9/3
f 13/31/1 2/32/1 10/2/1 18/1/1
f 1/33/1 13/31/1 18/1/1 9/34/1
f 7/35/4 15/27/4 17/13/4 11/36/4
f 5/37/5 16/17/5 13/20/5 1/38/5
f 11/36/4 17/13/4 16/16/4 5/39/4
f 3/40/2 14/5/2 15/8/2 7/41/2
f 9/34/1 18/1/1 14/4/1 3/42/1
f 19/43/1 20/44/1 22/45/1 21/46/1
f 21/47/2 22/48/2 26/49/2 25/50/2
f 25/51/4 26/52/4 24/53/4 23/54/4
f 23/55/5 24/56/5 20/57/5 19/58/5
f 21/59/6 25/60/6 23/61/6 19/62/6
f 26/63/3 22/64/3 20/65/3 24/66/3
f 27/67/1 28/68/1 30/69/1 29/70/1
f 29/71/2 30/72/2 34/73/2 33/74/2
f 33/75/4 34/76/4 32/77/4 31/78/4
f 31/79/5 32/80/5 28/81/5 27/82/5
f 29/83/6 33/84/6 31/85/6 27/86/6
f 34/87/3 30/88/3 28/89/3 32/90/3
