# Blender v3.0.0 OBJ File: 'p16x9.blend'
# www.blender.org
mtllib p16x9.mtl
o P16x9_Cube
v -16.000000 -9.000000 1.000000
v -16.000000 9.000000 1.000000
v -16.000000 -9.000000 -1.000000
v -16.000000 9.000000 -1.000000
v 16.000000 -9.000000 1.000000
v 16.000000 9.000000 1.000000
v 16.000000 -9.000000 -1.000000
v 16.000000 9.000000 -1.000000
v -17.000000 -10.000000 1.000000
v -16.000000 -9.000001 1.000000
v -17.000000 10.000000 1.000000
v -16.000000 9.000001 1.000000
v -17.000000 -10.000000 -1.000000
v -16.000000 -9.000001 -1.000000
v -17.000000 10.000000 -1.000000
v -16.000000 9.000001 -1.000000
v 17.000000 -10.000000 1.000000
v 16.000000 -9.000001 1.000000
v 17.000000 10.000000 1.000000
v 16.000000 9.000001 1.000000
v 17.000000 -10.000000 -1.000000
v 16.000000 -9.000001 -1.000000
v 16.000000 9.000001 -1.000000
v 17.000000 10.000000 -1.000000
v 16.000000 -9.000001 1.760704
v 16.000000 9.000001 1.760704
v -17.000000 -10.000000 1.760704
v -16.000000 -9.000001 1.760704
v -17.000000 10.000000 1.760704
v -16.000000 9.000001 1.760704
v 17.000000 -10.000000 1.760704
v 17.000000 10.000000 1.760704
vt 0.364874 0.516533
vt 0.364874 0.787656
vt 0.334749 0.787656
vt 0.334749 0.516533
vt 0.880972 0.968405
vt 0.609849 0.968405
vt 0.609849 0.486408
vt 0.880972 0.486408
vt 0.397940 0.516533
vt 0.397940 0.787656
vt 0.367815 0.787656
vt 0.367815 0.516533
vt 0.880972 0.483467
vt 0.609849 0.483467
vt 0.609849 0.001471
vt 0.880972 0.001471
vt 0.153710 0.516533
vt 0.153710 0.998529
vt 0.123586 0.998529
vt 0.123586 0.516533
vt 0.120644 0.516533
vt 0.120644 0.998529
vt 0.090519 0.998529
vt 0.090519 0.516533
vt 0.186777 0.516533
vt 0.186777 0.817780
vt 0.156652 0.817780
vt 0.156652 0.516533
vt 0.016533 0.016533
vt 0.001471 0.001471
vt 0.302718 0.001471
vt 0.287656 0.016533
vt 0.016533 0.498529
vt 0.001471 0.513592
vt 0.242759 0.516533
vt 0.242759 0.817780
vt 0.212634 0.817780
vt 0.212634 0.516533
vt 0.895371 0.001471
vt 0.895371 0.513592
vt 0.883913 0.513592
vt 0.883913 0.001471
vt 0.201176 0.817780
vt 0.201176 0.516533
vt 0.925496 0.001471
vt 0.925496 0.513592
vt 0.970020 0.001471
vt 0.970020 0.513592
vt 0.939895 0.513592
vt 0.939895 0.001471
vt 0.257159 0.787656
vt 0.257159 0.516533
vt 0.287283 0.516533
vt 0.287283 0.787656
vt 0.320349 0.787656
vt 0.290225 0.787656
vt 0.290225 0.516533
vt 0.320350 0.516533
vt 0.043054 0.998529
vt 0.012929 0.998529
vt 0.012929 0.516533
vt 0.043054 0.516533
vt 0.057453 0.516533
vt 0.087578 0.516533
vt 0.087578 0.998529
vt 0.057453 0.998529
vt 0.591845 0.016533
vt 0.320722 0.016533
vt 0.305659 0.001471
vt 0.606907 0.001471
vt 0.320722 0.498529
vt 0.305659 0.513592
vt 0.198235 0.516533
vt 0.198235 0.817780
vt 0.045995 0.998529
vt 0.045995 0.516533
vt 0.331807 0.516533
vt 0.331807 0.787656
vt 0.001471 0.998529
vt 0.001471 0.516533
vt 0.928437 0.513592
vt 0.928437 0.001471
vt 0.245701 0.787656
vt 0.245701 0.516533
vt 0.591845 0.498529
vt 0.606907 0.513592
vt 0.302718 0.513592
vt 0.287656 0.498529
vn -1.0000 0.0000 0.0000
vn 0.0000 0.0000 -1.0000
vn 1.0000 0.0000 0.0000
vn 0.0000 0.0000 1.0000
vn 0.0000 -1.0000 0.0000
vn 0.0000 1.0000 0.0000
usemtl None
s off
f 1/1/1 2/2/1 4/3/1 3/4/1
f 3/5/2 4/6/2 8/7/2 7/8/2
f 7/9/3 8/10/3 6/11/3 5/12/3
f 5/13/4 6/14/4 2/15/4 1/16/4
f 3/17/5 7/18/5 5/19/5 1/20/5
f 8/21/6 4/22/6 2/23/6 6/24/6
f 9/25/1 11/26/1 15/27/1 13/28/1
f 23/29/2 24/30/2 21/31/2 22/32/2
f 16/33/2 15/34/2 24/30/2 23/29/2
f 21/35/3 24/36/3 19/37/3 17/38/3
f 9/39/5 17/40/5 31/41/5 27/42/5
f 17/38/3 19/37/3 32/43/3 31/44/3
f 13/45/5 21/46/5 17/40/5 9/39/5
f 24/47/6 15/48/6 11/49/6 19/50/6
f 12/51/3 10/52/3 14/53/3 16/54/3
f 20/55/1 23/56/1 22/57/1 18/58/1
f 14/59/6 10/60/6 18/61/6 22/62/6
f 12/63/5 16/64/5 23/65/5 20/66/5
f 28/67/4 30/68/4 29/69/4 27/70/4
f 26/71/4 32/72/4 29/69/4 30/68/4
f 11/26/1 9/25/1 27/73/1 29/74/1
f 12/63/5 20/66/5 26/75/5 30/76/5
f 20/55/1 18/58/1 25/77/1 26/78/1
f 18/61/6 10/60/6 28/79/6 25/80/6
f 19/50/6 11/49/6 29/81/6 32/82/6
f 10/52/3 12/51/3 30/83/3 28/84/3
f 25/85/4 31/86/4 32/72/4 26/71/4
f 28/67/4 27/70/4 31/86/4 25/85/4
f 13/87/2 15/34/2 16/33/2 14/88/2
f 21/31/2 13/87/2 14/88/2 22/32/2
