# Blender v3.0.0 OBJ File: 'paddo.blend'
# www.blender.org
mtllib paddo.mtl
o Icosphere
v 0.032203 0.989147 0.099106
v -0.084307 0.989147 0.061249
v -0.084307 0.989147 -0.061249
v 0.032203 0.989147 -0.099106
v 0.104209 0.989147 0.000000
v 0.000000 1.541932 0.000000
v 0.894425 0.989147 0.000000
v 0.276385 0.989147 0.850640
v -0.723600 0.989147 0.525720
v -0.723600 0.989147 -0.525720
v 0.276385 0.989147 -0.850640
v 0.000000 0.000000 -0.000000
v 0.104209 0.000000 0.000000
v 0.032203 0.000000 0.099106
v -0.084307 0.000000 0.061249
v -0.084307 0.000000 -0.061249
v 0.032203 0.000000 -0.099106
vt 0.614879 0.998837
vt 0.569558 0.998837
vt 0.569558 0.632892
vt 0.614879 0.632892
vt 0.938970 0.121371
vt 0.938970 0.510368
vt 0.602089 0.315866
vt 0.644985 0.001163
vt 0.285361 0.900963
vt 0.567233 0.632892
vt 0.567233 0.915119
vt 0.001163 0.900967
vt 0.283036 0.632892
vt 0.283036 0.915121
vt 0.644980 0.630567
vt 0.363251 0.338523
vt 0.363251 0.293202
vt 0.599764 0.121362
vt 0.599764 0.510359
vt 0.320147 0.352529
vt 0.229809 0.630567
vt 0.293508 0.315865
vt 0.001163 0.315869
vt 0.320148 0.279198
vt 0.229803 0.001163
vt 0.662524 0.998837
vt 0.617205 0.998837
vt 0.617205 0.632892
vt 0.662524 0.632892
vt 0.710170 0.855045
vt 0.664849 0.855045
vt 0.664849 0.632892
vt 0.710170 0.632892
vt 0.986618 0.367108
vt 0.941295 0.367108
vt 0.941295 0.001163
vt 0.986618 0.001163
vt 0.986618 0.735378
vt 0.941295 0.735378
vt 0.941295 0.369433
vt 0.986618 0.369433
vt 0.751048 0.669558
vt 0.782238 0.692219
vt 0.739135 0.706223
vt 0.712496 0.669556
vt 0.739134 0.632892
vt 0.782238 0.646898
vn 0.8090 0.0000 -0.5878
vn 0.4911 0.7947 0.3568
vn -0.1876 0.7947 0.5774
vn -0.6071 0.7947 0.0000
vn -0.1876 0.7947 -0.5774
vn 0.4911 0.7947 -0.3568
vn 0.0000 -1.0000 -0.0000
vn -1.0000 0.0000 0.0000
vn 0.8090 0.0000 0.5878
vn -0.3090 0.0000 -0.9511
vn -0.3090 0.0000 0.9511
usemtl None
s off
f 4/1/1 5/2/1 13/3/1 17/4/1
f 8/5/2 7/6/2 6/7/2
f 9/8/3 8/5/3 6/7/3
f 10/9/4 9/10/4 6/11/4
f 11/12/5 10/13/5 6/14/5
f 7/6/6 11/15/6 6/7/6
f 1/16/7 5/17/7 7/18/7 8/19/7
f 2/20/7 1/16/7 8/19/7 9/21/7
f 3/22/7 2/20/7 9/21/7 10/23/7
f 4/24/7 3/22/7 10/23/7 11/25/7
f 5/17/7 4/24/7 11/25/7 7/18/7
f 2/26/8 3/27/8 16/28/8 15/29/8
f 5/30/9 1/31/9 14/32/9 13/33/9
f 3/34/10 4/35/10 17/36/10 16/37/10
f 1/38/11 2/39/11 15/40/11 14/41/11
f 12/42/7 13/43/7 14/44/7
f 12/42/7 14/44/7 15/45/7
f 12/42/7 15/45/7 16/46/7
f 12/42/7 16/46/7 17/47/7
f 12/42/7 17/47/7 13/43/7
