# Blender v3.0.0 OBJ File: 'raam.blend'
# www.blender.org
mtllib raam.mtl
o Cube
v -0.266202 0.166902 3.790254
v -0.266202 4.685396 3.790254
v -0.266202 0.166902 -3.790253
v -0.266202 4.685396 -3.790253
v 0.266202 0.166902 3.790254
v 0.266202 4.685396 3.790254
v 0.266202 0.166902 -3.790253
v 0.266202 4.685396 -3.790253
v -0.266202 0.000000 -3.957155
v -0.266202 0.000000 3.957156
v -0.266202 4.852299 3.957156
v -0.266202 4.852299 -3.957155
v 0.266202 4.852299 -3.957155
v 0.266202 0.000000 -3.957155
v 0.266202 0.000000 3.957156
v 0.266202 4.852299 3.957156
v 0.144201 4.685396 -3.790253
v 0.144201 0.166902 -3.790253
v 0.144201 0.166902 3.790254
v 0.144201 4.685396 3.790254
v -0.178592 0.166902 -3.790253
v -0.178592 0.166902 3.790254
v -0.178592 4.685396 3.790254
v -0.178592 4.685396 -3.790253
v -0.266202 0.000000 1.976548
v -0.266202 4.852299 1.976549
v 0.266202 0.000000 1.976549
v 0.266202 4.852299 1.976548
v -0.266202 0.166902 1.893183
v -0.266202 4.685396 1.893183
v 0.266202 0.166902 1.893183
v 0.266202 4.685396 1.893183
v 0.144201 0.166902 1.893183
v 0.144201 4.685396 1.893183
v -0.178592 0.166902 1.893183
v -0.178592 4.685396 1.893183
v -0.266202 4.852299 1.771293
v 0.266202 0.000000 1.771293
v -0.266202 4.685396 1.696584
v 0.266202 0.166902 1.696584
v 0.144201 0.166902 1.696584
v -0.178592 4.685396 1.696584
v -0.266202 0.000000 1.771293
v 0.266202 4.852299 1.771293
v -0.266202 0.166902 1.696584
v 0.266202 4.685396 1.696584
v 0.144201 4.685396 1.696584
v -0.178592 0.166902 1.696584
v -0.266202 4.852299 -2.073624
v 0.266202 0.000000 -2.073624
v -0.266202 4.685396 -1.986164
v 0.266202 0.166902 -1.986164
v 0.144201 0.166902 -1.986164
v -0.178592 4.685396 -1.986164
v -0.266202 0.000000 -2.073624
v 0.266202 4.852299 -2.073624
v -0.266202 0.166902 -1.986164
v 0.266202 4.685396 -1.986164
v 0.144201 4.685396 -1.986164
v -0.178592 0.166902 -1.986164
v -0.266202 0.000000 -1.883513
v 0.266202 4.852299 -1.883513
v -0.266202 0.166902 -1.804072
v 0.266202 4.685396 -1.804072
v 0.144201 4.685396 -1.804072
v -0.178592 0.166902 -1.804072
v -0.266202 4.852299 -1.883513
v 0.266202 0.000000 -1.883513
v -0.266202 4.685396 -1.804072
v 0.266202 0.166902 -1.804072
v 0.144201 0.166902 -1.804072
v -0.178592 4.685396 -1.804072
v -0.266202 2.272213 3.957156
v -0.266202 2.272213 -3.957155
v 0.266202 2.272213 -3.957155
v 0.266202 2.272213 3.957156
v -0.266202 2.282803 3.790254
v -0.266202 2.282802 -3.790253
v 0.266202 2.282802 -3.790253
v 0.266202 2.282802 3.790254
v 0.144201 2.282802 -3.790253
v 0.144201 2.282802 3.790254
v -0.178592 2.282803 3.790254
v -0.178592 2.282802 -3.790253
v -0.178592 2.282802 1.893183
v 0.144201 2.282802 1.893183
v 0.144201 2.282802 1.696584
v -0.178592 2.282802 1.696584
v 0.144201 2.282802 -1.986164
v -0.178592 2.282802 -1.986164
v -0.178592 2.282802 -1.804072
v 0.144201 2.282802 -1.804072
v -0.266202 2.520527 3.957156
v -0.266202 2.514034 3.790254
v -0.178592 2.514034 3.790254
v -0.266202 2.520526 -3.957155
v 0.266202 2.520526 -3.957155
v 0.266202 2.520526 3.957156
v -0.266202 2.514034 -3.790253
v 0.266202 2.514034 -3.790253
v 0.266202 2.514034 3.790254
v 0.144201 2.514034 -3.790253
v 0.144201 2.514034 3.790254
v -0.178592 2.514034 -3.790253
v -0.178592 2.514034 1.893183
v 0.144201 2.514034 1.893183
v 0.144201 2.514034 1.696584
v -0.178592 2.514034 1.696584
v 0.144201 2.514034 -1.986164
v -0.178592 2.514034 -1.986164
v -0.178592 2.514034 -1.804072
v 0.144201 2.514034 -1.804072
v 0.263355 4.685396 1.696584
v 0.263355 4.685396 1.893183
v 0.263355 2.282802 1.893183
v 0.263355 0.166902 1.893183
v 0.263355 0.166902 1.696584
v 0.263355 2.282802 1.696584
v 0.263355 0.166902 -1.804072
v 0.263355 0.166902 -1.986164
v 0.263355 2.282802 -1.986164
v 0.263355 4.685396 -1.986164
v 0.263355 4.685396 -1.804072
v 0.263355 2.282802 -1.804072
v 0.263355 2.514034 -3.790253
v 0.263355 2.282802 -3.790253
v 0.263355 2.514034 3.790254
v 0.263355 2.282802 3.790254
v 0.263355 2.514034 1.893183
v 0.263355 2.514034 1.696584
v 0.263355 2.514034 -1.986164
v 0.263355 2.514034 -1.804072
v -0.255656 0.166902 1.696584
v -0.255656 0.166902 1.893183
v -0.255656 2.282802 1.893183
v -0.255656 4.685396 1.893183
v -0.255656 4.685396 1.696584
v -0.255656 2.282802 1.696584
v -0.255656 4.685396 -1.804072
v -0.255656 4.685396 -1.986164
v -0.255656 2.282802 -1.986164
v -0.255656 0.166902 -1.986164
v -0.255656 0.166902 -1.804072
v -0.255656 2.282802 -1.804072
v -0.255656 2.514034 -3.790253
v -0.255656 2.282802 -3.790253
v -0.255656 2.514034 1.893183
v -0.255656 2.514034 1.696584
v -0.255656 2.514034 -1.986164
v -0.255656 2.514034 -1.804072
v -0.255656 2.282803 3.790254
v -0.255656 2.514034 3.790254
vt 0.971862 0.579964
vt 0.971862 0.469868
vt 0.977208 0.469868
vt 0.977208 0.579964
vt 0.917408 0.644056
vt 0.917408 0.786355
vt 0.884917 0.786355
vt 0.884917 0.644056
vt 0.967022 0.816705
vt 0.967022 0.932476
vt 0.959577 0.932476
vt 0.959577 0.816705
vt 0.954738 0.644056
vt 0.954738 0.786355
vt 0.922247 0.786355
vt 0.922247 0.644056
vt 0.922247 0.364530
vt 0.954738 0.364530
vt 0.954738 0.485399
vt 0.922247 0.485399
vt 0.884917 0.364530
vt 0.917408 0.364530
vt 0.917408 0.485399
vt 0.884917 0.485399
vt 0.589307 0.122702
vt 0.589307 0.012605
vt 0.599492 0.002420
vt 0.599492 0.117364
vt 0.460182 0.475214
vt 0.589307 0.475214
vt 0.599492 0.485399
vt 0.460828 0.485399
vt 0.313561 0.359443
vt 0.313561 0.475214
vt 0.303376 0.485399
vt 0.303376 0.364530
vt 0.446071 0.012605
vt 0.313561 0.012605
vt 0.303376 0.002420
vt 0.445675 0.002420
vt 0.159226 0.475214
vt 0.288351 0.475214
vt 0.298536 0.485399
vt 0.159872 0.485399
vt 0.288351 0.128376
vt 0.288351 0.012605
vt 0.298536 0.002420
vt 0.298536 0.123288
vt 0.012605 0.365117
vt 0.012605 0.475214
vt 0.002420 0.485399
vt 0.002420 0.370455
vt 0.145115 0.012605
vt 0.012605 0.012605
vt 0.002420 0.002420
vt 0.144719 0.002420
vt 0.118191 0.708709
vt 0.118191 0.841219
vt 0.002420 0.841219
vt 0.002420 0.708709
vt 0.989493 0.426241
vt 0.989493 0.558751
vt 0.982048 0.558751
vt 0.982048 0.426241
vt 0.982048 0.131545
vt 0.982048 0.002420
vt 0.989493 0.002420
vt 0.989493 0.131545
vt 0.959577 0.112516
vt 0.959577 0.002420
vt 0.967022 0.002420
vt 0.967022 0.112516
vt 0.594957 0.708709
vt 0.594957 0.841219
vt 0.484861 0.841219
vt 0.484861 0.708709
vt 0.977208 0.349257
vt 0.977208 0.465028
vt 0.971862 0.465028
vt 0.971862 0.349257
vt 0.982048 0.692715
vt 0.982048 0.563590
vt 0.987394 0.563590
vt 0.987394 0.692715
vt 0.997580 0.706827
vt 0.997580 0.839336
vt 0.992234 0.839336
vt 0.992234 0.706827
vt 0.977208 0.337260
vt 0.971862 0.337260
vt 0.238801 0.708709
vt 0.238801 0.841219
vt 0.123030 0.841219
vt 0.123030 0.708709
vt 0.959577 0.465028
vt 0.959577 0.349257
vt 0.967022 0.349257
vt 0.967022 0.465028
vt 0.165799 0.956155
vt 0.165799 0.846058
vt 0.173071 0.846058
vt 0.173071 0.956155
vt 0.012605 0.128376
vt 0.002420 0.123288
vt 0.288351 0.140373
vt 0.298536 0.135814
vt 0.313561 0.347445
vt 0.303376 0.352004
vt 0.589307 0.359443
vt 0.599492 0.364530
vt 0.884917 0.352004
vt 0.917408 0.352004
vt 0.922247 0.352004
vt 0.954738 0.352004
vt 0.967022 0.804708
vt 0.959577 0.804708
vt 0.971862 0.932476
vt 0.971862 0.816705
vt 0.977208 0.816705
vt 0.977208 0.932476
vt 0.967023 0.591077
vt 0.959577 0.591077
vt 0.922247 0.128966
vt 0.954738 0.128966
vt 0.884917 0.128966
vt 0.917408 0.128966
vt 0.313561 0.133814
vt 0.303376 0.128966
vt 0.288351 0.354005
vt 0.298536 0.358853
vt 0.272279 0.703870
vt 0.139769 0.703870
vt 0.139769 0.490238
vt 0.272279 0.490238
vt 0.977208 0.123629
vt 0.971862 0.123629
vt 0.225622 0.975183
vt 0.225622 0.846058
vt 0.230325 0.846058
vt 0.230325 0.975183
vt 0.959577 0.337260
vt 0.967022 0.337260
vt 0.012605 0.140373
vt 0.002420 0.135814
vt 0.589307 0.347445
vt 0.599492 0.352004
vt 0.971862 0.804708
vt 0.977208 0.804708
vt 0.977208 0.002420
vt 0.977208 0.112516
vt 0.971862 0.112516
vt 0.971862 0.002420
vt 0.353737 0.842674
vt 0.353737 0.975183
vt 0.243640 0.975183
vt 0.243640 0.842674
vt 0.288351 0.365117
vt 0.298536 0.370455
vt 0.313561 0.122702
vt 0.303376 0.117364
vt 0.884917 0.002420
vt 0.917408 0.002420
vt 0.917408 0.117364
vt 0.884917 0.117364
vt 0.922247 0.002420
vt 0.954738 0.002420
vt 0.954738 0.117364
vt 0.922247 0.117364
vt 0.967023 0.469868
vt 0.967023 0.579964
vt 0.959577 0.579964
vt 0.959577 0.469868
vt 0.583514 0.490238
vt 0.583514 0.703870
vt 0.578811 0.703870
vt 0.578811 0.490238
vt 0.959577 0.123629
vt 0.967022 0.123629
vt 0.012605 0.354005
vt 0.002420 0.358853
vt 0.589307 0.133814
vt 0.599492 0.128966
vt 0.971862 0.591077
vt 0.977208 0.591077
vt 0.002420 0.490238
vt 0.134929 0.490238
vt 0.134929 0.703870
vt 0.002420 0.703870
vt 0.595625 0.646538
vt 0.595625 0.660649
vt 0.588354 0.660649
vt 0.588354 0.646538
vt 0.532572 0.857171
vt 0.532572 0.846058
vt 0.539844 0.846058
vt 0.539844 0.857171
vt 0.540208 0.703870
vt 0.411083 0.703870
vt 0.411083 0.490238
vt 0.540208 0.490238
vt 0.478215 0.842674
vt 0.478215 0.975183
vt 0.473512 0.975183
vt 0.473512 0.842674
vt 0.112516 0.846058
vt 0.112516 0.975183
vt 0.002420 0.975183
vt 0.002420 0.846058
vt 0.220782 0.846058
vt 0.220782 0.975183
vt 0.216080 0.975183
vt 0.216080 0.846058
vt 0.406243 0.703870
vt 0.277118 0.703870
vt 0.277118 0.490238
vt 0.406243 0.490238
vt 0.921250 0.920320
vt 0.921250 0.791195
vt 0.928521 0.791195
vt 0.928521 0.920320
vt 0.359411 0.708709
vt 0.359411 0.837834
vt 0.243640 0.837834
vt 0.243640 0.708709
vt 0.997580 0.563590
vt 0.997580 0.692715
vt 0.992234 0.692715
vt 0.992234 0.563590
vt 0.982048 0.706827
vt 0.987394 0.706827
vt 0.468673 0.842674
vt 0.468673 0.971799
vt 0.358576 0.971799
vt 0.358576 0.842674
vt 0.982048 0.145656
vt 0.989493 0.145656
vt 0.989493 0.283005
vt 0.989493 0.412130
vt 0.982048 0.412130
vt 0.982048 0.283005
vt 0.480021 0.708709
vt 0.480021 0.837834
vt 0.364250 0.837834
vt 0.364250 0.708709
vt 0.159226 0.012605
vt 0.159872 0.002420
vt 0.145115 0.475214
vt 0.144719 0.485399
vt 0.460182 0.012605
vt 0.460828 0.002420
vt 0.446071 0.475214
vt 0.445675 0.485399
vt 0.954738 0.490238
vt 0.954738 0.628903
vt 0.922247 0.628903
vt 0.922247 0.490238
vt 0.917408 0.490238
vt 0.917408 0.628903
vt 0.884917 0.628903
vt 0.884917 0.490238
vt 0.982048 0.278166
vt 0.989493 0.278166
vt 0.982048 0.839336
vt 0.987394 0.839336
vt 0.160960 0.846058
vt 0.160960 0.956155
vt 0.153688 0.956155
vt 0.153688 0.846058
vt 0.569269 0.703870
vt 0.569269 0.490238
vt 0.573972 0.490238
vt 0.573972 0.703870
vt 0.196995 0.978568
vt 0.196995 0.846058
vt 0.201698 0.846058
vt 0.201698 0.978568
vt 0.588354 0.622748
vt 0.588354 0.490238
vt 0.595625 0.490238
vt 0.595625 0.622748
vt 0.571039 0.846058
vt 0.571039 0.860169
vt 0.566336 0.860169
vt 0.566336 0.846058
vt 0.588354 0.677486
vt 0.588354 0.665489
vt 0.595625 0.665489
vt 0.595625 0.677486
vt 0.952743 0.791194
vt 0.952743 0.920320
vt 0.945472 0.920320
vt 0.945472 0.791194
vt 0.499106 0.846058
vt 0.499106 0.961829
vt 0.494403 0.961829
vt 0.494403 0.846058
vt 0.503945 0.961829
vt 0.503945 0.846058
vt 0.508648 0.846058
vt 0.508648 0.961829
vt 0.904300 0.791194
vt 0.904300 0.923704
vt 0.897028 0.923704
vt 0.897028 0.791194
vt 0.747568 0.337260
vt 0.880078 0.337260
vt 0.880078 0.349257
vt 0.747568 0.349257
vt 0.747568 0.112516
vt 0.880078 0.112516
vt 0.880078 0.123629
vt 0.747568 0.123629
vt 0.604332 0.112516
vt 0.733457 0.112516
vt 0.733457 0.123629
vt 0.604332 0.123629
vt 0.604332 0.337260
vt 0.733457 0.337260
vt 0.733457 0.349257
vt 0.604332 0.349257
vt 0.733457 0.002420
vt 0.747568 0.002420
vt 0.747568 0.465028
vt 0.733457 0.465028
vt 0.148849 0.846058
vt 0.148849 0.961829
vt 0.141577 0.961829
vt 0.141577 0.846058
vt 0.884917 0.923704
vt 0.884917 0.791194
vt 0.892189 0.791194
vt 0.892189 0.923704
vt 0.117356 0.975183
vt 0.117356 0.846058
vt 0.124627 0.846058
vt 0.124627 0.975183
vt 0.588354 0.641699
vt 0.588354 0.627587
vt 0.595625 0.627587
vt 0.595625 0.641699
vt 0.595625 0.682326
vt 0.595625 0.694323
vt 0.588354 0.694323
vt 0.588354 0.682326
vt 0.940632 0.791194
vt 0.940632 0.920320
vt 0.933361 0.920320
vt 0.933361 0.791194
vt 0.916411 0.791194
vt 0.916411 0.923704
vt 0.909139 0.923704
vt 0.909139 0.791194
vt 0.551955 0.846058
vt 0.551955 0.857171
vt 0.544683 0.857171
vt 0.544683 0.846058
vt 0.564429 0.490238
vt 0.564429 0.703870
vt 0.557158 0.703870
vt 0.557158 0.490238
vt 0.545047 0.703870
vt 0.545047 0.490238
vt 0.552318 0.490238
vt 0.552318 0.703870
vt 0.129467 0.961829
vt 0.129467 0.846058
vt 0.136738 0.846058
vt 0.136738 0.961829
vt 0.747568 0.585639
vt 0.880078 0.585639
vt 0.880078 0.597636
vt 0.747568 0.597636
vt 0.747568 0.811267
vt 0.880078 0.811267
vt 0.880078 0.822380
vt 0.747568 0.822380
vt 0.604332 0.811267
vt 0.733457 0.811267
vt 0.733457 0.822380
vt 0.604332 0.822380
vt 0.604332 0.585639
vt 0.733457 0.585639
vt 0.733457 0.597636
vt 0.604332 0.597636
vt 0.733457 0.469868
vt 0.747568 0.469868
vt 0.747568 0.932476
vt 0.733457 0.932476
vt 0.523030 0.956155
vt 0.523030 0.846058
vt 0.527733 0.846058
vt 0.527733 0.956155
vt 0.211240 0.846058
vt 0.211240 0.975183
vt 0.206537 0.975183
vt 0.206537 0.846058
vt 0.575879 0.858056
vt 0.575879 0.846058
vt 0.580582 0.846058
vt 0.580582 0.858056
vt 0.192155 0.846058
vt 0.192155 0.978568
vt 0.187453 0.978568
vt 0.187453 0.846058
vt 0.518191 0.846058
vt 0.518191 0.956155
vt 0.513488 0.956155
vt 0.513488 0.846058
vt 0.484861 0.975183
vt 0.484861 0.846058
vt 0.489563 0.846058
vt 0.489563 0.975183
vt 0.532572 0.873123
vt 0.532572 0.862010
vt 0.537275 0.862010
vt 0.537275 0.873123
vt 0.590124 0.846058
vt 0.590124 0.858056
vt 0.585421 0.858056
vt 0.585421 0.846058
vt 0.177910 0.978568
vt 0.177910 0.846058
vt 0.182613 0.846058
vt 0.182613 0.978568
vt 0.546817 0.862010
vt 0.546817 0.873123
vt 0.542115 0.873123
vt 0.542115 0.862010
vt 0.556794 0.860169
vt 0.556794 0.846058
vt 0.561497 0.846058
vt 0.561497 0.860169
vn 0.0000 -1.0000 0.0000
vn 0.0000 0.0000 -1.0000
vn 0.0000 0.0000 1.0000
vn 0.0000 1.0000 0.0000
vn -1.0000 0.0000 0.0000
vn 1.0000 0.0000 0.0000
usemtl None
s off
f 51/1/1 4/2/1 24/3/1 54/4/1
f 96/5/2 12/6/2 13/7/2 97/8/2
f 32/9/1 6/10/1 20/11/1 34/12/1
f 98/13/3 16/14/3 11/15/3 93/16/3
f 25/17/1 27/18/1 15/19/1 10/20/1
f 28/21/4 26/22/4 11/23/4 16/24/4
f 57/25/5 3/26/5 9/27/5 55/28/5
f 77/29/5 1/30/5 10/31/5 73/32/5
f 30/33/5 2/34/5 11/35/5 26/36/5
f 99/37/5 4/38/5 12/39/5 96/40/5
f 79/41/6 7/42/6 14/43/6 75/44/6
f 31/45/6 5/46/6 15/47/6 27/48/6
f 58/49/6 8/50/6 13/51/6 56/52/6
f 101/53/6 6/54/6 16/55/6 98/56/6
f 106/57/6 34/58/6 20/59/6 103/60/6
f 100/61/3 8/62/3 17/63/3 102/64/3
f 80/65/2 5/66/2 19/67/2 82/68/2
f 52/69/4 7/70/4 18/71/4 53/72/4
f 110/73/5 54/74/5 24/75/5 104/76/5
f 29/77/4 1/78/4 22/79/4 35/80/4
f 78/81/3 3/82/3 21/83/3 84/84/3
f 94/85/2 2/86/2 23/87/2 95/88/2
f 45/89/4 29/77/4 35/80/4 48/90/4
f 95/91/5 23/92/5 36/93/5 105/94/5
f 5/95/4 31/96/4 33/97/4 19/98/4
f 89/99/1 81/100/1 126/101/1 121/102/1
f 6/54/6 32/103/6 28/104/6 16/55/6
f 40/105/6 31/45/6 27/48/6 38/106/6
f 39/107/5 30/33/5 26/36/5 37/108/5
f 1/30/5 29/109/5 25/110/5 10/31/5
f 44/111/4 37/112/4 26/22/4 28/21/4
f 43/113/1 38/114/1 27/18/1 25/17/1
f 46/115/1 32/9/1 34/12/1 47/116/1
f 2/117/1 30/118/1 36/119/1 23/120/1
f 64/121/1 46/115/1 47/116/1 65/122/1
f 61/123/1 68/124/1 38/114/1 43/113/1
f 62/125/4 67/126/4 37/112/4 44/111/4
f 69/127/5 39/107/5 37/108/5 67/128/5
f 70/129/6 40/105/6 38/106/6 68/130/6
f 112/131/6 65/132/6 47/133/6 107/134/6
f 63/135/4 45/89/4 48/90/4 66/136/4
f 88/137/2 48/138/2 133/139/2 138/140/2
f 31/96/4 40/141/4 41/142/4 33/97/4
f 32/103/6 46/143/6 44/144/6 28/104/6
f 29/109/5 45/145/5 43/146/5 25/110/5
f 30/118/1 39/147/1 42/148/1 36/119/1
f 3/149/4 57/150/4 60/151/4 21/152/4
f 102/153/6 17/154/6 59/155/6 109/156/6
f 7/42/6 52/157/6 50/158/6 14/43/6
f 4/38/5 51/159/5 49/160/5 12/39/5
f 13/161/4 12/162/4 49/163/4 56/164/4
f 9/165/1 14/166/1 50/167/1 55/168/1
f 8/169/1 58/170/1 59/171/1 17/172/1
f 91/173/1 88/174/1 138/175/1 144/176/1
f 70/177/4 52/69/4 53/72/4 71/178/4
f 64/179/6 58/49/6 56/52/6 62/180/6
f 63/181/5 57/25/5 55/28/5 61/182/5
f 69/183/1 51/1/1 54/4/1 72/184/1
f 39/147/1 69/183/1 72/184/1 42/148/1
f 45/145/5 63/181/5 61/182/5 43/146/5
f 46/143/6 64/179/6 62/180/6 44/144/6
f 40/141/4 70/177/4 71/178/4 41/142/4
f 108/185/5 42/186/5 72/187/5 111/188/5
f 57/150/4 63/135/4 66/136/4 60/151/4
f 81/189/2 102/190/2 125/191/2 126/192/2
f 52/157/6 70/129/6 68/130/6 50/158/6
f 51/159/5 69/127/5 67/128/5 49/160/5
f 56/164/4 49/163/4 67/126/4 62/125/4
f 55/168/1 50/167/1 68/124/1 61/123/1
f 58/170/1 64/121/1 65/122/1 59/171/1
f 71/193/1 53/194/1 120/195/1 119/196/1
f 48/197/5 88/198/5 91/199/5 66/200/5
f 111/201/3 72/202/3 139/203/3 150/204/3
f 18/205/6 81/206/6 89/207/6 53/208/6
f 35/209/3 85/210/3 135/211/3 134/212/3
f 71/213/6 92/214/6 87/215/6 41/216/6
f 86/217/3 33/218/3 116/219/3 115/220/3
f 22/221/5 83/222/5 85/223/5 35/224/5
f 1/225/2 77/226/2 83/227/2 22/228/2
f 99/229/3 78/81/3 84/84/3 104/230/3
f 60/231/5 90/232/5 84/233/5 21/234/5
f 101/235/2 80/65/2 82/68/2 103/236/2
f 7/237/3 79/238/3 81/239/3 18/240/3
f 33/241/6 86/242/6 82/243/6 19/244/6
f 5/46/6 80/245/6 76/246/6 15/47/6
f 100/247/6 79/41/6 75/44/6 97/248/6
f 3/26/5 78/249/5 74/250/5 9/27/5
f 94/251/5 77/29/5 73/32/5 93/252/5
f 15/253/3 76/254/3 73/255/3 10/256/3
f 9/257/2 74/258/2 75/259/2 14/260/2
f 2/34/5 94/251/5 93/252/5 11/35/5
f 8/50/6 100/247/6 97/248/6 13/51/6
f 6/261/2 101/235/2 103/236/2 20/262/2
f 4/263/3 99/229/3 104/230/3 24/264/3
f 102/265/4 109/266/4 131/267/4 125/268/4
f 108/269/4 111/270/4 150/271/4 148/272/4
f 54/273/2 110/274/2 149/275/2 140/276/2
f 65/277/3 112/278/3 132/279/3 123/280/3
f 83/281/3 95/282/3 152/283/3 151/284/3
f 33/285/1 41/286/1 117/287/1 116/288/1
f 41/289/2 87/290/2 118/291/2 117/292/2
f 85/293/1 83/294/1 151/295/1 135/296/1
f 77/226/2 94/85/2 95/88/2 83/227/2
f 95/297/4 105/298/4 147/299/4 152/300/4
f 79/238/3 100/61/3 102/64/3 81/239/3
f 109/301/2 59/302/2 122/303/2 131/304/2
f 80/245/6 101/53/6 98/56/6 76/246/6
f 78/249/5 99/37/5 96/40/5 74/250/5
f 76/254/3 98/13/3 93/16/3 73/255/3
f 74/258/2 96/5/2 97/8/2 75/259/2
f 130/305/6 113/306/6 114/307/6 129/308/6
f 131/309/6 122/310/6 123/311/6 132/312/6
f 120/313/6 121/314/6 124/315/6 119/316/6
f 117/317/6 118/318/6 115/319/6 116/320/6
f 121/314/6 131/309/6 132/312/6 124/315/6
f 126/321/6 125/322/6 131/309/6 121/314/6
f 124/315/6 132/312/6 130/305/6 118/318/6
f 118/318/6 130/305/6 129/308/6 115/319/6
f 115/319/6 129/308/6 127/323/6 128/324/6
f 106/325/4 103/326/4 127/327/4 129/328/4
f 34/329/3 106/330/3 129/331/3 114/332/3
f 92/333/3 71/334/3 119/335/3 124/336/3
f 103/337/3 82/338/3 128/339/3 127/340/3
f 47/341/4 34/342/4 114/343/4 113/344/4
f 53/345/2 89/346/2 121/347/2 120/348/2
f 107/349/2 47/350/2 113/351/2 130/352/2
f 59/353/4 65/354/4 123/355/4 122/356/4
f 112/357/4 107/358/4 130/359/4 132/360/4
f 87/361/1 92/362/1 124/363/1 118/364/1
f 82/365/1 86/366/1 115/367/1 128/368/1
f 147/369/5 136/370/5 137/371/5 148/372/5
f 150/373/5 139/374/5 140/375/5 149/376/5
f 143/377/5 144/378/5 141/379/5 142/380/5
f 134/381/5 135/382/5 138/383/5 133/384/5
f 138/383/5 148/372/5 150/373/5 144/378/5
f 144/378/5 150/373/5 149/376/5 141/379/5
f 135/382/5 147/369/5 148/372/5 138/383/5
f 151/385/5 152/386/5 147/369/5 135/382/5
f 141/379/5 149/376/5 145/387/5 146/388/5
f 110/389/4 104/390/4 145/391/4 149/392/4
f 66/393/3 91/394/3 144/395/3 143/396/3
f 36/397/4 42/398/4 137/399/4 136/400/4
f 105/401/3 36/402/3 136/403/3 147/404/3
f 84/405/1 90/406/1 141/407/1 146/408/1
f 90/409/2 60/410/2 142/411/2 141/412/2
f 72/413/4 54/414/4 140/415/4 139/416/4
f 48/417/1 35/418/1 134/419/1 133/420/1
f 42/421/2 108/422/2 148/423/2 137/424/2
f 60/425/1 66/426/1 143/427/1 142/428/1
f 104/429/2 84/430/2 146/431/2 145/432/2
