# Blender v3.0.0 OBJ File: 'radio.blend'
# www.blender.org
mtllib radio.mtl
o Cube
v -1.000000 0.228923 2.894145
v -1.000000 2.228923 2.894145
v -1.000000 0.228923 -1.000000
v -1.000000 2.228923 -1.000000
v 1.000000 0.337876 2.785192
v 1.000000 2.119970 2.785192
v 1.000000 0.337876 -0.891047
v 1.000000 2.119970 -0.891047
v 1.000000 2.228923 -1.000000
v 1.000000 0.228923 -1.000000
v 1.000000 0.228923 2.894145
v 1.000000 2.228923 2.894145
v 0.898786 2.119970 -0.891047
v 0.898786 0.337876 -0.891047
v 0.898786 0.337876 2.785192
v 0.898786 2.119970 2.785192
v 0.703757 0.228923 -1.000000
v 0.703757 2.228923 -1.000000
v 0.703757 0.228923 2.894145
v 0.703757 2.228923 2.894145
v -0.701413 0.228923 -1.000000
v -0.701413 2.228923 2.894145
v -0.701413 2.228923 -1.000000
v -0.701413 0.228923 2.894145
v -1.000000 0.228923 2.536721
v -1.000000 2.228923 2.536721
v 1.000000 0.228923 2.536721
v 1.000000 2.228923 2.536721
v 1.000000 0.337876 2.447768
v 1.000000 2.119970 2.447768
v 0.898786 0.337876 2.447768
v 0.898786 2.119970 2.447768
v 0.703757 2.228923 2.536721
v 0.703757 0.228923 2.536721
v -0.701413 0.228923 2.536721
v -0.701413 2.228923 2.536721
v -1.000000 2.228923 -0.740430
v 1.000000 0.228923 -0.740430
v 1.000000 0.337876 -0.646002
v 0.898786 0.337876 -0.646002
v -1.000000 0.228923 -0.740430
v 1.000000 2.228923 -0.740430
v 1.000000 2.119970 -0.646002
v 0.898786 2.119970 -0.646002
v 0.703757 2.228923 -0.740430
v 0.703757 0.228923 -0.740430
v -0.701413 0.228923 -0.740430
v -0.701413 2.228923 -0.740430
v -1.000000 0.058701 2.536721
v -1.000000 0.058701 2.894145
v -0.701413 0.058701 -1.000000
v -1.000000 0.058701 -1.000000
v 1.000000 0.058701 -0.740430
v 1.000000 0.058701 -1.000000
v 0.703757 0.058701 2.894145
v 1.000000 0.058701 2.894145
v 0.703757 0.058701 -1.000000
v 0.703757 0.058701 2.536721
v -0.701413 0.058701 2.894145
v -0.701413 0.058701 2.536721
v 1.000000 0.058701 2.536721
v -1.000000 0.058701 -0.740430
v 0.703757 0.058701 -0.740430
v -0.701413 0.058701 -0.740430
v 0.907419 1.245022 -0.400000
v 1.129219 1.245022 -0.400000
v 0.907419 1.045022 -0.346410
v 1.129219 1.045022 -0.346410
v 0.907418 0.898612 -0.200000
v 1.129219 0.898611 -0.200000
v 0.907418 0.845022 0.000000
v 1.129219 0.845022 0.000000
v 0.907418 0.898612 0.200000
v 1.129219 0.898612 0.200000
v 0.907419 1.045022 0.346410
v 1.129219 1.045022 0.346410
v 0.907419 1.245022 0.400000
v 1.129219 1.245022 0.400000
v 0.907419 1.445022 0.346410
v 1.129219 1.445022 0.346410
v 0.907419 1.591432 0.200000
v 1.129219 1.591432 0.200000
v 0.907419 1.645022 0.000000
v 1.129219 1.645022 0.000000
v 0.907419 1.591432 -0.200000
v 1.129219 1.591432 -0.200000
v 0.907419 1.445022 -0.346410
v 1.129219 1.445022 -0.346410
v 0.902666 1.245022 0.836070
v 0.949598 1.245022 0.836070
v 0.902666 0.830171 0.947230
v 0.949598 0.830171 0.947230
v 0.902666 0.526479 1.250921
v 0.949598 0.526479 1.250921
v 0.902666 0.415320 1.665773
v 0.949598 0.415320 1.665773
v 0.902666 0.526479 2.080624
v 0.949598 0.526479 2.080624
v 0.902666 0.830171 2.384315
v 0.949598 0.830171 2.384315
v 0.902666 1.245022 2.495475
v 0.949598 1.245022 2.495475
v 0.902666 1.659873 2.384315
v 0.949598 1.659873 2.384315
v 0.902666 1.963565 2.080624
v 0.949598 1.963565 2.080624
v 0.902666 2.074724 1.665773
v 0.949598 2.074724 1.665773
v 0.902666 1.963565 1.250922
v 0.949598 1.963565 1.250922
v 0.902666 1.659873 0.947230
v 0.949598 1.659873 0.947230
vt 0.533410 0.034759
vt 0.280346 0.034759
vt 0.280346 0.001915
vt 0.533410 0.001915
vt 0.525613 0.520016
vt 0.525613 0.773079
vt 0.488129 0.773079
vt 0.488129 0.520016
vt 0.845114 0.205126
vt 0.845114 0.430618
vt 0.832307 0.430618
vt 0.832307 0.205126
vt 0.782802 0.520016
vt 0.782802 0.773079
vt 0.745022 0.773079
vt 0.745022 0.520016
vt 0.950549 0.143572
vt 0.950549 0.110728
vt 0.972087 0.110728
vt 0.972087 0.143572
vt 0.217198 0.945985
vt 0.254978 0.945985
vt 0.254978 0.991210
vt 0.217197 0.991210
vt 0.015701 0.480862
vt 0.241192 0.480862
vt 0.254978 0.494648
vt 0.001915 0.494648
vt 0.241192 0.058396
vt 0.241192 0.015701
vt 0.254978 0.001915
vt 0.254978 0.047140
vt 0.015701 0.449856
vt 0.001915 0.461804
vt 0.015701 0.015701
vt 0.001915 0.001915
vt 0.258808 0.920943
vt 0.484299 0.920943
vt 0.484299 0.963638
vt 0.258808 0.963638
vt 0.815671 0.430618
vt 0.815671 0.205126
vt 0.828478 0.205126
vt 0.828478 0.430618
vt 0.933913 0.032921
vt 0.933913 0.001915
vt 0.946720 0.001915
vt 0.946720 0.032921
vt 0.930083 0.424381
vt 0.930083 0.467076
vt 0.917277 0.467076
vt 0.917277 0.424381
vt 0.001915 0.945985
vt 0.039399 0.945985
vt 0.039399 0.991210
vt 0.001915 0.991210
vt 0.596559 0.449422
vt 0.774357 0.449422
vt 0.774357 0.494648
vt 0.596559 0.494648
vt 0.998085 0.520016
vt 0.998085 0.773079
vt 0.960601 0.773079
vt 0.960601 0.520016
vt 0.703411 0.520016
vt 0.703411 0.773079
vt 0.741192 0.520016
vt 0.741192 0.773079
vt 0.901413 0.905058
vt 0.901413 0.859833
vt 0.922952 0.859833
vt 0.922952 0.905058
vt 0.039399 0.531321
vt 0.217198 0.531321
vt 0.558778 0.034759
vt 0.596559 0.034759
vt 0.558778 0.449422
vt 0.774357 0.034759
vt 0.001915 0.531321
vt 0.930083 0.032921
vt 0.917277 0.032921
vt 0.933913 0.467076
vt 0.933913 0.424381
vt 0.946719 0.424381
vt 0.946719 0.467076
vt 0.258808 0.529483
vt 0.484299 0.529483
vt 0.015701 0.058396
vt 0.001915 0.047140
vt 0.241192 0.449856
vt 0.254978 0.461804
vt 0.254978 0.531321
vt 0.811841 0.034759
vt 0.811841 0.449422
vt 0.533410 0.494648
vt 0.280346 0.494648
vt 0.280346 0.449422
vt 0.533410 0.449422
vt 0.950549 0.180245
vt 0.950549 0.147401
vt 0.972088 0.147401
vt 0.972088 0.180245
vt 0.217198 0.498477
vt 0.254978 0.498477
vt 0.258808 0.498477
vt 0.484299 0.498477
vt 0.930083 0.001915
vt 0.917277 0.001915
vt 0.001915 0.498477
vt 0.039399 0.498477
vt 0.596559 0.001915
vt 0.774357 0.001915
vt 0.960601 0.498477
vt 0.998085 0.498477
vt 0.857281 0.449422
vt 0.894765 0.449422
vt 0.894765 0.494648
vt 0.857281 0.494648
vt 0.815671 0.449422
vt 0.853452 0.449422
vt 0.853452 0.494648
vt 0.815671 0.494648
vt 0.934257 0.818519
vt 0.934257 0.856003
vt 0.901413 0.856003
vt 0.901413 0.818519
vt 0.934257 0.776909
vt 0.934257 0.814689
vt 0.901413 0.814689
vt 0.901413 0.776909
vt 0.703411 0.498477
vt 0.741192 0.498477
vt 0.926781 0.905058
vt 0.926781 0.859833
vt 0.948320 0.859833
vt 0.948320 0.905058
vt 0.926781 0.946668
vt 0.926781 0.908887
vt 0.948320 0.908887
vt 0.948320 0.946668
vt 0.554949 0.001915
vt 0.554949 0.034759
vt 0.901413 0.946668
vt 0.901413 0.908887
vt 0.922952 0.908887
vt 0.922952 0.946668
vt 0.488129 0.498477
vt 0.525613 0.498477
vt 0.938087 0.856003
vt 0.938087 0.818519
vt 0.959625 0.818519
vt 0.959625 0.856003
vt 0.938087 0.814393
vt 0.938087 0.776909
vt 0.959625 0.776909
vt 0.959625 0.814393
vt 0.276517 0.461804
vt 0.276517 0.494648
vt 0.554949 0.449422
vt 0.554949 0.494648
vt 0.276517 0.001915
vt 0.276517 0.047140
vt 0.745022 0.498477
vt 0.782802 0.498477
vt 0.848943 0.321926
vt 0.877008 0.321926
vt 0.877008 0.347232
vt 0.848943 0.347232
vt 0.877008 0.365757
vt 0.848943 0.365757
vt 0.848943 0.369587
vt 0.877008 0.369587
vt 0.877008 0.394893
vt 0.848943 0.394893
vt 0.877008 0.420200
vt 0.848943 0.420200
vt 0.877008 0.438725
vt 0.848943 0.438725
vt 0.908902 0.441405
vt 0.880837 0.441405
vt 0.880837 0.416099
vt 0.908902 0.416099
vt 0.880837 0.390792
vt 0.908902 0.390792
vt 0.877008 0.292790
vt 0.848943 0.292790
vt 0.848943 0.274264
vt 0.877008 0.274264
vt 0.848943 0.248958
vt 0.877008 0.248958
vt 0.848943 0.223652
vt 0.877008 0.223652
vt 0.851459 0.103520
vt 0.877658 0.103520
vt 0.900348 0.116620
vt 0.913447 0.139309
vt 0.913447 0.165508
vt 0.900348 0.188197
vt 0.877658 0.201297
vt 0.851459 0.201297
vt 0.828770 0.188197
vt 0.815671 0.165508
vt 0.815671 0.139309
vt 0.828770 0.116620
vt 0.848943 0.205126
vt 0.877008 0.205126
vt 0.848943 0.296619
vt 0.877008 0.296619
vt 0.877658 0.099691
vt 0.851459 0.099691
vt 0.828770 0.086591
vt 0.815671 0.063902
vt 0.815671 0.037703
vt 0.828770 0.015014
vt 0.851459 0.001915
vt 0.877658 0.001915
vt 0.900348 0.015014
vt 0.913447 0.037703
vt 0.913447 0.063902
vt 0.900348 0.086591
vt 0.906312 0.257618
vt 0.900373 0.257618
vt 0.900373 0.205126
vt 0.906312 0.205126
vt 0.880838 0.205126
vt 0.886776 0.205126
vt 0.886776 0.243553
vt 0.880837 0.243553
vt 0.886776 0.296045
vt 0.880837 0.296045
vt 0.886776 0.348536
vt 0.880837 0.348536
vt 0.886776 0.386963
vt 0.880837 0.386963
vt 0.956487 0.106898
vt 0.950549 0.106898
vt 0.950549 0.054407
vt 0.956487 0.054407
vt 0.950549 0.001915
vt 0.956487 0.001915
vt 0.896544 0.386963
vt 0.890605 0.386963
vt 0.890605 0.348536
vt 0.896544 0.348536
vt 0.890605 0.296045
vt 0.896544 0.296045
vt 0.890605 0.243553
vt 0.896544 0.243553
vt 0.823349 0.776909
vt 0.870412 0.804080
vt 0.897584 0.851143
vt 0.897584 0.905487
vt 0.870412 0.952550
vt 0.823349 0.979722
vt 0.769006 0.979722
vt 0.721943 0.952550
vt 0.694771 0.905487
vt 0.694771 0.851143
vt 0.721943 0.804080
vt 0.769006 0.776909
vt 0.890605 0.205126
vt 0.896544 0.205126
vt 0.906312 0.310110
vt 0.900373 0.310110
vt 0.616707 0.979722
vt 0.562363 0.979722
vt 0.515300 0.952550
vt 0.488129 0.905487
vt 0.488129 0.851143
vt 0.515300 0.804080
vt 0.562363 0.776909
vt 0.616707 0.776909
vt 0.663770 0.804080
vt 0.690942 0.851143
vt 0.690942 0.905487
vt 0.663770 0.952550
vn -1.0000 0.0000 0.0000
vn 0.0000 0.0000 -1.0000
vn 0.0000 0.0000 1.0000
vn 1.0000 0.0000 0.0000
vn 0.0000 1.0000 0.0000
vn 0.0000 -1.0000 0.0000
vn -0.0000 -0.2588 -0.9659
vn -0.0000 -0.7071 -0.7071
vn -0.0000 -0.9659 -0.2588
vn -0.0000 -0.9659 0.2588
vn 0.0000 -0.7071 0.7071
vn 0.0000 -0.2588 0.9659
vn 0.0000 0.2588 0.9659
vn 0.0000 0.7071 0.7071
vn 0.0000 0.9659 0.2588
vn 0.0000 0.9659 -0.2588
vn 0.0000 0.7071 -0.7071
vn 0.0000 0.2588 -0.9659
usemtl None
s off
f 41/1/1 37/2/1 4/3/1 3/4/1
f 17/5/2 18/6/2 9/7/2 10/8/2
f 7/9/3 8/10/3 13/11/3 14/12/3
f 24/13/3 22/14/3 2/15/3 1/16/3
f 21/17/4 47/18/4 64/19/4 51/20/4
f 36/21/5 26/22/5 2/23/5 22/24/5
f 8/25/4 7/26/4 10/27/4 9/28/4
f 29/29/4 5/30/4 11/31/4 27/32/4
f 43/33/4 8/25/4 9/28/4 42/34/4
f 5/30/4 6/35/4 12/36/4 11/31/4
f 31/37/4 32/38/4 16/39/4 15/40/4
f 6/41/2 5/42/2 15/43/2 16/44/2
f 39/45/5 7/46/5 14/47/5 40/48/5
f 30/49/6 6/50/6 16/51/6 32/52/6
f 28/53/5 33/54/5 20/55/5 12/56/5
f 35/57/6 34/58/6 19/59/6 24/60/6
f 11/61/3 12/62/3 20/63/3 19/64/3
f 21/65/2 23/66/2 18/6/2 17/5/2
f 3/67/2 4/68/2 23/66/2 21/65/2
f 19/69/1 34/70/1 58/71/1 55/72/1
f 33/54/5 36/21/5 22/24/5 20/55/5
f 19/64/3 20/63/3 22/14/3 24/13/3
f 45/73/5 48/74/5 36/21/5 33/54/5
f 41/75/6 47/76/6 35/57/6 25/77/6
f 47/76/6 46/78/6 34/58/6 35/57/6
f 42/79/5 45/73/5 33/54/5 28/53/5
f 43/80/6 30/49/6 32/52/6 44/81/6
f 5/82/5 29/83/5 31/84/5 15/85/5
f 40/86/4 44/87/4 32/38/4 31/37/4
f 6/35/4 30/88/4 28/89/4 12/36/4
f 39/90/4 29/29/4 27/32/4 38/91/4
f 48/74/5 37/92/5 26/22/5 36/21/5
f 46/78/6 38/93/6 27/94/6 34/58/6
f 1/95/1 2/96/1 26/97/1 25/98/1
f 46/99/1 17/100/1 57/101/1 63/102/1
f 23/103/5 4/104/5 37/92/5 48/74/5
f 7/26/4 39/90/4 38/91/4 10/27/4
f 14/105/4 13/106/4 44/87/4 40/86/4
f 8/107/6 43/80/6 44/81/6 13/108/6
f 9/109/5 18/110/5 45/73/5 42/79/5
f 21/111/6 17/112/6 46/78/6 47/76/6
f 11/61/3 19/64/3 55/113/3 56/114/3
f 18/110/5 23/103/5 48/74/5 45/73/5
f 29/83/5 39/45/5 40/48/5 31/84/5
f 30/88/4 43/33/4 42/34/4 28/89/4
f 25/98/1 26/97/1 37/2/1 41/1/1
f 58/115/6 61/116/6 56/117/6 55/118/6
f 49/119/6 60/120/6 59/121/6 50/122/6
f 57/123/6 54/124/6 53/125/6 63/126/6
f 52/127/6 51/128/6 64/129/6 62/130/6
f 3/67/2 21/65/2 51/131/2 52/132/2
f 35/133/4 24/134/4 59/135/4 60/136/4
f 25/137/2 35/138/2 60/139/2 49/140/2
f 41/1/1 3/4/1 52/141/1 62/142/1
f 47/143/3 41/144/3 62/145/3 64/146/3
f 17/5/2 10/8/2 54/147/2 57/148/2
f 38/149/3 46/150/3 63/151/3 53/152/3
f 34/153/2 27/154/2 61/155/2 58/156/2
f 10/27/4 38/91/4 53/157/4 54/158/4
f 1/95/1 25/98/1 49/159/1 50/160/1
f 27/32/4 11/31/4 56/161/4 61/162/4
f 24/13/3 1/16/3 50/163/3 59/164/3
f 65/165/7 66/166/7 68/167/7 67/168/7
f 67/168/8 68/167/8 70/169/8 69/170/8
f 69/171/9 70/172/9 72/173/9 71/174/9
f 71/174/10 72/173/10 74/175/10 73/176/10
f 73/176/11 74/175/11 76/177/11 75/178/11
f 75/179/12 76/180/12 78/181/12 77/182/12
f 77/182/13 78/181/13 80/183/13 79/184/13
f 79/185/14 80/186/14 82/187/14 81/188/14
f 81/188/15 82/187/15 84/189/15 83/190/15
f 83/190/16 84/189/16 86/191/16 85/192/16
f 68/193/4 66/194/4 88/195/4 86/196/4 84/197/4 82/198/4 80/199/4 78/200/4 76/201/4 74/202/4 72/203/4 70/204/4
f 85/192/17 86/191/17 88/205/17 87/206/17
f 87/207/18 88/208/18 66/166/18 65/165/18
f 65/209/1 67/210/1 69/211/1 71/212/1 73/213/1 75/214/1 77/215/1 79/216/1 81/217/1 83/218/1 85/219/1 87/220/1
f 89/221/7 90/222/7 92/223/7 91/224/7
f 91/225/8 92/226/8 94/227/8 93/228/8
f 93/228/9 94/227/9 96/229/9 95/230/9
f 95/230/10 96/229/10 98/231/10 97/232/10
f 97/232/11 98/231/11 100/233/11 99/234/11
f 99/235/12 100/236/12 102/237/12 101/238/12
f 101/238/13 102/237/13 104/239/13 103/240/13
f 103/241/14 104/242/14 106/243/14 105/244/14
f 105/244/15 106/243/15 108/245/15 107/246/15
f 107/246/16 108/245/16 110/247/16 109/248/16
f 92/249/4 90/250/4 112/251/4 110/252/4 108/253/4 106/254/4 104/255/4 102/256/4 100/257/4 98/258/4 96/259/4 94/260/4
f 109/248/17 110/247/17 112/261/17 111/262/17
f 111/263/18 112/264/18 90/222/18 89/221/18
f 89/265/1 91/266/1 93/267/1 95/268/1 97/269/1 99/270/1 101/271/1 103/272/1 105/273/1 107/274/1 109/275/1 111/276/1
