# Blender v3.0.0 OBJ File: 'rug.blend'
# www.blender.org
mtllib rug.mtl
o Cylinder
v -0.000000 0.076702 0.000000
v 0.704013 0.161898 -1.219387
v 0.000000 0.161898 -1.408027
v 1.219387 0.161898 -0.704013
v 1.408027 0.161898 0.000000
v 1.219387 0.161898 0.704013
v 0.704013 0.161898 1.219387
v -0.000000 0.161898 1.408027
v -0.704013 0.161898 1.219387
v -1.219387 0.161898 0.704013
v -1.408027 0.161898 -0.000000
v -1.219387 0.161898 -0.704013
v -0.704014 0.161898 -1.219387
v 0.000000 0.076702 -1.489724
v 0.744862 0.076702 -1.290139
v 1.290139 0.076702 -0.744862
v 1.489724 0.076702 0.000000
v 1.290139 0.076702 0.744862
v 0.744862 0.076702 1.290139
v -0.000000 0.076702 1.489724
v -0.744862 0.076702 1.290139
v -1.290139 0.076702 0.744862
v -1.489724 0.076702 -0.000000
v -1.290139 0.076702 -0.744862
v -0.744862 0.076702 -1.290139
v 0.744862 0.161898 -1.290139
v 0.000000 0.161898 -1.489724
v 1.290139 0.161898 -0.744862
v 1.489724 0.161898 0.000000
v 1.290139 0.161898 0.744862
v 0.744862 0.161898 1.290139
v -0.000000 0.161898 1.489724
v -0.744862 0.161898 1.290139
v -1.290139 0.161898 0.744862
v -1.489724 0.161898 -0.000000
v -1.290139 0.161898 -0.744862
v -0.744862 0.161898 -1.290139
v 0.000000 0.143928 -1.408027
v 0.000000 0.143928 0.000000
v 0.704013 0.143928 -1.219387
v 1.219387 0.143928 -0.704013
v 1.408027 0.143928 0.000000
v 1.219387 0.143928 0.704013
v 0.704013 0.143928 1.219387
v -0.000000 0.143928 1.408027
v -0.704013 0.143928 1.219387
v -1.219387 0.143928 0.704013
v -1.408027 0.143928 -0.000000
v -1.219387 0.143928 -0.704013
v -0.704014 0.143928 -1.219387
vt 0.548776 0.722679
vt 0.534028 0.722679
vt 0.534028 0.589190
vt 0.548776 0.589190
vt 0.534028 0.473585
vt 0.548776 0.473585
vt 0.532215 0.905028
vt 0.517467 0.905028
vt 0.517467 0.838284
vt 0.532215 0.838284
vt 0.517467 0.722679
vt 0.532215 0.722679
vt 0.517467 0.589190
vt 0.532215 0.589190
vt 0.517467 0.473585
vt 0.532215 0.473585
vt 0.515654 0.971773
vt 0.500906 0.971773
vt 0.500906 0.905028
vt 0.515654 0.905028
vt 0.500906 0.789424
vt 0.515654 0.789424
vt 0.500906 0.655935
vt 0.515654 0.655935
vt 0.500906 0.540330
vt 0.515654 0.540330
vt 0.500906 0.473585
vt 0.515654 0.473585
vt 0.548776 0.838284
vt 0.534028 0.838284
vt 0.550588 0.645935
vt 0.550588 0.536670
vt 0.553699 0.536670
vt 0.553699 0.645935
vt 0.555512 0.881368
vt 0.555512 0.772103
vt 0.558622 0.772103
vt 0.558622 0.881368
vt 0.550588 0.944452
vt 0.550588 0.881368
vt 0.553699 0.881368
vt 0.553699 0.944452
vt 0.560435 0.818284
vt 0.560435 0.709019
vt 0.563546 0.709019
vt 0.563546 0.818284
vt 0.550588 0.473585
vt 0.553699 0.473585
vt 0.555512 0.645935
vt 0.558622 0.645935
vt 0.550588 0.772103
vt 0.553699 0.772103
vt 0.560435 0.582850
vt 0.563546 0.582850
vt 0.555512 0.536670
vt 0.558622 0.536670
vt 0.560435 0.473585
vt 0.563546 0.473585
vt 0.555512 0.473585
vt 0.558622 0.473585
vt 0.250000 0.750000
vt 0.067651 0.932349
vt 0.000906 0.816744
vt 0.000906 0.683256
vt 0.067651 0.567651
vt 0.183256 0.500906
vt 0.316744 0.500906
vt 0.432349 0.567651
vt 0.499094 0.683256
vt 0.499094 0.816744
vt 0.432349 0.932349
vt 0.316744 0.999094
vt 0.183256 0.999094
vt 0.077651 0.077651
vt 0.014567 0.186916
vt 0.000906 0.183256
vt 0.067651 0.067651
vt 0.014567 0.313084
vt 0.000906 0.316744
vt 0.077651 0.422349
vt 0.067651 0.432349
vt 0.186916 0.485433
vt 0.183256 0.499094
vt 0.313084 0.485433
vt 0.316744 0.499094
vt 0.422349 0.422349
vt 0.432349 0.432349
vt 0.485433 0.313084
vt 0.499094 0.316744
vt 0.485433 0.186916
vt 0.499094 0.183256
vt 0.422349 0.077651
vt 0.432349 0.067651
vt 0.313084 0.014567
vt 0.316744 0.000906
vt 0.186916 0.014567
vt 0.183256 0.000906
vt 0.736340 0.236340
vt 0.500906 0.299424
vt 0.500906 0.173255
vt 0.563990 0.408689
vt 0.673255 0.471773
vt 0.799424 0.471773
vt 0.908689 0.408689
vt 0.971773 0.299424
vt 0.971773 0.173255
vt 0.908689 0.063990
vt 0.799424 0.000906
vt 0.673255 0.000906
vt 0.563990 0.063990
vn 0.2588 0.0000 -0.9659
vn 0.7071 0.0000 -0.7071
vn 0.9659 0.0000 -0.2588
vn 0.9659 0.0000 0.2588
vn 0.7071 0.0000 0.7071
vn 0.2588 0.0000 0.9659
vn -0.2588 0.0000 0.9659
vn -0.7071 0.0000 0.7071
vn -0.9659 0.0000 0.2588
vn -0.9659 0.0000 -0.2588
vn -0.7071 0.0000 -0.7071
vn -0.2588 0.0000 -0.9659
vn 0.0000 -1.0000 0.0000
vn 0.0000 1.0000 0.0000
usemtl None
s off
f 14/1/1 27/2/1 26/3/1 15/4/1
f 15/4/2 26/3/2 28/5/2 16/6/2
f 16/7/3 28/8/3 29/9/3 17/10/3
f 17/10/4 29/9/4 30/11/4 18/12/4
f 18/12/5 30/11/5 31/13/5 19/14/5
f 19/14/6 31/13/6 32/15/6 20/16/6
f 20/17/7 32/18/7 33/19/7 21/20/7
f 21/20/8 33/19/8 34/21/8 22/22/8
f 22/22/9 34/21/9 35/23/9 23/24/9
f 23/24/10 35/23/10 36/25/10 24/26/10
f 24/26/11 36/25/11 37/27/11 25/28/11
f 25/29/12 37/30/12 27/2/12 14/1/12
f 4/31/8 2/32/8 40/33/8 41/34/8
f 3/35/6 13/36/6 50/37/6 38/38/6
f 7/39/11 6/40/11 43/41/11 44/42/11
f 10/43/2 9/44/2 46/45/2 47/46/2
f 2/32/7 3/47/7 38/48/7 40/33/7
f 13/36/5 12/49/5 49/50/5 50/37/5
f 6/40/10 5/51/10 42/52/10 43/41/10
f 9/44/1 8/53/1 45/54/1 46/45/1
f 12/49/4 11/55/4 48/56/4 49/50/4
f 5/51/9 4/31/9 41/34/9 42/52/9
f 8/53/12 7/57/12 44/58/12 45/54/12
f 11/55/3 10/59/3 47/60/3 48/56/3
f 1/61/13 14/62/13 15/63/13
f 1/61/13 15/63/13 16/64/13
f 1/61/13 16/64/13 17/65/13
f 1/61/13 17/65/13 18/66/13
f 1/61/13 18/66/13 19/67/13
f 1/61/13 19/67/13 20/68/13
f 1/61/13 20/68/13 21/69/13
f 1/61/13 21/69/13 22/70/13
f 1/61/13 22/70/13 23/71/13
f 1/61/13 23/71/13 24/72/13
f 1/61/13 24/72/13 25/73/13
f 1/61/13 25/73/13 14/62/13
f 3/74/14 2/75/14 26/76/14 27/77/14
f 2/75/14 4/78/14 28/79/14 26/76/14
f 4/78/14 5/80/14 29/81/14 28/79/14
f 5/80/14 6/82/14 30/83/14 29/81/14
f 6/82/14 7/84/14 31/85/14 30/83/14
f 7/84/14 8/86/14 32/87/14 31/85/14
f 8/86/14 9/88/14 33/89/14 32/87/14
f 9/88/14 10/90/14 34/91/14 33/89/14
f 10/90/14 11/92/14 35/93/14 34/91/14
f 11/92/14 12/94/14 36/95/14 35/93/14
f 12/94/14 13/96/14 37/97/14 36/95/14
f 13/96/14 3/74/14 27/77/14 37/97/14
f 39/98/14 40/99/14 38/100/14
f 39/98/14 41/101/14 40/99/14
f 39/98/14 42/102/14 41/101/14
f 39/98/14 43/103/14 42/102/14
f 39/98/14 44/104/14 43/103/14
f 39/98/14 45/105/14 44/104/14
f 39/98/14 46/106/14 45/105/14
f 39/98/14 47/107/14 46/106/14
f 39/98/14 48/108/14 47/107/14
f 39/98/14 49/109/14 48/108/14
f 39/98/14 50/110/14 49/109/14
f 39/98/14 38/100/14 50/110/14
