# Blender v3.0.0 OBJ File: 'smarttv.blend'
# www.blender.org
mtllib smarttv.mtl
o Cube
v -0.863676 1.052776 1.986539
v -0.863676 -0.950631 1.986539
v -1.000000 1.102145 2.035908
v -1.000000 -1.000000 2.035908
v -1.000000 -1.000000 0.000000
v -0.863676 1.102145 0.000000
v -1.000000 1.102145 0.000000
v -0.863676 -1.000000 0.000000
v -0.863676 1.102145 2.035908
v -0.863676 -1.000000 2.035908
v -0.916596 1.052776 0.000000
v -0.863676 1.052776 0.000000
v -0.863676 -0.950631 0.000000
v -0.916596 -0.950631 0.000000
v -0.916596 1.052776 1.986539
v -0.916596 -0.950631 1.986539
v -0.866418 -1.153918 1.221267
v -0.866418 -1.001335 1.221267
v -0.772835 -1.153918 1.143573
v -0.772835 -1.001335 1.143573
v -1.124371 -1.153918 0.521621
v -1.124371 -1.001335 0.521621
v -1.030787 -1.153918 0.443926
v -1.030787 -1.001335 0.443926
v -0.866418 -1.153918 -1.221267
v -0.866418 -1.001335 -1.221267
v -0.772835 -1.153918 -1.143573
v -0.772835 -1.001335 -1.143573
v -1.124371 -1.153918 -0.521621
v -1.124371 -1.001335 -0.521621
v -1.030787 -1.153918 -0.443926
v -1.030787 -1.001335 -0.443926
v -0.863676 1.052776 -1.986539
v -0.863676 -0.950631 -1.986539
v -1.000000 1.102145 -2.035908
v -1.000000 -1.000000 -2.035908
v -0.863676 1.102145 -2.035908
v -0.863676 -1.000000 -2.035908
v -0.916596 1.052776 -1.986539
v -0.916596 -0.950631 -1.986539
v -0.866418 -1.153918 -1.221267
v -0.866418 -1.001335 -1.221267
v -0.772835 -1.153918 -1.143573
v -0.772835 -1.001335 -1.143573
v -1.124371 -1.153918 -0.521621
v -1.124371 -1.001335 -0.521621
v -1.030787 -1.153918 -0.443926
v -1.030787 -1.001335 -0.443926
v -0.866418 -1.153918 1.221267
v -0.866418 -1.001335 1.221267
v -0.772835 -1.153918 1.143573
v -0.772835 -1.001335 1.143573
v -1.124371 -1.153918 0.521621
v -1.124371 -1.001335 0.521621
v -1.030787 -1.153918 0.443926
v -1.030787 -1.001335 0.443926
vt 0.504928 0.500000
vt 0.537353 0.500000
vt 0.537353 0.984245
vt 0.504928 0.984245
vt 0.504928 0.500000
vt 0.504928 1.000000
vt 0.472503 1.000000
vt 0.472503 0.500000
vt 0.537353 0.500000
vt 0.569778 0.500000
vt 0.569778 0.984245
vt 0.537353 0.984245
vt 0.727534 0.972503
vt 0.727534 0.500000
vt 0.740121 0.500000
vt 0.740121 0.972503
vt 0.968491 0.000000
vt 0.968491 0.500000
vt 0.484245 0.500000
vt 0.484246 0.000000
vt 0.011743 0.011743
vt 0.011743 0.488257
vt 0.000000 0.500000
vt 0.000000 0.000000
vt 0.484245 0.488257
vt 0.484245 0.500000
vt 0.484246 0.011743
vt 0.484246 0.000000
vt 0.472503 0.500000
vt 0.472503 0.976515
vt 0.000000 0.976515
vt 0.000000 0.500000
vt 0.714947 0.976515
vt 0.714947 0.500000
vt 0.727534 0.500000
vt 0.727534 0.976515
vt 0.752708 0.500000
vt 0.752708 0.972503
vt 0.740121 0.972503
vt 0.740121 0.500000
vt 0.714947 0.666412
vt 0.678655 0.666412
vt 0.678655 0.500000
vt 0.714947 0.500000
vt 0.664621 0.666412
vt 0.664621 0.702705
vt 0.642362 0.702705
vt 0.642362 0.666412
vt 0.807263 0.677363
vt 0.779986 0.687002
vt 0.779986 0.509639
vt 0.807263 0.500000
vt 0.752709 0.500000
vt 0.779986 0.509639
vt 0.779986 0.687002
vt 0.752709 0.677363
vt 0.606070 0.666413
vt 0.569778 0.666413
vt 0.569778 0.500000
vt 0.606070 0.500000
vt 0.619314 0.702705
vt 0.597055 0.702705
vt 0.597055 0.666412
vt 0.619314 0.666412
vt 0.678655 0.500000
vt 0.678655 0.666413
vt 0.642362 0.666413
vt 0.642362 0.500000
vt 0.664621 0.666412
vt 0.686880 0.666412
vt 0.686880 0.702705
vt 0.664621 0.702705
vt 0.807263 0.677363
vt 0.807263 0.500000
vt 0.834541 0.509639
vt 0.834541 0.687002
vt 0.597055 0.666412
vt 0.597055 0.843775
vt 0.569778 0.853414
vt 0.569778 0.676051
vt 0.642362 0.500000
vt 0.642362 0.666412
vt 0.606070 0.666412
vt 0.606070 0.500000
vt 0.619314 0.702705
vt 0.619314 0.666412
vt 0.641573 0.666412
vt 0.641573 0.702705
vt 0.504928 0.984245
vt 0.537353 0.984245
vt 0.504928 0.500000
vt 0.472503 0.500000
vt 0.472503 1.000000
vt 0.504928 1.000000
vt 0.537353 0.984245
vt 0.569778 0.984245
vt 0.727534 0.972503
vt 0.740121 0.972503
vt 0.968491 0.000000
vt 0.968491 0.500000
vt 0.011743 0.011743
vt 0.000000 0.000000
vt 0.000000 0.500000
vt 0.011743 0.488257
vt 0.000000 0.500000
vt 0.000000 0.976515
vt 0.714947 0.976515
vt 0.727534 0.976515
vt 0.727534 0.500000
vt 0.714947 0.500000
vt 0.740121 0.972503
vt 0.752708 0.972503
vt 0.714947 0.666412
vt 0.714947 0.500000
vt 0.678655 0.500000
vt 0.678655 0.666412
vt 0.664621 0.666412
vt 0.642362 0.666412
vt 0.642362 0.702705
vt 0.664621 0.702705
vt 0.807263 0.677363
vt 0.807263 0.500000
vt 0.779986 0.509639
vt 0.779986 0.687002
vt 0.752709 0.500000
vt 0.752709 0.677363
vt 0.779986 0.687002
vt 0.779986 0.509639
vt 0.606070 0.666413
vt 0.606070 0.500000
vt 0.569778 0.500000
vt 0.569778 0.666413
vt 0.619314 0.702705
vt 0.619314 0.666412
vt 0.597055 0.666412
vt 0.597055 0.702705
vt 0.678655 0.500000
vt 0.642362 0.500000
vt 0.642362 0.666413
vt 0.678655 0.666413
vt 0.664621 0.666412
vt 0.664621 0.702705
vt 0.686880 0.702705
vt 0.686880 0.666412
vt 0.807263 0.677363
vt 0.834541 0.687002
vt 0.834541 0.509639
vt 0.807263 0.500000
vt 0.597055 0.666412
vt 0.569778 0.676051
vt 0.569778 0.853414
vt 0.597055 0.843775
vt 0.642362 0.500000
vt 0.606070 0.500000
vt 0.606070 0.666412
vt 0.642362 0.666412
vt 0.619314 0.702705
vt 0.641573 0.702705
vt 0.641573 0.666412
vt 0.619314 0.666412
vn 0.0000 1.0000 0.0000
vn 0.0000 0.0000 1.0000
vn 0.0000 -1.0000 0.0000
vn -1.0000 0.0000 0.0000
vn 1.0000 0.0000 0.0000
vn 0.0000 0.0000 -1.0000
vn 0.9383 0.0000 -0.3459
vn 0.6388 0.0000 0.7694
vn -0.9383 0.0000 0.3459
vn -0.6388 0.0000 -0.7694
vn 0.9383 0.0000 0.3459
vn 0.6388 0.0000 -0.7694
vn -0.9383 0.0000 -0.3459
vn -0.6388 0.0000 0.7694
usemtl Material
s off
f 6/1/1 7/2/1 3/3/1 9/4/1
f 10/5/2 9/6/2 3/7/2 4/8/2
f 5/9/3 8/10/3 10/11/3 4/12/3
f 2/13/1 13/14/1 14/15/1 16/16/1
f 4/17/4 3/18/4 7/19/4 5/20/4
f 2/21/5 1/22/5 9/23/5 10/24/5
f 1/22/5 12/25/5 6/26/5 9/23/5
f 13/27/5 2/21/5 10/24/5 8/28/5
f 14/29/5 11/30/5 15/31/5 16/32/5
f 1/33/6 2/34/6 16/35/6 15/36/6
f 12/37/3 1/38/3 15/39/3 11/40/3
f 23/41/7 24/42/7 20/43/7 19/44/7
f 19/45/8 20/46/8 18/47/8 17/48/8
f 21/49/3 23/50/3 19/51/3 17/52/3
f 24/53/1 22/54/1 18/55/1 20/56/1
f 17/57/9 18/58/9 22/59/9 21/60/9
f 22/61/10 24/62/10 23/63/10 21/64/10
f 31/65/11 27/66/11 28/67/11 32/68/11
f 27/69/12 25/70/12 26/71/12 28/72/12
f 29/73/3 25/74/3 27/75/3 31/76/3
f 32/77/1 28/78/1 26/79/1 30/80/1
f 25/81/13 29/82/13 30/83/13 26/84/13
f 30/85/14 29/86/14 31/87/14 32/88/14
f 6/1/1 37/89/1 35/90/1 7/2/1
f 38/91/6 36/92/6 35/93/6 37/94/6
f 5/9/3 36/95/3 38/96/3 8/10/3
f 34/97/1 40/98/1 14/15/1 13/14/1
f 36/99/4 5/20/4 7/19/4 35/100/4
f 34/101/5 38/102/5 37/103/5 33/104/5
f 33/104/5 37/103/5 6/26/5 12/25/5
f 13/27/5 8/28/5 38/102/5 34/101/5
f 14/29/5 40/105/5 39/106/5 11/30/5
f 33/107/2 39/108/2 40/109/2 34/110/2
f 12/37/3 11/40/3 39/111/3 33/112/3
f 47/113/11 43/114/11 44/115/11 48/116/11
f 43/117/12 41/118/12 42/119/12 44/120/12
f 45/121/3 41/122/3 43/123/3 47/124/3
f 48/125/1 44/126/1 42/127/1 46/128/1
f 41/129/13 45/130/13 46/131/13 42/132/13
f 46/133/14 45/134/14 47/135/14 48/136/14
f 55/137/7 56/138/7 52/139/7 51/140/7
f 51/141/8 52/142/8 50/143/8 49/144/8
f 53/145/3 55/146/3 51/147/3 49/148/3
f 56/149/1 54/150/1 50/151/1 52/152/1
f 49/153/9 50/154/9 54/155/9 53/156/9
f 54/157/10 56/158/10 55/159/10 53/160/10
