# Blender v3.0.0 OBJ File: 'stone.blend'
# www.blender.org
mtllib stone.mtl
o Cube
v -0.854555 0.000000 2.136214
v -0.854555 2.000000 2.568432
v -1.564949 0.000000 -1.510477
v -1.564949 2.000000 -1.899525
v 1.265859 0.000000 0.726964
v 1.624008 2.000000 1.000000
v 1.210793 0.000000 -1.697394
v 1.579820 2.000000 -2.179385
v -2.632834 0.000000 0.001894
v -3.172380 2.000000 -0.261110
v 1.908751 0.000000 0.000000
v 2.444639 2.000000 0.000000
v 0.000000 0.000000 -2.034078
v 0.000000 2.000000 -2.499629
v 0.000000 0.000000 1.896911
v 0.000000 2.000000 2.351074
v 0.000000 6.880684 0.000000
v 0.000000 0.000000 0.000000
v 0.500000 2.000000 -2.737510
v 0.141851 0.000000 1.790142
v 0.500000 6.071488 0.000000
v 0.500000 0.000000 -2.091097
v 0.500000 2.000000 1.840699
v 0.500000 0.000000 0.000000
v -0.500000 0.000000 -1.975826
v -0.500000 2.000000 2.549027
v -0.500000 0.000000 0.000000
v -0.500000 2.000000 -2.499629
v -0.500000 0.000000 2.094863
v -0.500000 6.880684 0.000000
v -2.242822 0.000000 1.438262
v 2.444639 2.000000 0.500000
v -2.333373 2.000000 1.870479
v 1.954729 0.000000 0.277522
v 0.000000 6.880684 0.500000
v 0.000000 0.000000 0.500000
v 0.500000 6.071488 0.500000
v 0.500000 0.000000 0.500000
v -0.500000 0.000000 0.500000
v -0.500000 6.880684 0.500000
v -2.069780 2.000000 -1.205657
v 1.788823 0.000000 -0.820153
v -1.620784 0.000000 -0.942654
v 2.203828 2.000000 -0.986526
v 0.000000 0.000000 -0.500000
v 0.000000 6.071488 -0.500000
v 0.500000 6.071488 -0.500000
v 0.500000 0.000000 -0.500000
v -0.500000 0.000000 -0.500000
v -0.500000 6.071488 -0.500000
vt 0.517091 0.498470
vt 0.500246 0.336593
vt 0.558013 0.330757
vt 0.538418 0.489787
vt 0.418021 0.984491
vt 0.391445 0.823026
vt 0.457675 0.814944
vt 0.463583 0.979585
vt 0.032182 0.523878
vt 0.000942 0.364151
vt 0.070887 0.359468
vt 0.091256 0.519436
vt 0.245296 0.504349
vt 0.255004 0.342973
vt 0.282847 0.344322
vt 0.273404 0.505322
vt 0.226913 0.679756
vt 0.286914 0.580471
vt 0.279328 0.644863
vt 0.286914 0.766588
vt 0.240527 0.003314
vt 0.389561 0.363307
vt 0.608579 0.054525
vt 0.391445 0.339996
vt 0.596511 0.000942
vt 0.166387 0.629254
vt 0.212097 0.535078
vt 0.267794 0.569238
vt 0.196650 0.654505
vt 0.542247 0.984367
vt 0.560959 0.823977
vt 0.640122 0.835748
vt 0.606235 0.995407
vt 0.739353 0.559161
vt 0.735342 0.420767
vt 0.911248 0.460117
vt 0.854840 0.579337
vt 0.115885 0.689781
vt 0.141136 0.659518
vt 0.171399 0.684768
vt 0.146148 0.715032
vt 0.637542 0.504747
vt 0.640122 0.558146
vt 0.602774 0.550274
vt 0.160953 0.060711
vt 0.201593 0.000942
vt 0.213678 0.343997
vt 0.168574 0.350379
vt 0.176411 0.740283
vt 0.201662 0.710019
vt 0.286212 0.780566
vt 0.272943 0.820826
vt 0.191633 0.506532
vt 0.203969 0.505373
vt 0.629909 0.493815
vt 0.653603 0.332579
vt 0.689913 0.338047
vt 0.667990 0.498329
vt 0.733458 0.339621
vt 0.706034 0.502863
vt 0.145185 0.893154
vt 0.257540 0.844375
vt 0.032491 0.735263
vt 0.038551 0.844220
vt 0.644889 0.059993
vt 0.632821 0.006409
vt 0.902559 0.003057
vt 0.911248 0.021135
vt 0.873406 0.019020
vt 0.864717 0.000942
vt 0.677471 0.566019
vt 0.677471 0.843620
vt 0.674891 0.512620
vt 0.373066 0.523878
vt 0.628010 0.999058
vt 0.000942 0.703207
vt 0.026558 0.615249
vt 0.048283 0.582044
vt 0.070083 0.548901
vt 0.681199 0.065460
vt 0.129809 0.525762
vt 0.414865 0.502863
vn -0.9011 -0.1664 -0.4004
vn 0.4505 -0.2806 -0.8475
vn 0.5202 -0.2128 0.8271
vn 0.0834 -0.2156 0.9729
vn 0.0000 -1.0000 0.0000
vn -0.3197 0.3893 0.8638
vn -0.6263 0.3708 -0.6858
vn 0.9533 -0.2345 -0.1903
vn -0.9332 -0.1606 0.3215
vn 0.8507 0.5256 0.0000
vn 0.6013 0.2683 0.7526
vn 0.6851 -0.1513 0.7126
vn -0.0565 -0.2397 -0.9692
vn 0.6363 -0.1747 0.7514
vn 0.5496 0.2496 0.7972
vn 0.8996 0.4118 -0.1457
vn -0.2733 -0.2576 -0.9268
vn -0.4383 -0.2000 -0.8763
vn 0.0000 0.5256 -0.8507
vn 0.1808 0.3649 0.9133
vn 0.3602 -0.2066 0.9097
vn 0.0000 1.0000 0.0000
vn 0.9024 0.4310 0.0000
vn -0.4289 -0.2001 0.8809
vn -0.8608 0.4285 0.2745
vn 0.9678 -0.2450 -0.0572
vn 0.0000 0.4408 -0.8976
vn 0.6467 0.4311 -0.6293
vn -0.2065 0.4516 -0.8680
vn 0.8388 -0.2434 -0.4871
vn -0.5840 0.3963 -0.7085
vn -0.6443 -0.2541 -0.7213
usemtl None
s off
f 43/1/1 41/2/1 4/3/1 3/4/1
f 22/5/2 19/6/2 8/7/2 7/8/2
f 34/9/3 32/10/3 6/11/3 5/12/3
f 29/13/4 26/14/4 2/15/4 1/16/4
f 38/17/5 34/18/5 5/19/5 20/20/5
f 40/21/6 33/22/6 2/15/6 26/14/6
f 50/23/7 41/2/7 10/24/7 30/25/7
f 48/26/5 42/27/5 11/28/5 24/29/5
f 42/30/8 44/31/8 12/32/8 11/33/8
f 31/34/9 33/35/9 10/36/9 9/37/9
f 49/38/5 45/39/5 18/40/5 27/41/5
f 17/42/10 21/43/10 47/44/10
f 37/45/11 35/46/11 16/47/11 23/48/11
f 39/49/5 36/50/5 15/51/5 29/52/5
f 20/53/12 23/48/12 16/47/12 15/54/12
f 25/55/13 28/56/13 14/57/13 13/58/13
f 5/12/14 6/11/14 23/48/14 20/53/14
f 32/10/15 37/45/15 23/48/15 6/11/15
f 44/31/16 47/44/16 21/43/16 12/32/16
f 45/39/5 48/26/5 24/29/5 18/40/5
f 36/50/5 38/17/5 20/20/5 15/51/5
f 13/58/17 14/57/17 19/59/17 22/60/17
f 3/4/18 4/3/18 28/56/18 25/55/18
f 31/61/5 39/49/5 29/52/5 1/62/5
f 43/63/5 49/38/5 27/41/5 9/64/5
f 46/65/19 50/23/19 30/25/19 17/66/19
f 35/46/20 40/21/20 26/14/20 16/47/20
f 15/54/21 16/47/21 26/14/21 29/13/21
f 17/67/22 30/68/22 40/69/22 35/70/22
f 9/64/5 27/41/5 39/49/5 31/61/5
f 18/40/5 24/29/5 38/17/5 36/50/5
f 12/32/23 21/43/23 37/71/23 32/72/23
f 27/41/5 18/40/5 36/50/5 39/49/5
f 21/43/10 17/42/10 35/73/10 37/71/10
f 1/16/24 2/15/24 33/22/24 31/74/24
f 30/68/25 10/36/25 33/35/25 40/69/25
f 24/29/5 11/28/5 34/18/5 38/17/5
f 11/33/26 12/32/26 32/72/26 34/75/26
f 14/57/27 28/56/27 50/23/27 46/65/27
f 3/76/5 25/77/5 49/38/5 43/63/5
f 13/78/5 22/79/5 48/26/5 45/39/5
f 8/7/28 19/6/28 47/44/28 44/31/28
f 19/59/29 14/57/29 46/65/29 47/80/29
f 25/77/5 13/78/5 45/39/5 49/38/5
f 7/8/30 8/7/30 44/31/30 42/30/30
f 22/79/5 7/81/5 42/27/5 48/26/5
f 28/56/31 4/3/31 41/2/31 50/23/31
f 9/82/32 10/24/32 41/2/32 43/1/32
f 46/65/19 17/66/19 47/80/19
