# Blender v3.0.0 OBJ File: 'treetrunk.blend'
# www.blender.org
mtllib treetrunk.mtl
o Cylinder_Cylinder.001
v -6.004310 1.000000 -0.820361
v 5.993783 1.000000 -0.820361
v -6.004310 0.589819 -0.710454
v 5.993783 0.589819 -0.710454
v -6.004310 0.289546 -0.410181
v 5.993783 0.289546 -0.410181
v -6.004310 0.179639 0.000000
v 5.993783 0.179639 0.000000
v -6.004310 0.289547 0.410181
v 5.993783 0.289546 0.410181
v -6.004310 0.589819 0.710454
v 5.993783 0.589819 0.710454
v -6.004310 1.000000 0.820361
v 5.993783 1.000000 0.820361
v -6.004310 1.410181 0.710454
v 5.993783 1.410181 0.710454
v -6.004310 1.710454 0.410180
v 5.993783 1.710454 0.410180
v -6.004310 1.820361 -0.000000
v 5.993783 1.820361 -0.000000
v -6.004310 1.710454 -0.410180
v 5.993783 1.710454 -0.410180
v -6.004310 1.410181 -0.710453
v 5.993783 1.410181 -0.710453
v -6.004310 1.000000 -1.000000
v -6.004310 0.500000 -0.866025
v 5.993783 0.500000 -0.866025
v 5.993783 1.000000 -1.000000
v -6.004310 0.133975 -0.500000
v 5.993783 0.133974 -0.500000
v -6.004310 0.000000 0.000000
v 5.993783 -0.000000 0.000000
v -6.004310 0.133975 0.500000
v 5.993783 0.133975 0.500000
v -6.004310 0.500000 0.866025
v 5.993783 0.500000 0.866025
v -6.004310 1.000000 1.000000
v 5.993783 1.000000 1.000000
v -6.004310 1.500000 0.866025
v 5.993783 1.500000 0.866025
v -6.004310 1.866025 0.500000
v 5.993783 1.866025 0.500000
v -6.004310 2.000000 -0.000000
v 5.993783 2.000000 -0.000000
v -6.004310 1.866025 -0.500000
v 5.993783 1.866025 -0.500000
v -6.004310 1.500000 -0.866025
v 5.993783 1.500000 -0.866025
v 5.906324 0.589819 -0.710454
v 5.906324 1.000000 -0.820361
v 5.906324 0.289546 -0.410181
v 5.906324 0.179639 0.000000
v 5.906324 0.289546 0.410181
v 5.906324 0.589819 0.710454
v 5.906324 1.000000 0.820361
v 5.906324 1.410181 0.710454
v 5.906324 1.710454 0.410180
v 5.906324 1.820361 -0.000000
v 5.906324 1.710454 -0.410180
v 5.906324 1.410181 -0.710453
v -5.913754 1.000000 -0.820361
v -5.913754 0.589819 -0.710454
v -5.913754 0.289546 -0.410181
v -5.913754 0.179639 0.000000
v -5.913754 0.289547 0.410181
v -5.913754 0.589819 0.710454
v -5.913754 1.000000 0.820361
v -5.913754 1.410181 0.710454
v -5.913754 1.710454 0.410180
v -5.913754 1.820361 -0.000000
v -5.913754 1.710454 -0.410180
v -5.913754 1.410181 -0.710453
vt 0.158150 0.001084
vt 0.158150 0.998916
vt 0.120868 0.998916
vt 0.120868 0.001084
vt 0.358265 0.001084
vt 0.358265 0.998916
vt 0.320983 0.998916
vt 0.320983 0.001084
vt 0.277934 0.998916
vt 0.277933 0.001084
vt 0.240651 0.998916
vt 0.240651 0.001084
vt 0.118699 0.001084
vt 0.118699 0.998915
vt 0.081417 0.998915
vt 0.081416 0.001084
vt 0.038367 0.998915
vt 0.038367 0.001084
vt 0.001085 0.998916
vt 0.001085 0.001085
vt 0.478049 0.001084
vt 0.478049 0.998915
vt 0.440767 0.998915
vt 0.440767 0.001084
vt 0.397717 0.998915
vt 0.397717 0.001084
vt 0.360435 0.998915
vt 0.360435 0.001084
vt 0.623889 0.491307
vt 0.623889 0.455991
vt 0.631163 0.455991
vt 0.631163 0.491307
vt 0.238482 0.001084
vt 0.238482 0.998916
vt 0.201200 0.998916
vt 0.201200 0.001084
vt 0.621720 0.455991
vt 0.621720 0.491307
vt 0.614189 0.491307
vt 0.614189 0.455991
vt 0.608793 0.129660
vt 0.626451 0.099075
vt 0.640882 0.102941
vt 0.619357 0.140224
vt 0.608793 0.292493
vt 0.626451 0.261908
vt 0.640882 0.265774
vt 0.619357 0.303057
vt 0.578208 0.147318
vt 0.582075 0.161749
vt 0.626451 0.226591
vt 0.640882 0.222725
vt 0.542892 0.147318
vt 0.539025 0.161749
vt 0.608793 0.196006
vt 0.619357 0.185442
vt 0.512307 0.129660
vt 0.501743 0.140224
vt 0.578208 0.178348
vt 0.582075 0.163918
vt 0.494649 0.099075
vt 0.480218 0.102941
vt 0.542892 0.178348
vt 0.539025 0.163918
vt 0.494649 0.063758
vt 0.480218 0.059892
vt 0.512307 0.196006
vt 0.501743 0.185442
vt 0.512307 0.033173
vt 0.501743 0.022609
vt 0.494649 0.226591
vt 0.480218 0.222725
vt 0.542892 0.015515
vt 0.539025 0.001085
vt 0.494649 0.261908
vt 0.480218 0.265774
vt 0.578208 0.015515
vt 0.582075 0.001085
vt 0.512307 0.292493
vt 0.501743 0.303057
vt 0.608793 0.033173
vt 0.619357 0.022609
vt 0.542892 0.310151
vt 0.539025 0.324582
vt 0.626451 0.063758
vt 0.640882 0.059892
vt 0.578208 0.310151
vt 0.582075 0.324582
vt 0.594362 0.344409
vt 0.612020 0.374994
vt 0.612020 0.410310
vt 0.594362 0.440895
vt 0.563777 0.458553
vt 0.528461 0.458553
vt 0.497876 0.440895
vt 0.480218 0.410310
vt 0.480218 0.374994
vt 0.497876 0.344409
vt 0.528461 0.326751
vt 0.563777 0.326751
vt 0.623889 0.620547
vt 0.623889 0.589962
vt 0.631163 0.589962
vt 0.631163 0.620547
vt 0.640606 0.491307
vt 0.640606 0.521892
vt 0.633332 0.521892
vt 0.633332 0.491307
vt 0.633332 0.589962
vt 0.633332 0.554646
vt 0.640606 0.554646
vt 0.640606 0.589962
vt 0.640606 0.425406
vt 0.640606 0.455991
vt 0.633332 0.455991
vt 0.633332 0.425406
vt 0.623889 0.425406
vt 0.631163 0.425406
vt 0.623889 0.554646
vt 0.631163 0.554646
vt 0.623889 0.521892
vt 0.631163 0.521892
vt 0.633332 0.524061
vt 0.640606 0.524061
vt 0.633332 0.620547
vt 0.640606 0.620547
vt 0.623889 0.524061
vt 0.631163 0.524061
vt 0.612020 0.508965
vt 0.612020 0.544281
vt 0.594362 0.574866
vt 0.563777 0.592524
vt 0.528461 0.592524
vt 0.497876 0.574866
vt 0.480218 0.544281
vt 0.480218 0.508965
vt 0.497876 0.478380
vt 0.528461 0.460722
vt 0.563777 0.460722
vt 0.594362 0.478380
vt 0.614189 0.554646
vt 0.614189 0.524061
vt 0.621720 0.524061
vt 0.621720 0.554646
vt 0.631421 0.326751
vt 0.631421 0.357335
vt 0.623889 0.357335
vt 0.623889 0.326751
vt 0.621720 0.357335
vt 0.621720 0.392652
vt 0.614189 0.392652
vt 0.614189 0.357335
vt 0.631421 0.392652
vt 0.631421 0.423237
vt 0.623889 0.423237
vt 0.623889 0.392652
vt 0.621720 0.425406
vt 0.614189 0.425406
vt 0.614189 0.589962
vt 0.621720 0.589962
vt 0.621720 0.521892
vt 0.614189 0.521892
vt 0.621720 0.326751
vt 0.614189 0.326751
vt 0.621720 0.423237
vt 0.614189 0.423237
vt 0.614189 0.620547
vt 0.621720 0.620547
vn 0.0000 -0.2588 -0.9659
vn -0.0000 -0.7071 -0.7071
vn -0.0000 -0.9659 -0.2588
vn -0.0000 -0.9659 0.2588
vn -0.0000 -0.7071 0.7071
vn -0.0000 -0.2588 0.9659
vn 0.0000 0.2588 0.9659
vn 0.0000 0.7071 0.7071
vn 0.0000 0.9659 0.2588
vn 0.0000 0.9659 -0.2588
vn 0.0000 0.7071 -0.7071
vn 0.0000 0.2588 -0.9659
vn -1.0000 0.0000 0.0000
vn 1.0000 -0.0000 0.0000
usemtl None
s off
f 25/1/1 28/2/1 27/3/1 26/4/1
f 26/5/2 27/6/2 30/7/2 29/8/2
f 29/8/3 30/7/3 32/9/3 31/10/3
f 31/10/4 32/9/4 34/11/4 33/12/4
f 33/13/5 34/14/5 36/15/5 35/16/5
f 35/16/6 36/15/6 38/17/6 37/18/6
f 37/18/7 38/17/7 40/19/7 39/20/7
f 39/21/8 40/22/8 42/23/8 41/24/8
f 41/24/9 42/23/9 44/25/9 43/26/9
f 43/26/10 44/25/10 46/27/10 45/28/10
f 2/29/6 24/30/6 60/31/6 50/32/6
f 45/33/11 46/34/11 48/35/11 47/36/11
f 47/36/12 48/35/12 28/2/12 25/1/12
f 17/37/3 19/38/3 70/39/3 69/40/3
f 3/41/13 1/42/13 25/43/13 26/44/13
f 2/45/14 4/46/14 27/47/14 28/48/14
f 5/49/13 3/41/13 26/44/13 29/50/13
f 4/46/14 6/51/14 30/52/14 27/47/14
f 7/53/13 5/49/13 29/50/13 31/54/13
f 6/51/14 8/55/14 32/56/14 30/52/14
f 9/57/13 7/53/13 31/54/13 33/58/13
f 8/55/14 10/59/14 34/60/14 32/56/14
f 11/61/13 9/57/13 33/58/13 35/62/13
f 10/59/14 12/63/14 36/64/14 34/60/14
f 13/65/13 11/61/13 35/62/13 37/66/13
f 12/63/14 14/67/14 38/68/14 36/64/14
f 15/69/13 13/65/13 37/66/13 39/70/13
f 14/67/14 16/71/14 40/72/14 38/68/14
f 17/73/13 15/69/13 39/70/13 41/74/13
f 16/71/14 18/75/14 42/76/14 40/72/14
f 19/77/13 17/73/13 41/74/13 43/78/13
f 18/75/14 20/79/14 44/80/14 42/76/14
f 21/81/13 19/77/13 43/78/13 45/82/13
f 20/79/14 22/83/14 46/84/14 44/80/14
f 23/85/13 21/81/13 45/82/13 47/86/13
f 22/83/14 24/87/14 48/88/14 46/84/14
f 1/42/13 23/85/13 47/86/13 25/43/13
f 24/87/14 2/45/14 28/48/14 48/88/14
f 49/89/14 50/90/14 60/91/14 59/92/14 58/93/14 57/94/14 56/95/14 55/96/14 54/97/14 53/98/14 52/99/14 51/100/14
f 16/101/1 14/102/1 55/103/1 56/104/1
f 6/105/8 4/106/8 49/107/8 51/108/8
f 20/109/3 18/110/3 57/111/3 58/112/3
f 10/113/10 8/114/10 52/115/10 53/116/10
f 24/30/5 22/117/5 59/118/5 60/31/5
f 14/102/12 12/119/12 54/120/12 55/103/12
f 4/121/7 2/29/7 50/32/7 49/122/7
f 18/110/2 16/123/2 56/124/2 57/111/2
f 8/114/9 6/105/9 51/108/9 52/115/9
f 22/125/4 20/109/4 58/112/4 59/126/4
f 12/119/11 10/127/11 53/128/11 54/120/11
f 61/129/13 62/130/13 63/131/13 64/132/13 65/133/13 66/134/13 67/135/13 68/136/13 69/137/13 70/138/13 71/139/13 72/140/13
f 7/141/10 9/142/10 65/143/10 64/144/10
f 21/145/5 23/146/5 72/147/5 71/148/5
f 11/149/12 13/150/12 67/151/12 66/152/12
f 1/153/7 3/154/7 62/155/7 61/156/7
f 15/157/2 17/37/2 69/40/2 68/158/2
f 5/159/9 7/141/9 64/144/9 63/160/9
f 19/38/4 21/161/4 71/162/4 70/39/4
f 9/163/11 11/149/11 66/152/11 65/164/11
f 23/146/6 1/153/6 61/156/6 72/147/6
f 13/150/1 15/165/1 68/166/1 67/151/1
f 3/167/8 5/159/8 63/160/8 62/168/8
